rangeen1f.sfdir
StartChar: .notdef
Encoding: 0 0 53
Width: 512
VWidth: 1000
Flags: HW
LayerCount: 2
Fore
SplineSet
238.415440693 160.111595753 m 0
 238.415440693 166.505287803 243.60630795 171.69615506 250 171.69615506 c 0
 256.39369205 171.69615506 261.584559307 166.505287803 261.584559307 160.111595753 c 0
 261.584559307 140.037198584 261.584559307 119.962801416 261.584559307 99.8884042465 c 0
 261.584559307 93.4947121967 256.39369205 88.3038449398 250 88.3038449398 c 0
 243.60630795 88.3038449398 238.415440693 93.4947121967 238.415440693 99.8884042465 c 0
 238.415440693 119.962801416 238.415440693 140.037198584 238.415440693 160.111595753 c 0
183.584559307 561.888404247 m 2
 183.584559307 555.494712197 178.39369205 550.30384494 172 550.30384494 c 0
 165.60630795 550.30384494 160.415440693 555.494712197 160.415440693 561.888404247 c 0
 160.415440693 578.629468082 160.415440693 595.370531918 160.415440693 612.111595753 c 1
 183.292836234 629.788683126 205.764544117 640.572644174 227.83056434 644.463478896 c 0
 239.836819417 646.580505604 252.569546406 649.583582744 266.112572316 649.583582744 c 0
 294.112572316 649.583582744 321.445580128 638.250574932 348.111595753 615.584559307 c 1
 366.490795337 593.078313424 379.418893198 568.850666997 384.147429049 542.03380759 c 0
 386.508678271 528.642497807 389.604009658 514.886661462 389.604009658 499.556474124 c 0
 389.604009658 467.668908527 378.24007912 432.192931362 351.584559307 391.888404247 c 0
 350.238318196 389.852817931 342.11094491 388.419742738 331.912802357 388.419742738 c 0
 307.13672134 388.419742738 282.360640323 388.416341882 257.584559307 388.416341882 c 1
 257.584559307 203.888404247 l 2
 257.584559307 197.494712197 252.39369205 192.30384494 246 192.30384494 c 0
 239.60630795 192.30384494 234.415440693 197.494712197 234.415440693 203.888404247 c 2
 234.415440693 408.111595753 l 2
 234.415440693 410.028376433 243.240992333 411.584559307 254.111595753 411.584559307 c 2
 330.682219784 411.584559307 l 1
 355.716582114 450.458116807 366.434891093 484.811162391 366.434891093 515.779665646 c 0
 366.434891093 520.14041395 366.222367142 524.434053131 365.807364303 528.663754868 c 0
 359.926154124 551.627454398 348.00239036 572.683061601 331.888404247 592.415440693 c 1
 305.222388606 615.081456218 277.88938074 626.414463969 249.889380681 626.414463969 c 0
 246.975035619 626.414463969 244.053464745 626.291688641 241.12466806 626.046138 c 0
 222.238592229 620.988304249 203.058555964 610.935726385 183.584559307 595.888404247 c 1
 183.584559307 561.888404247 l 2
478.415440693 788.415440693 m 1
 33.5845593068 788.415440693 l 1
 33.5845593068 11.5845593068 l 1
 478.415440693 11.5845593068 l 1
 478.415440693 788.415440693 l 1
30.1115957535 811.584559307 m 2
 498.111595753 811.584559307 l 2
 500.028376433 811.584559307 501.584559307 802.759007667 501.584559307 791.888404247 c 2
 501.584559307 -8.11159575345 l 2
 501.584559307 -10.028376433 492.759007667 -11.5845593068 481.888404247 -11.5845593068 c 2
 13.8884042465 -11.5845593068 l 2
 11.971623567 -11.5845593068 10.4154406932 -2.75900766662 10.4154406932 8.11159575345 c 2
 10.4154406932 808.111595753 l 2
 10.4154406932 810.028376433 19.2409923334 811.584559307 30.1115957535 811.584559307 c 2
EndSplineSet
EndChar
StartChar: .notdef
Encoding: 0 0 53
Width: 512
VWidth: 1000
Flags: HW
LayerCount: 2
Fore
SplineSet
258.415039062 160.111328125 m 0
 258.415039062 166.504882812 263.606445312 171.696289062 270 171.696289062 c 0
 276.393554688 171.696289062 281.584960938 166.504882812 281.584960938 160.111328125 c 0
 281.584960938 140.037109375 281.584960938 119.962890625 281.584960938 99.888671875 c 0
 281.584960938 93.4951171875 276.393554688 88.3037109375 270 88.3037109375 c 0
 263.606445312 88.3037109375 258.415039062 93.4951171875 258.415039062 99.888671875 c 0
 258.415039062 119.962890625 258.415039062 140.037109375 258.415039062 160.111328125 c 0
203.584960938 561.888671875 m 2
 203.584960938 555.495117188 198.393554688 550.303710938 192 550.303710938 c 0
 185.606445312 550.303710938 180.415039062 555.495117188 180.415039062 561.888671875 c 0
 180.415039062 578.629882812 180.415039062 595.370117188 180.415039062 612.111328125 c 1
 203.29296875 629.7890625 225.764648438 640.572265625 247.830078125 644.463867188 c 0
 259.836914062 646.580078125 272.569335938 649.583984375 286.112304688 649.583984375 c 0
 314.112304688 649.583984375 341.4453125 638.250976562 368.111328125 615.584960938 c 1
 386.491210938 593.078125 399.418945312 568.850585938 404.147460938 542.034179688 c 0
 406.508789062 528.642578125 409.604492188 514.88671875 409.604492188 499.556640625 c 0
 409.604492188 467.668945312 398.240234375 432.193359375 371.584960938 391.888671875 c 0
 370.23828125 389.852539062 362.111328125 388.419921875 351.913085938 388.419921875 c 0
 327.13671875 388.419921875 302.360351562 388.416015625 277.584960938 388.416015625 c 1
 277.584960938 203.888671875 l 2
 277.584960938 197.495117188 272.393554688 192.303710938 266 192.303710938 c 0
 259.606445312 192.303710938 254.415039062 197.495117188 254.415039062 203.888671875 c 2
 254.415039062 408.111328125 l 2
 254.415039062 410.028320312 263.241210938 411.584960938 274.111328125 411.584960938 c 2
 350.682617188 411.584960938 l 1
 375.716796875 450.458007812 386.434570312 484.811523438 386.434570312 515.779296875 c 0
 386.434570312 520.140625 386.22265625 524.43359375 385.807617188 528.6640625 c 0
 379.92578125 551.627929688 368.001953125 572.682617188 351.888671875 592.415039062 c 1
 325.22265625 615.081054688 297.889648438 626.4140625 269.889648438 626.4140625 c 0
 266.974609375 626.4140625 264.053710938 626.291992188 261.125 626.045898438 c 0
 242.23828125 620.98828125 223.05859375 610.935546875 203.584960938 595.888671875 c 1
 203.584960938 561.888671875 l 2
498.415039062 788.415039062 m 1
 53.5849609375 788.415039062 l 1
 53.5849609375 11.5849609375 l 1
 498.415039062 11.5849609375 l 1
 498.415039062 788.415039062 l 1
50.111328125 811.584960938 m 2
 518.111328125 811.584960938 l 2
 520.028320312 811.584960938 521.584960938 802.758789062 521.584960938 791.888671875 c 2
 521.584960938 -8.111328125 l 2
 521.584960938 -10.0283203125 512.758789062 -11.5849609375 501.888671875 -11.5849609375 c 2
 33.888671875 -11.5849609375 l 2
 31.9716796875 -11.5849609375 30.4150390625 -2.7587890625 30.4150390625 8.111328125 c 2
 30.4150390625 808.111328125 l 2
 30.4150390625 810.028320312 39.2412109375 811.584960938 50.111328125 811.584960938 c 2
EndSplineSet
EndChar
StartChar: exclam
Encoding: 33 33 0
Width: 119
Flags: HW
LayerCount: 2
Fore
SplineSet
135 817 m 0
 137.73828125 817 139.965820312 814.79296875 140 812.0625 c 2
 146 323 l 2
 146 320.240234375 143.759765625 318 141 318 c 0
 138.26171875 318 136.034179688 320.20703125 136 322.9375 c 2
 136 322.9375 130 811.9375 130 812 c 0
 130 814.759765625 132.240234375 817 135 817 c 0
139 203 m 2
 139 205.759765625 141.240234375 208 144 208 c 0
 146.759765625 208 149 205.759765625 149 203 c 2
 149 137 l 2
 149 134.240234375 146.759765625 132 144 132 c 0
 141.240234375 132 139 134.240234375 139 137 c 2
 139 203 l 2
EndSplineSet
EndChar
StartChar: quotedbl
Encoding: 34 34 1
Width: 203
Flags: HW
LayerCount: 2
Fore
SplineSet
70 737 m 0
 70 739.759765625 72.240234375 742 75 742 c 0
 77.6826171875 742 79.8740234375 739.8828125 79.9951171875 737.23046875 c 2
 82.9951171875 671.23046875 l 2
 82.998046875 671.154296875 83 671.077148438 83 671 c 0
 83 668.240234375 80.759765625 666 78 666 c 0
 75.3173828125 666 73.1259765625 668.1171875 73.0048828125 670.76953125 c 2
 70.0048828125 736.76953125 l 2
 70.001953125 736.845703125 70 736.922851562 70 737 c 0
160 740 m 0
 160 742.759765625 162.240234375 745 165 745 c 0
 167.682617188 745 169.874023438 742.8828125 169.995117188 740.23046875 c 2
 172.995117188 674.23046875 l 2
 172.998046875 674.154296875 173 674.077148438 173 674 c 0
 173 671.240234375 170.759765625 669 168 669 c 0
 165.317382812 669 163.125976562 671.1171875 163.004882812 673.76953125 c 2
 160.004882812 739.76953125 l 2
 160.001953125 739.845703125 160 739.922851562 160 740 c 0
EndSplineSet
EndChar
StartChar: quotedbl
Encoding: 34 34 1
Width: 203
Flags: HW
LayerCount: 2
Fore
SplineSet
80 737 m 0
 80 739.759765625 82.240234375 742 85 742 c 0
 87.6826171875 742 89.8740234375 739.8828125 89.9951171875 737.23046875 c 2
 92.9951171875 671.23046875 l 2
 92.998046875 671.154296875 93 671.077148438 93 671 c 0
 93 668.240234375 90.759765625 666 88 666 c 0
 85.3173828125 666 83.1259765625 668.1171875 83.0048828125 670.76953125 c 2
 80.0048828125 736.76953125 l 2
 80.001953125 736.845703125 80 736.922851562 80 737 c 0
170 740 m 0
 170 742.759765625 172.240234375 745 175 745 c 0
 177.682617188 745 179.874023438 742.8828125 179.995117188 740.23046875 c 2
 182.995117188 674.23046875 l 2
 182.998046875 674.154296875 183 674.077148438 183 674 c 0
 183 671.240234375 180.759765625 669 178 669 c 0
 175.317382812 669 173.125976562 671.1171875 173.004882812 673.76953125 c 2
 170.004882812 739.76953125 l 2
 170.001953125 739.845703125 170 739.922851562 170 740 c 0
EndSplineSet
EndChar
StartChar: numbersign
Encoding: 35 35 2
Width: 521
Flags: HW
LayerCount: 2
Fore
SplineSet
135 249.999023438 m 2
 132.240234375 249.999023438 130 252.240234375 130 255 c 0
 130 257.72265625 132.180664062 259.939453125 134.888671875 259.999023438 c 2
 546 269.000976562 l 2
 548.759765625 269.000976562 551 266.759765625 551 264 c 0
 551 261.27734375 548.819335938 259.060546875 546.111328125 259.000976562 c 2
 135 249.999023438 l 2
135 449.999023438 m 2
 132.240234375 449.999023438 130 452.240234375 130 455 c 0
 130 457.72265625 132.180664062 459.939453125 134.888671875 459.999023438 c 2
 546 469.000976562 l 2
 548.759765625 469.000976562 551 466.759765625 551 464 c 0
 551 461.27734375 548.819335938 459.060546875 546.111328125 459.000976562 c 2
 135 449.999023438 l 2
459 547 m 0
 461.759765625 547 464 544.759765625 464 542 c 0
 464 541.740234375 463.98046875 541.484375 463.94140625 541.234375 c 2
 409.94140625 190.234375 l 2
 409.573242188 187.837890625 407.499023438 186 405 186 c 0
 402.240234375 186 400 188.240234375 400 191 c 0
 400 191.259765625 400.01953125 191.515625 400.05859375 191.765625 c 2
 454.05859375 542.765625 l 2
 454.426757812 545.162109375 456.500976562 547 459 547 c 0
258 547 m 0
 260.759765625 547 263 544.759765625 263 542 c 0
 263 541.740234375 262.98046875 541.484375 262.94140625 541.234375 c 2
 208.94140625 190.234375 l 2
 208.573242188 187.837890625 206.499023438 186 204 186 c 0
 201.240234375 186 199 188.240234375 199 191 c 0
 199 191.259765625 199.01953125 191.515625 199.05859375 191.765625 c 2
 253.05859375 542.765625 l 2
 253.426757812 545.162109375 255.500976562 547 258 547 c 0
EndSplineSet
EndChar
StartChar: dollar
Encoding: 36 36 3
Width: 311
Flags: HW
LayerCount: 2
Fore
SplineSet
151 203 m 2
 151 205.759765625 153.240234375 208 156 208 c 0
 158.759765625 208 161 205.759765625 161 203 c 2
 161 -1 l 2
 161 -3.759765625 158.759765625 -6 156 -6 c 0
 153.240234375 -6 151 -3.759765625 151 -1 c 2
 151 203 l 2
184 803 m 2
 184 805.759765625 186.240234375 808 189 808 c 0
 191.759765625 808 194 805.759765625 194 803 c 2
 194 611 l 2
 194 608.240234375 191.759765625 606 189 606 c 0
 186.240234375 606 184 608.240234375 184 611 c 2
 184 803 l 2
251 635 m 0
 251 632.240234375 248.759765625 630 246 630 c 0
 245.125 630 244.301757812 630.225585938 243.584960938 630.62109375 c 0
 231.479492188 637.31640625 221.138671875 647.916015625 211.647460938 657.53125 c 0
 203.143554688 666.14453125 195.283203125 673.885742188 188.432617188 677.672851562 c 1
 131.512695312 661.987304688 95.52734375 604.155273438 95.52734375 546.955078125 c 0
 95.52734375 531.779296875 98.0673828125 516.698242188 103.384765625 502.541992188 c 1
 160.086914062 434.118164062 281.627929688 375.078125 281.627929688 265.567382812 c 0
 281.55859375 262.962890625 278.133789062 229.0234375 271.993164062 211.137695312 c 1
 271.345703125 160.970703125 226.947265625 136.62109375 186.9296875 129.0859375 c 0
 177.547851562 127.3203125 169.416992188 126.475585938 162.150390625 126.475585938 c 0
 134.803710938 126.475585938 120.864257812 138.940429688 103.190429688 154.874023438 c 0
 98.2392578125 159.337890625 92.9296875 164.124023438 86.8291015625 169.134765625 c 0
 86.0458984375 169.778320312 85.4609375 170.65625 85.181640625 171.66015625 c 2
 70.181640625 225.66015625 l 2
 70.0634765625 226.086914062 70 226.536132812 70 227 c 0
 70 229.759765625 72.240234375 232 75 232 c 0
 77.2958984375 232 79.232421875 230.44921875 79.818359375 228.33984375 c 2
 94.3984375 175.8515625 l 1
 100.1953125 171.037109375 105.254882812 166.474609375 109.8828125 162.302734375 c 0
 127.76953125 146.17578125 138.415039062 136.475585938 162.150390625 136.475585938 c 0
 168.623046875 136.475585938 176.149414062 137.234375 185.0703125 138.9140625 c 0
 223.782226562 146.202148438 261.8671875 168.583007812 262 212.015625 c 0
 262.001953125 212.584960938 262.098632812 213.131835938 262.276367188 213.641601562 c 0
 268.770507812 232.313476562 271.627929688 249.534179688 271.627929688 265.567382812 c 0
 271.627929688 368.5078125 150.541015625 429.42578125 95.1357421875 496.828125 c 0
 94.7978515625 497.240234375 94.5234375 497.706054688 94.3291015625 498.211914062 c 0
 88.349609375 513.807617188 85.52734375 530.357421875 85.52734375 546.955078125 c 0
 85.52734375 608.556640625 124.50390625 671.538085938 187.75 687.841796875 c 0
 188.149414062 687.9453125 188.568359375 688 189 688 c 0
 189.76171875 688 190.484375 687.829101562 191.130859375 687.524414062 c 0
 200.888671875 682.916015625 209.645507812 673.790039062 218.762695312 664.5546875 c 0
 228.266601562 654.927734375 238.1171875 645.07421875 248.415039062 639.37890625 c 0
 249.956054688 638.526367188 251 636.883789062 251 635 c 0
EndSplineSet
EndChar
StartChar: percent
Encoding: 37 37 4
Width: 512
Flags: HW
LayerCount: 2
Fore
SplineSet
370 317 m 0
 370 353.87109375 394.365234375 385 426 385 c 0
 457.634765625 385 482 353.87109375 482 317 c 0
 482 280.12890625 457.634765625 249 426 249 c 0
 394.365234375 249 370 280.12890625 370 317 c 0
380 317 m 0
 380 283.87109375 401.634765625 259 426 259 c 0
 450.365234375 259 472 283.87109375 472 317 c 0
 472 350.12890625 450.365234375 375 426 375 c 0
 401.634765625 375 380 350.12890625 380 317 c 0
70 617 m 0
 70 653.87109375 94.365234375 685 126 685 c 0
 157.634765625 685 182 653.87109375 182 617 c 0
 182 580.12890625 157.634765625 549 126 549 c 0
 94.365234375 549 70 580.12890625 70 617 c 0
80 617 m 0
 80 583.87109375 101.634765625 559 126 559 c 0
 150.365234375 559 172 583.87109375 172 617 c 0
 172 650.12890625 150.365234375 675 126 675 c 0
 101.634765625 675 80 650.12890625 80 617 c 0
417 652 m 0
 419.759765625 652 422 649.759765625 422 647 c 0
 422 645.923828125 421.659179688 644.926757812 421.080078125 644.111328125 c 2
 91.080078125 179.111328125 l 2
 90.173828125 177.833984375 88.68359375 177 87 177 c 0
 84.240234375 177 82 179.240234375 82 182 c 0
 82 183.076171875 82.3408203125 184.073242188 82.919921875 184.888671875 c 2
 412.919921875 649.888671875 l 2
 413.826171875 651.166015625 415.31640625 652 417 652 c 0
EndSplineSet
EndChar
StartChar: percent
Encoding: 37 37 4
Width: 512
Flags: HW
LayerCount: 2
Fore
SplineSet
430 317 m 0
 430 353.87109375 454.365234375 385 486 385 c 0
 517.634765625 385 542 353.87109375 542 317 c 0
 542 280.12890625 517.634765625 249 486 249 c 0
 454.365234375 249 430 280.12890625 430 317 c 0
440 317 m 0
 440 283.87109375 461.634765625 259 486 259 c 0
 510.365234375 259 532 283.87109375 532 317 c 0
 532 350.12890625 510.365234375 375 486 375 c 0
 461.634765625 375 440 350.12890625 440 317 c 0
130 617 m 0
 130 653.87109375 154.365234375 685 186 685 c 0
 217.634765625 685 242 653.87109375 242 617 c 0
 242 580.12890625 217.634765625 549 186 549 c 0
 154.365234375 549 130 580.12890625 130 617 c 0
140 617 m 0
 140 583.87109375 161.634765625 559 186 559 c 0
 210.365234375 559 232 583.87109375 232 617 c 0
 232 650.12890625 210.365234375 675 186 675 c 0
 161.634765625 675 140 650.12890625 140 617 c 0
477 652 m 0
 479.759765625 652 482 649.759765625 482 647 c 0
 482 645.923828125 481.659179688 644.926757812 481.080078125 644.111328125 c 2
 151.080078125 179.111328125 l 2
 150.173828125 177.833984375 148.68359375 177 147 177 c 0
 144.240234375 177 142 179.240234375 142 182 c 0
 142 183.076171875 142.340820312 184.073242188 142.919921875 184.888671875 c 2
 472.919921875 649.888671875 l 2
 473.826171875 651.166015625 475.31640625 652 477 652 c 0
EndSplineSet
EndChar
StartChar: ampersand
Encoding: 38 38 5
Width: 389
Flags: HW
LayerCount: 2
Fore
SplineSet
278.817382812 546.603515625 m 0
 278.817382812 468.35546875 222.293945312 420.680664062 171.897460938 374.041015625 c 1
 194.094726562 324.353515625 213.282226562 261.856445312 241.140625 220.802734375 c 2
 294.833984375 141.674804688 l 1
 298.69921875 146.608398438 302.459960938 151.887695312 306.081054688 157.4375 c 0
 331.603515625 196.55078125 349 247.001953125 349 272 c 0
 349 274.759765625 351.240234375 277 354 277 c 0
 356.759765625 277 359 274.759765625 359 272 c 0
 359 243.505859375 340.896484375 192.493164062 314.461914062 151.982421875 c 0
 310.137695312 145.35546875 305.556640625 138.950195312 300.749023438 132.958984375 c 1
 343.4921875 69.9697265625 l 2
 344.034179688 69.169921875 344.3515625 68.205078125 344.3515625 67.1669921875 c 0
 344.3515625 64.4072265625 342.111328125 62.1669921875 339.3515625 62.1669921875 c 0
 337.629882812 62.1669921875 336.111328125 63.0390625 335.2109375 64.3642578125 c 2
 294.037109375 125.041992188 l 1
 277.071289062 106.151367188 257.665039062 93 237 93 c 0
 194.413085938 93 157.079101562 95.685546875 128.181640625 108.340820312 c 0
 91.58203125 124.369140625 70 156.534179688 70 215 c 0
 70 287.35546875 113.989257812 333.77734375 159.799804688 376.458984375 c 1
 156.1796875 384.265625 152.473632812 391.682617188 148.630859375 398.568359375 c 0
 132.633789062 427.231445312 137.692382812 459.315429688 124.43359375 488.962890625 c 0
 124.155273438 489.584960938 124 490.274414062 124 491 c 2
 124 644 l 2
 124 644.641601562 124.12109375 645.255859375 124.341796875 645.819335938 c 2
 151.341796875 714.819335938 l 2
 151.759765625 715.88671875 152.534179688 716.776367188 153.517578125 717.340820312 c 0
 161.374023438 721.845703125 166.561523438 727.422851562 172.038085938 733.349609375 c 0
 182.713867188 744.90625 194.537109375 757 225 757 c 0
 249.474609375 757 261.6875 732.857421875 268.202148438 705.404296875 c 0
 276.555664062 670.200195312 276.893554688 624.354492188 277.172851562 592.942382812 c 0
 277.288085938 579.935546875 277.401367188 569.344726562 277.975585938 563.493164062 c 0
 278.54296875 557.71484375 278.817382812 552.087890625 278.817382812 546.603515625 c 0
225 747 m 0
 197.609375 747 189.759765625 737.799804688 179.383789062 726.567382812 c 0
 174.241210938 721.000976562 168.510742188 714.764648438 160.030273438 709.577148438 c 1
 134 643.0546875 l 1
 134 492.0546875 l 1
 146.770507812 462.630859375 142.4453125 430.171875 157.369140625 403.431640625 c 0
 160.870117188 397.158203125 164.236328125 390.517578125 167.5078125 383.600585938 c 1
 217.70703125 429.916015625 268.817382812 474.84765625 268.817382812 546.603515625 c 0
 268.817382812 551.747070312 268.560546875 557.043945312 268.024414062 562.506835938 c 0
 267.36328125 569.2421875 267.2890625 579.799804688 267.172851562 592.8515625 c 0
 266.89453125 624.198242188 266.420898438 669.590820312 258.471679688 703.090820312 c 0
 251.943359375 730.6015625 241.19921875 747 225 747 c 0
80 215 m 0
 80 159.166015625 99.52734375 131.80859375 132.185546875 117.505859375 c 0
 158.6953125 105.896484375 194.784179688 103 237 103 c 0
 253.921875 103 271.78515625 115.009765625 288.188476562 133.66015625 c 1
 232.859375 215.197265625 l 2
 204.41796875 257.111328125 186.064453125 316.942382812 164.14453125 366.82421875 c 1
 119.547851562 325.004882812 80 281.5703125 80 215 c 0
EndSplineSet
EndChar
StartChar: ampersand
Encoding: 38 38 5
Width: 389
Flags: HW
LayerCount: 2
Fore
SplineSet
338.817382812 546.603515625 m 0
 338.817382812 468.35546875 282.293945312 420.680664062 231.897460938 374.041015625 c 1
 254.094726562 324.353515625 273.282226562 261.856445312 301.140625 220.802734375 c 2
 354.833984375 141.674804688 l 1
 358.69921875 146.608398438 362.459960938 151.887695312 366.081054688 157.4375 c 0
 391.603515625 196.55078125 409 247.001953125 409 272 c 0
 409 274.759765625 411.240234375 277 414 277 c 0
 416.759765625 277 419 274.759765625 419 272 c 0
 419 243.505859375 400.896484375 192.493164062 374.461914062 151.982421875 c 0
 370.137695312 145.35546875 365.556640625 138.950195312 360.749023438 132.958984375 c 1
 403.4921875 69.9697265625 l 2
 404.034179688 69.169921875 404.3515625 68.205078125 404.3515625 67.1669921875 c 0
 404.3515625 64.4072265625 402.111328125 62.1669921875 399.3515625 62.1669921875 c 0
 397.629882812 62.1669921875 396.111328125 63.0390625 395.2109375 64.3642578125 c 2
 354.037109375 125.041992188 l 1
 337.071289062 106.151367188 317.665039062 93 297 93 c 0
 254.413085938 93 217.079101562 95.685546875 188.181640625 108.340820312 c 0
 151.58203125 124.369140625 130 156.534179688 130 215 c 0
 130 287.35546875 173.989257812 333.77734375 219.799804688 376.458984375 c 1
 216.1796875 384.265625 212.473632812 391.682617188 208.630859375 398.568359375 c 0
 192.633789062 427.231445312 197.692382812 459.315429688 184.43359375 488.962890625 c 0
 184.155273438 489.584960938 184 490.274414062 184 491 c 2
 184 644 l 2
 184 644.641601562 184.12109375 645.255859375 184.341796875 645.819335938 c 2
 211.341796875 714.819335938 l 2
 211.759765625 715.88671875 212.534179688 716.776367188 213.517578125 717.340820312 c 0
 221.374023438 721.845703125 226.561523438 727.422851562 232.038085938 733.349609375 c 0
 242.713867188 744.90625 254.537109375 757 285 757 c 0
 309.474609375 757 321.6875 732.857421875 328.202148438 705.404296875 c 0
 336.555664062 670.200195312 336.893554688 624.354492188 337.172851562 592.942382812 c 0
 337.288085938 579.935546875 337.401367188 569.344726562 337.975585938 563.493164062 c 0
 338.54296875 557.71484375 338.817382812 552.087890625 338.817382812 546.603515625 c 0
285 747 m 0
 257.609375 747 249.759765625 737.799804688 239.383789062 726.567382812 c 0
 234.241210938 721.000976562 228.510742188 714.764648438 220.030273438 709.577148438 c 1
 194 643.0546875 l 1
 194 492.0546875 l 1
 206.770507812 462.630859375 202.4453125 430.171875 217.369140625 403.431640625 c 0
 220.870117188 397.158203125 224.236328125 390.517578125 227.5078125 383.600585938 c 1
 277.70703125 429.916015625 328.817382812 474.84765625 328.817382812 546.603515625 c 0
 328.817382812 551.747070312 328.560546875 557.043945312 328.024414062 562.506835938 c 0
 327.36328125 569.2421875 327.2890625 579.799804688 327.172851562 592.8515625 c 0
 326.89453125 624.198242188 326.420898438 669.590820312 318.471679688 703.090820312 c 0
 311.943359375 730.6015625 301.19921875 747 285 747 c 0
140 215 m 0
 140 159.166015625 159.52734375 131.80859375 192.185546875 117.505859375 c 0
 218.6953125 105.896484375 254.784179688 103 297 103 c 0
 313.921875 103 331.78515625 115.009765625 348.188476562 133.66015625 c 1
 292.859375 215.197265625 l 2
 264.41796875 257.111328125 246.064453125 316.942382812 224.14453125 366.82421875 c 1
 179.547851562 325.004882812 140 281.5703125 140 215 c 0
EndSplineSet
EndChar
StartChar: quotesingle
Encoding: 39 39 6
Width: 113
Flags: HW
LayerCount: 2
Fore
SplineSet
88.00390625 733 m 0
 90.7626953125 733 93.080078125 730.758789062 93.005859375 728 c 2
 90.001953125 616.862304688 l 2
 89.9287109375 614.166015625 87.716796875 612 85.00390625 612 c 0
 82.244140625 612 79.9267578125 614.241210938 80.001953125 617 c 2
 83.005859375 728.137695312 l 2
 83.078125 730.833984375 85.2900390625 733 88.00390625 733 c 0
EndSplineSet
EndChar
StartChar: parenleft
Encoding: 40 40 7
Width: 164
Flags: HW
LayerCount: 2
Fore
SplineSet
129 -44 m 0
 131.759765625 -44 134 -46.240234375 134 -49 c 0
 134 -51.759765625 131.759765625 -54 129 -54 c 0
 118.172851562 -54 112.373046875 -40.7392578125 107.298828125 -24.8447265625 c 0
 100.469726562 -3.4501953125 94.4072265625 29.494140625 89.173828125 71.7294921875 c 0
 77.404296875 166.708984375 70 308.499023438 70 467 c 0
 70 625.500976562 77.404296875 767.291015625 89.173828125 862.270507812 c 0
 94.4072265625 904.505859375 100.469726562 937.450195312 107.298828125 958.844726562 c 0
 112.373046875 974.739257812 118.172851562 988 129 988 c 0
 131.759765625 988 134 985.759765625 134 983 c 0
 134 980.240234375 131.759765625 978 129 978 c 0
 127.975585938 978 122.391601562 973.234375 116.827148438 955.8046875 c 0
 110.359375 935.541992188 104.2890625 902.928710938 99.09765625 861.030273438 c 0
 87.41015625 766.708984375 80 625.166015625 80 467 c 0
 80 308.833984375 87.41015625 167.291015625 99.09765625 72.9697265625 c 0
 104.2890625 31.0712890625 110.359375 -1.5419921875 116.827148438 -21.8046875 c 0
 122.391601562 -39.234375 127.975585938 -44 129 -44 c 0
EndSplineSet
EndChar
StartChar: parenleft
Encoding: 40 40 7
Width: 164
Flags: HW
LayerCount: 2
Fore
SplineSet
189 -44 m 0
 191.759765625 -44 194 -46.240234375 194 -49 c 0
 194 -51.759765625 191.759765625 -54 189 -54 c 0
 178.172851562 -54 172.373046875 -40.7392578125 167.298828125 -24.8447265625 c 0
 160.469726562 -3.4501953125 154.407226562 29.494140625 149.173828125 71.7294921875 c 0
 137.404296875 166.708984375 130 308.499023438 130 467 c 0
 130 625.500976562 137.404296875 767.291015625 149.173828125 862.270507812 c 0
 154.407226562 904.505859375 160.469726562 937.450195312 167.298828125 958.844726562 c 0
 172.373046875 974.739257812 178.172851562 988 189 988 c 0
 191.759765625 988 194 985.759765625 194 983 c 0
 194 980.240234375 191.759765625 978 189 978 c 0
 187.975585938 978 182.391601562 973.234375 176.827148438 955.8046875 c 0
 170.359375 935.541992188 164.2890625 902.928710938 159.09765625 861.030273438 c 0
 147.41015625 766.708984375 140 625.166015625 140 467 c 0
 140 308.833984375 147.41015625 167.291015625 159.09765625 72.9697265625 c 0
 164.2890625 31.0712890625 170.359375 -1.5419921875 176.827148438 -21.8046875 c 0
 182.391601562 -39.234375 187.975585938 -44 189 -44 c 0
EndSplineSet
EndChar
StartChar: parenright
Encoding: 41 41 8
Width: 164
Flags: HW
LayerCount: 2
Fore
SplineSet
75 -54 m 0
 72.240234375 -54 70 -51.759765625 70 -49 c 0
 70 -46.240234375 72.240234375 -44 75 -44 c 0
 76.0244140625 -44 81.6083984375 -39.234375 87.1728515625 -21.8046875 c 0
 93.640625 -1.5419921875 99.7109375 31.0712890625 104.90234375 72.9697265625 c 0
 116.58984375 167.291015625 124 308.833984375 124 467 c 0
 124 625.166015625 116.58984375 766.708984375 104.90234375 861.030273438 c 0
 99.7109375 902.928710938 93.640625 935.541992188 87.1728515625 955.8046875 c 0
 81.6083984375 973.234375 76.0244140625 978 75 978 c 0
 72.240234375 978 70 980.240234375 70 983 c 0
 70 985.759765625 72.240234375 988 75 988 c 0
 85.8271484375 988 91.626953125 974.739257812 96.701171875 958.844726562 c 0
 103.530273438 937.450195312 109.592773438 904.505859375 114.826171875 862.270507812 c 0
 126.595703125 767.291015625 134 625.500976562 134 467 c 0
 134 308.499023438 126.595703125 166.708984375 114.826171875 71.7294921875 c 0
 109.592773438 29.494140625 103.530273438 -3.4501953125 96.701171875 -24.8447265625 c 0
 91.626953125 -40.7392578125 85.8271484375 -54 75 -54 c 0
EndSplineSet
EndChar
StartChar: asterisk
Encoding: 42 42 9
Width: 341
Flags: HW
LayerCount: 2
Fore
SplineSet
304 573 m 0
 306.759765625 573 309 570.759765625 309 568 c 0
 309 566.639648438 308.456054688 565.40625 307.573242188 564.50390625 c 2
 80.5732421875 332.50390625 l 2
 79.6650390625 331.576171875 78.3994140625 331 77 331 c 0
 74.240234375 331 72 333.240234375 72 336 c 0
 72 337.360351562 72.5439453125 338.59375 73.4267578125 339.49609375 c 2
 300.426757812 571.49609375 l 2
 301.334960938 572.423828125 302.600585938 573 304 573 c 0
70 565 m 0
 70 567.759765625 72.240234375 570 75 570 c 0
 76.3603515625 570 77.59375 569.456054688 78.49609375 568.573242188 c 2
 309.49609375 342.573242188 l 2
 310.423828125 341.666015625 311 340.399414062 311 339 c 0
 311 336.240234375 308.759765625 334 306 334 c 0
 304.639648438 334 303.40625 334.543945312 302.50390625 335.426757812 c 2
 71.50390625 561.426757812 l 2
 70.576171875 562.333984375 70 563.600585938 70 565 c 0
189 619 m 0
 191.744140625 619 193.974609375 616.78515625 194 614.046875 c 2
 197 290 l 2
 197 287.240234375 194.759765625 285 192 285 c 0
 189.255859375 285 187.025390625 287.21484375 187 289.953125 c 2
 184 613.953125 l 2
 184 616.759765625 186.240234375 619 189 619 c 0
EndSplineSet
EndChar
StartChar: asterisk
Encoding: 42 42 9
Width: 341
Flags: HW
LayerCount: 2
Fore
SplineSet
364 573 m 0
 366.759765625 573 369 570.759765625 369 568 c 0
 369 566.639648438 368.456054688 565.40625 367.573242188 564.50390625 c 2
 140.573242188 332.50390625 l 2
 139.665039062 331.576171875 138.399414062 331 137 331 c 0
 134.240234375 331 132 333.240234375 132 336 c 0
 132 337.360351562 132.543945312 338.59375 133.426757812 339.49609375 c 2
 360.426757812 571.49609375 l 2
 361.334960938 572.423828125 362.600585938 573 364 573 c 0
130 565 m 0
 130 567.759765625 132.240234375 570 135 570 c 0
 136.360351562 570 137.59375 569.456054688 138.49609375 568.573242188 c 2
 369.49609375 342.573242188 l 2
 370.423828125 341.666015625 371 340.399414062 371 339 c 0
 371 336.240234375 368.759765625 334 366 334 c 0
 364.639648438 334 363.40625 334.543945312 362.50390625 335.426757812 c 2
 131.50390625 561.426757812 l 2
 130.576171875 562.333984375 130 563.600585938 130 565 c 0
249 619 m 0
 251.744140625 619 253.974609375 616.78515625 254 614.046875 c 2
 257 290 l 2
 257 287.240234375 254.759765625 285 252 285 c 0
 249.255859375 285 247.025390625 287.21484375 247 289.953125 c 2
 244 613.953125 l 2
 244 616.759765625 246.240234375 619 249 619 c 0
EndSplineSet
EndChar
StartChar: plus
Encoding: 43 43 10
Width: 389
Flags: HW
LayerCount: 2
Fore
SplineSet
211 554 m 2
 211 556.759765625 213.240234375 559 216 559 c 0
 218.759765625 559 221 556.759765625 221 554 c 2
 221 273 l 2
 221 270.240234375 218.759765625 268 216 268 c 0
 213.240234375 268 211 270.240234375 211 273 c 2
 211 554 l 2
85 406 m 2
 82.240234375 406 80 408.240234375 80 411 c 0
 80 413.759765625 82.240234375 416 85 416 c 2
 364 416 l 2
 366.759765625 416 369 413.759765625 369 411 c 0
 369 408.240234375 366.759765625 406 364 406 c 2
 85 406 l 2
EndSplineSet
EndChar
StartChar: comma
Encoding: 44 44 11
Width: 146
Flags: HW
LayerCount: 2
Fore
SplineSet
116 -7 m 0
 116 6.46484375 107 23.486328125 107 26 c 0
 107 28.759765625 109.240234375 31 112 31 c 0
 114.030273438 31 115.779296875 29.787109375 116.5625 28.0478515625 c 0
 116.647460938 27.859375 126 7.853515625 126 -7 c 0
 126 -20.53125 118.09765625 -33.8232421875 109.966796875 -44.4951171875 c 0
 99.7236328125 -57.939453125 88.41015625 -67.6611328125 88.259765625 -67.7900390625 c 0
 87.384765625 -68.5439453125 86.2451171875 -69 85 -69 c 0
 82.240234375 -69 80 -66.759765625 80 -64 c 0
 80 -62.4853515625 80.6748046875 -61.126953125 81.740234375 -60.2099609375 c 0
 81.89453125 -60.0771484375 116 -29.4111328125 116 -7 c 0
EndSplineSet
EndChar
StartChar: hyphen
Encoding: 45 45 12
Width: 458
Flags: HW
LayerCount: 2
Fore
SplineSet
75 406 m 2
 72.240234375 406 70 408.240234375 70 411 c 0
 70 413.759765625 72.240234375 416 75 416 c 2
 423 416 l 2
 425.759765625 416 428 413.759765625 428 411 c 0
 428 408.240234375 425.759765625 406 423 406 c 2
 75 406 l 2
EndSplineSet
EndChar
StartChar: hyphen
Encoding: 45 45 12
Width: 458
Flags: HW
LayerCount: 2
Fore
SplineSet
135 406 m 2
 132.240234375 406 130 408.240234375 130 411 c 0
 130 413.759765625 132.240234375 416 135 416 c 2
 483 416 l 2
 485.759765625 416 488 413.759765625 488 411 c 0
 488 408.240234375 485.759765625 406 483 406 c 2
 135 406 l 2
EndSplineSet
EndChar
StartChar: period
Encoding: 46 46 13
Width: 110
Flags: HW
LayerCount: 2
Fore
SplineSet
80 29 m 0
 80 31.759765625 82.240234375 34 85 34 c 0
 87.759765625 34 90 31.759765625 90 29 c 0
 90 26.240234375 87.759765625 24 85 24 c 0
 82.240234375 24 80 26.240234375 80 29 c 0
EndSplineSet
EndChar
StartChar: slash
Encoding: 47 47 14
Width: 341
Flags: HW
LayerCount: 2
Fore
SplineSet
75 102 m 0
 72.240234375 102 70 104.240234375 70 107 c 0
 70 107.67578125 70.134765625 108.321289062 70.3779296875 108.909179688 c 2
 301.377929688 666.909179688 l 2
 302.12890625 668.72265625 303.916015625 670 306 670 c 0
 308.759765625 670 311 667.759765625 311 665 c 0
 311 664.32421875 310.865234375 663.678710938 310.622070312 663.090820312 c 2
 79.6220703125 105.090820312 l 2
 78.87109375 103.27734375 77.083984375 102 75 102 c 0
EndSplineSet
EndChar
StartChar: slash
Encoding: 47 47 14
Width: 341
Flags: HW
LayerCount: 2
Fore
SplineSet
85 102 m 0
 82.240234375 102 80 104.240234375 80 107 c 0
 80 107.67578125 80.134765625 108.321289062 80.3779296875 108.909179688 c 2
 311.377929688 666.909179688 l 2
 312.12890625 668.72265625 313.916015625 670 316 670 c 0
 318.759765625 670 321 667.759765625 321 665 c 0
 321 664.32421875 320.865234375 663.678710938 320.622070312 663.090820312 c 2
 89.6220703125 105.090820312 l 2
 88.87109375 103.27734375 87.083984375 102 85 102 c 0
EndSplineSet
EndChar
StartChar: zero
Encoding: 48 48 15
Width: 254
Flags: HW
LayerCount: 2
Fore
SplineSet
70 205 m 0
 70 279.611328125 84.1376953125 344.935546875 106.287109375 381.158203125 c 0
 117.286132812 399.147460938 130.961914062 411 147 411 c 0
 163.038085938 411 176.713867188 399.147460938 187.712890625 381.158203125 c 0
 209.862304688 344.935546875 224 279.611328125 224 205 c 0
 224 130.388671875 209.862304688 65.064453125 187.712890625 28.841796875 c 0
 176.713867188 10.8525390625 163.038085938 -1 147 -1 c 0
 130.961914062 -1 117.286132812 10.8525390625 106.287109375 28.841796875 c 0
 84.1376953125 65.064453125 70 130.388671875 70 205 c 0
80 205 m 0
 80 143.872070312 89.8623046875 89.2001953125 105.120117188 53.224609375 c 0
 117.528320312 23.9658203125 132.797851562 9 147 9 c 0
 161.202148438 9 176.471679688 23.9658203125 188.879882812 53.224609375 c 0
 204.137695312 89.2001953125 214 143.872070312 214 205 c 0
 214 266.127929688 204.137695312 320.799804688 188.879882812 356.775390625 c 0
 176.471679688 386.034179688 161.202148438 401 147 401 c 0
 132.797851562 401 117.528320312 386.034179688 105.120117188 356.775390625 c 0
 89.8623046875 320.799804688 80 266.127929688 80 205 c 0
EndSplineSet
EndChar
StartChar: zero
Encoding: 48 48 15
Width: 254
Flags: HW
LayerCount: 2
Fore
SplineSet
130 205 m 0
 130 279.611328125 144.137695312 344.935546875 166.287109375 381.158203125 c 0
 177.286132812 399.147460938 190.961914062 411 207 411 c 0
 223.038085938 411 236.713867188 399.147460938 247.712890625 381.158203125 c 0
 269.862304688 344.935546875 284 279.611328125 284 205 c 0
 284 130.388671875 269.862304688 65.064453125 247.712890625 28.841796875 c 0
 236.713867188 10.8525390625 223.038085938 -1 207 -1 c 0
 190.961914062 -1 177.286132812 10.8525390625 166.287109375 28.841796875 c 0
 144.137695312 65.064453125 130 130.388671875 130 205 c 0
140 205 m 0
 140 143.872070312 149.862304688 89.2001953125 165.120117188 53.224609375 c 0
 177.528320312 23.9658203125 192.797851562 9 207 9 c 0
 221.202148438 9 236.471679688 23.9658203125 248.879882812 53.224609375 c 0
 264.137695312 89.2001953125 274 143.872070312 274 205 c 0
 274 266.127929688 264.137695312 320.799804688 248.879882812 356.775390625 c 0
 236.471679688 386.034179688 221.202148438 401 207 401 c 0
 192.797851562 401 177.528320312 386.034179688 165.120117188 356.775390625 c 0
 149.862304688 320.799804688 140 266.127929688 140 205 c 0
EndSplineSet
EndChar
StartChar: one
Encoding: 49 49 16
Width: 269
Flags: HW
LayerCount: 2
Fore
SplineSet
92 344 m 0
 93.365234375 344 94.603515625 344.548828125 95.505859375 345.436523438 c 2
 150 399.065429688 l 1
 150 0 l 2
 150 -2.759765625 152.240234375 -5 155 -5 c 0
 157.759765625 -5 160 -2.759765625 160 0 c 2
 160 411 l 2
 160 413.759765625 157.759765625 416 155 416 c 0
 153.634765625 416 152.396484375 415.451171875 151.494140625 414.563476562 c 2
 88.494140625 352.563476562 l 2
 87.572265625 351.65625 87 350.39453125 87 349 c 0
 87 346.240234375 89.240234375 344 92 344 c 0
75 -5 m 2
 72.240234375 -5 70 -2.759765625 70 0 c 0
 70 2.759765625 72.240234375 5 75 5 c 2
 234 5 l 2
 236.759765625 5 239 2.759765625 239 0 c 0
 239 -2.759765625 236.759765625 -5 234 -5 c 2
 75 -5 l 2
EndSplineSet
EndChar
StartChar: one
Encoding: 49 49 16
Width: 269
Flags: HW
LayerCount: 2
Fore
SplineSet
152 344 m 0
 153.365234375 344 154.603515625 344.548828125 155.505859375 345.436523438 c 2
 210 399.065429688 l 1
 210 0 l 2
 210 -2.759765625 212.240234375 -5 215 -5 c 0
 217.759765625 -5 220 -2.759765625 220 0 c 2
 220 411 l 2
 220 413.759765625 217.759765625 416 215 416 c 0
 213.634765625 416 212.396484375 415.451171875 211.494140625 414.563476562 c 2
 148.494140625 352.563476562 l 2
 147.572265625 351.65625 147 350.39453125 147 349 c 0
 147 346.240234375 149.240234375 344 152 344 c 0
135 -5 m 2
 132.240234375 -5 130 -2.759765625 130 0 c 0
 130 2.759765625 132.240234375 5 135 5 c 2
 294 5 l 2
 296.759765625 5 299 2.759765625 299 0 c 0
 299 -2.759765625 296.759765625 -5 294 -5 c 2
 135 -5 l 2
EndSplineSet
EndChar
StartChar: two
Encoding: 50 50 17
Width: 365
Flags: HW
LayerCount: 2
Fore
SplineSet
345 0 m 0
 345 -2.759765625 342.759765625 -5 340 -5 c 2
 85 -5 l 2
 82.240234375 -5 80 -2.759765625 80 0 c 0
 80 1.4990234375 80.6611328125 2.8447265625 81.70703125 3.7607421875 c 0
 113.4296875 31.5634765625 142.858398438 52.53125 170.516601562 72.2412109375 c 0
 221.024414062 108.235351562 265.493164062 139.942382812 308.934570312 201.91015625 c 0
 327.500976562 227.790039062 335.466796875 252.940429688 335.466796875 279.548828125 c 0
 335.466796875 298.97265625 331.181640625 319.306640625 323.302734375 341.284179688 c 0
 309.247070312 379.703125 281.372070312 406.09765625 242.259765625 406.09765625 c 0
 197.810546875 406.09765625 172.372070312 387.080078125 142.163085938 364.8515625 c 0
 126.139648438 353.061523438 108.895507812 340.357421875 87.2314453125 329.525390625 c 0
 86.5595703125 329.189453125 85.8017578125 329 85 329 c 0
 82.240234375 329 80 331.240234375 80 334 c 0
 80 335.958007812 81.1279296875 337.654296875 82.7685546875 338.474609375 c 0
 103.53125 348.856445312 120.213867188 361.115234375 136.24609375 372.911132812 c 0
 166.333007812 395.05078125 194.569335938 416.09765625 242.259765625 416.09765625 c 0
 286.634765625 416.09765625 317.73046875 385.625 332.697265625 344.715820312 c 0
 340.841796875 321.998046875 345.466796875 300.48046875 345.466796875 279.548828125 c 0
 345.466796875 250.8046875 336.669921875 223.416992188 317.065429688 196.08984375 c 0
 272.6484375 132.731445312 226.755859375 100.041992188 176.310546875 64.091796875 c 0
 151.673828125 46.53515625 125.919921875 28.177734375 98.4765625 5 c 1
 340 5 l 2
 342.759765625 5 345 2.759765625 345 0 c 0
EndSplineSet
EndChar
StartChar: three
Encoding: 51 51 18
Width: 438
Flags: HW
LayerCount: 2
Fore
SplineSet
408.369140625 -78.728515625 m 0
 408.369140625 -95.8583984375 404.978515625 -113.51953125 397.64453125 -131.854492188 c 0
 376.155273438 -185.577148438 319.413085938 -195.021484375 263.647460938 -195.021484375 c 0
 213.96875 -195.021484375 179.563476562 -180.88671875 142.295898438 -165.583984375 c 0
 121.513671875 -157.05078125 99.7724609375 -148.129882812 73.650390625 -140.815429688 c 0
 71.5458984375 -140.2265625 70 -138.291992188 70 -136 c 0
 70 -133.240234375 72.240234375 -131 75 -131 c 0
 75.4677734375 -131 75.919921875 -131.064453125 76.349609375 -131.184570312 c 0
 103.114257812 -138.678710938 125.310546875 -147.797851562 146.087890625 -156.329101562 c 0
 183.434570312 -171.6640625 215.986328125 -185.021484375 263.647460938 -185.021484375 c 0
 319.213867188 -185.021484375 369.4765625 -175.344726562 388.35546875 -128.145507812 c 0
 395.265625 -110.872070312 398.369140625 -94.5087890625 398.369140625 -78.728515625 c 0
 398.369140625 -41.3740234375 380.880859375 -6.548828125 353.063476562 28.91796875 c 0
 313.134765625 79.1513671875 272.249023438 101.392578125 225.155273438 127.030273438 c 0
 200.290039062 140.56640625 173.764648438 155.001953125 145.151367188 174.891601562 c 0
 143.8515625 175.794921875 143 177.298828125 143 179 c 0
 143 180.315429688 143.508789062 181.512695312 144.33984375 182.405273438 c 2
 352.514648438 406 l 1
 76 406 l 2
 73.240234375 406 71 408.240234375 71 411 c 0
 71 413.759765625 73.240234375 416 76 416 c 2
 364 416 l 2
 366.759765625 416 369 413.759765625 369 411 c 0
 369 409.684570312 368.491210938 408.487304688 367.66015625 407.594726562 c 2
 155.609375 179.836914062 l 1
 232.48046875 127.594726562 298.91015625 113.115234375 360.936523438 35.08203125 c 0
 389.379882812 -1.18359375 408.369140625 -38.08984375 408.369140625 -78.728515625 c 0
EndSplineSet
EndChar
StartChar: three
Encoding: 51 51 18
Width: 438
Flags: HW
LayerCount: 2
Fore
SplineSet
418.369140625 -78.728515625 m 0
 418.369140625 -95.8583984375 414.978515625 -113.51953125 407.64453125 -131.854492188 c 0
 386.155273438 -185.577148438 329.413085938 -195.021484375 273.647460938 -195.021484375 c 0
 223.96875 -195.021484375 189.563476562 -180.88671875 152.295898438 -165.583984375 c 0
 131.513671875 -157.05078125 109.772460938 -148.129882812 83.650390625 -140.815429688 c 0
 81.5458984375 -140.2265625 80 -138.291992188 80 -136 c 0
 80 -133.240234375 82.240234375 -131 85 -131 c 0
 85.4677734375 -131 85.919921875 -131.064453125 86.349609375 -131.184570312 c 0
 113.114257812 -138.678710938 135.310546875 -147.797851562 156.087890625 -156.329101562 c 0
 193.434570312 -171.6640625 225.986328125 -185.021484375 273.647460938 -185.021484375 c 0
 329.213867188 -185.021484375 379.4765625 -175.344726562 398.35546875 -128.145507812 c 0
 405.265625 -110.872070312 408.369140625 -94.5087890625 408.369140625 -78.728515625 c 0
 408.369140625 -41.3740234375 390.880859375 -6.548828125 363.063476562 28.91796875 c 0
 323.134765625 79.1513671875 282.249023438 101.392578125 235.155273438 127.030273438 c 0
 210.290039062 140.56640625 183.764648438 155.001953125 155.151367188 174.891601562 c 0
 153.8515625 175.794921875 153 177.298828125 153 179 c 0
 153 180.315429688 153.508789062 181.512695312 154.33984375 182.405273438 c 2
 362.514648438 406 l 1
 86 406 l 2
 83.240234375 406 81 408.240234375 81 411 c 0
 81 413.759765625 83.240234375 416 86 416 c 2
 374 416 l 2
 376.759765625 416 379 413.759765625 379 411 c 0
 379 409.684570312 378.491210938 408.487304688 377.66015625 407.594726562 c 2
 165.609375 179.836914062 l 1
 242.48046875 127.594726562 308.91015625 113.115234375 370.936523438 35.08203125 c 0
 399.379882812 -1.18359375 418.369140625 -38.08984375 418.369140625 -78.728515625 c 0
EndSplineSet
EndChar
StartChar: four
Encoding: 52 52 19
Width: 430
Flags: HW
LayerCount: 2
Fore
SplineSet
291 416 m 0
 293.759765625 416 296 413.759765625 296 411 c 0
 296 410.162109375 295.793945312 409.373046875 295.428710938 408.678710938 c 2
 83.2763671875 5 l 1
 395 5 l 2
 397.759765625 5 400 2.759765625 400 0 c 0
 400 -2.759765625 397.759765625 -5 395 -5 c 2
 75 -5 l 2
 72.240234375 -5 70 -2.759765625 70 0 c 0
 70 0.837890625 70.2060546875 1.626953125 70.5712890625 2.3212890625 c 2
 286.571289062 413.321289062 l 2
 287.408203125 414.913085938 289.078125 416 291 416 c 0
296 -205 m 2
 296 -207.759765625 293.759765625 -210 291 -210 c 0
 288.240234375 -210 286 -207.759765625 286 -205 c 2
 286 411 l 2
 286 413.759765625 288.240234375 416 291 416 c 0
 293.759765625 416 296 413.759765625 296 411 c 2
 296 -205 l 2
334 -199 m 0
 334 -196.240234375 336.240234375 -194 339 -194 c 0
 341.759765625 -194 344 -196.240234375 344 -199 c 0
 344 -201.759765625 341.759765625 -204 339 -204 c 0
 336.240234375 -204 334 -201.759765625 334 -199 c 0
EndSplineSet
EndChar
StartChar: four
Encoding: 52 52 19
Width: 430
Flags: HW
LayerCount: 2
Fore
SplineSet
301 416 m 0
 303.759765625 416 306 413.759765625 306 411 c 0
 306 410.162109375 305.793945312 409.373046875 305.428710938 408.678710938 c 2
 93.2763671875 5 l 1
 405 5 l 2
 407.759765625 5 410 2.759765625 410 0 c 0
 410 -2.759765625 407.759765625 -5 405 -5 c 2
 85 -5 l 2
 82.240234375 -5 80 -2.759765625 80 0 c 0
 80 0.837890625 80.2060546875 1.626953125 80.5712890625 2.3212890625 c 2
 296.571289062 413.321289062 l 2
 297.408203125 414.913085938 299.078125 416 301 416 c 0
306 -205 m 2
 306 -207.759765625 303.759765625 -210 301 -210 c 0
 298.240234375 -210 296 -207.759765625 296 -205 c 2
 296 411 l 2
 296 413.759765625 298.240234375 416 301 416 c 0
 303.759765625 416 306 413.759765625 306 411 c 2
 306 -205 l 2
344 -199 m 0
 344 -196.240234375 346.240234375 -194 349 -194 c 0
 351.759765625 -194 354 -196.240234375 354 -199 c 0
 354 -201.759765625 351.759765625 -204 349 -204 c 0
 346.240234375 -204 344 -201.759765625 344 -199 c 0
EndSplineSet
EndChar
StartChar: five
Encoding: 53 53 20
Width: 470
Flags: HW
LayerCount: 2
Fore
SplineSet
435 416 m 2
 437.759765625 416 440 413.759765625 440 411 c 0
 440 408.240234375 437.759765625 406 435 406 c 2
 110.134765625 406 l 1
 115.861328125 190.309570312 l 1
 139.967773438 192.028320312 161.624023438 196.822265625 182.473632812 201.44921875 c 0
 205.465820312 206.552734375 227.5078125 211.484375 250.642578125 211.484375 c 0
 269.821289062 211.484375 289.646484375 208.040039062 311.012695312 198.578125 c 0
 372.317382812 171.5625 387.916015625 119.076171875 406.796875 57.416015625 c 0
 416.05078125 26.052734375 422.008789062 -0.9091796875 422.008789062 -27.86328125 c 0
 422.008789062 -53.634765625 416.500976562 -79.18359375 403.563476562 -108.043945312 c 0
 380.768554688 -158.815429688 342.87890625 -176.634765625 292.94140625 -197.608398438 c 0
 264.23046875 -209.731445312 239.897460938 -215.168945312 213.665039062 -215.168945312 c 0
 198.17578125 -215.168945312 182.041992188 -213.283203125 164.015625 -209.903320312 c 0
 136.853515625 -204.470703125 120.439453125 -191.321289062 103.28125 -177.583984375 c 0
 93.9775390625 -170.134765625 84.3759765625 -162.45703125 72.4326171875 -155.291015625 c 0
 70.9755859375 -154.416015625 70 -152.821289062 70 -151 c 0
 70 -148.240234375 72.240234375 -146 75 -146 c 0
 75.9384765625 -146 76.81640625 -146.258789062 77.5673828125 -146.708984375 c 0
 90.1884765625 -154.282226562 100.225585938 -162.328125 109.524414062 -169.7734375 c 0
 126.7734375 -183.583984375 141.220703125 -195.14453125 165.984375 -200.096679688 c 0
 183.618164062 -203.403320312 199.004882812 -205.168945312 213.665039062 -205.168945312 c 0
 238.447265625 -205.168945312 261.201171875 -200.153320312 289.05859375 -188.391601562 c 0
 339.12109375 -167.365234375 373.231445312 -151.184570312 394.436523438 -103.956054688 c 0
 406.911132812 -76.1279296875 412.008789062 -52.154296875 412.008789062 -27.86328125 c 0
 412.008789062 -2.349609375 406.3203125 24.857421875 396.862304688 55.6962890625 c 0
 377.940429688 117.450195312 363.336914062 164.58984375 306.987304688 189.421875 c 0
 286.895507812 198.3203125 268.59375 201.484375 250.642578125 201.484375 c 0
 228.974609375 201.484375 207.6640625 196.794921875 184.646484375 191.686523438 c 0
 162.336914062 186.735351562 138.452148438 181.418945312 111.262695312 180.006835938 c 0
 111.17578125 180.001953125 111.087890625 180 111 180 c 0
 108.28515625 180 106.073242188 182.16796875 106.001953125 184.865234375 c 2
 99.998046875 411 l 2
 99.998046875 413.759765625 102.240234375 416 105 416 c 2
 435 416 l 2
EndSplineSet
EndChar
StartChar: five
Encoding: 53 53 20
Width: 470
Flags: HW
LayerCount: 2
Fore
SplineSet
445 416 m 2
 447.759765625 416 450 413.759765625 450 411 c 0
 450 408.240234375 447.759765625 406 445 406 c 2
 120.134765625 406 l 1
 125.861328125 190.309570312 l 1
 149.967773438 192.028320312 171.624023438 196.822265625 192.473632812 201.44921875 c 0
 215.465820312 206.552734375 237.5078125 211.484375 260.642578125 211.484375 c 0
 279.821289062 211.484375 299.646484375 208.040039062 321.012695312 198.578125 c 0
 382.317382812 171.5625 397.916015625 119.076171875 416.796875 57.416015625 c 0
 426.05078125 26.052734375 432.008789062 -0.9091796875 432.008789062 -27.86328125 c 0
 432.008789062 -53.634765625 426.500976562 -79.18359375 413.563476562 -108.043945312 c 0
 390.768554688 -158.815429688 352.87890625 -176.634765625 302.94140625 -197.608398438 c 0
 274.23046875 -209.731445312 249.897460938 -215.168945312 223.665039062 -215.168945312 c 0
 208.17578125 -215.168945312 192.041992188 -213.283203125 174.015625 -209.903320312 c 0
 146.853515625 -204.470703125 130.439453125 -191.321289062 113.28125 -177.583984375 c 0
 103.977539062 -170.134765625 94.3759765625 -162.45703125 82.4326171875 -155.291015625 c 0
 80.9755859375 -154.416015625 80 -152.821289062 80 -151 c 0
 80 -148.240234375 82.240234375 -146 85 -146 c 0
 85.9384765625 -146 86.81640625 -146.258789062 87.5673828125 -146.708984375 c 0
 100.188476562 -154.282226562 110.225585938 -162.328125 119.524414062 -169.7734375 c 0
 136.7734375 -183.583984375 151.220703125 -195.14453125 175.984375 -200.096679688 c 0
 193.618164062 -203.403320312 209.004882812 -205.168945312 223.665039062 -205.168945312 c 0
 248.447265625 -205.168945312 271.201171875 -200.153320312 299.05859375 -188.391601562 c 0
 349.12109375 -167.365234375 383.231445312 -151.184570312 404.436523438 -103.956054688 c 0
 416.911132812 -76.1279296875 422.008789062 -52.154296875 422.008789062 -27.86328125 c 0
 422.008789062 -2.349609375 416.3203125 24.857421875 406.862304688 55.6962890625 c 0
 387.940429688 117.450195312 373.336914062 164.58984375 316.987304688 189.421875 c 0
 296.895507812 198.3203125 278.59375 201.484375 260.642578125 201.484375 c 0
 238.974609375 201.484375 217.6640625 196.794921875 194.646484375 191.686523438 c 0
 172.336914062 186.735351562 148.452148438 181.418945312 121.262695312 180.006835938 c 0
 121.17578125 180.001953125 121.087890625 180 121 180 c 0
 118.28515625 180 116.073242188 182.16796875 116.001953125 184.865234375 c 2
 109.998046875 411 l 2
 109.998046875 413.759765625 112.240234375 416 115 416 c 2
 445 416 l 2
EndSplineSet
EndChar
StartChar: six
Encoding: 54 54 21
Width: 285
Flags: HW
LayerCount: 2
Fore
SplineSet
143.720703125 330 m 0
 143.720703125 332.759765625 145.9609375 335 148.720703125 335 c 0
 149.1640625 335 149.594726562 334.942382812 150.00390625 334.833007812 c 0
 171.125976562 329.228515625 194.342773438 321.411132812 210.276367188 295.983398438 c 0
 222.939453125 275.774414062 230.720703125 245.206054688 230.720703125 197 c 0
 230.720703125 120.366210938 215.682617188 53.033203125 192.64453125 15.7119140625 c 0
 181.205078125 -2.8193359375 167.100585938 -15 150.720703125 -15 c 0
 128.791015625 -15 112.434570312 6.439453125 100.215820312 37.0068359375 c 0
 84.669921875 75.8974609375 74.61328125 133.124023438 70.7294921875 196.69140625 c 0
 70.23828125 204.743164062 70 212.74609375 70 220.700195312 c 0
 70 343.717773438 126.758789062 454.619140625 180.330078125 559.634765625 c 0
 204.676757812 607.362304688 228.409179688 653.909179688 246.051757812 699.791992188 c 0
 246.772460938 701.66796875 248.591796875 703 250.720703125 703 c 0
 253.48046875 703 255.720703125 700.759765625 255.720703125 698 c 0
 255.720703125 697.368164062 255.603515625 696.764648438 255.389648438 696.208007812 c 0
 200.041015625 552.262695312 80 395.852539062 80 220.700195312 c 0
 80 212.94921875 80.2314453125 205.153320312 80.7109375 197.30859375 c 0
 84.5517578125 134.4453125 94.6240234375 77.9423828125 109.505859375 40.712890625 c 0
 121.62890625 10.3857421875 136.205078125 -5 150.720703125 -5 c 0
 165.365234375 -5 181.287109375 10.576171875 194.2734375 40.7626953125 c 0
 210.247070312 77.89453125 220.720703125 134.223632812 220.720703125 197 c 0
 220.720703125 244.197265625 212.9921875 272.81640625 201.795898438 290.68359375 c 0
 187.905273438 312.8515625 168.251953125 319.643554688 147.436523438 325.166992188 c 0
 145.297851562 325.734375 143.720703125 327.684570312 143.720703125 330 c 0
EndSplineSet
EndChar
StartChar: six
Encoding: 54 54 21
Width: 285
Flags: HW
LayerCount: 2
Fore
SplineSet
153.720703125 330 m 0
 153.720703125 332.759765625 155.9609375 335 158.720703125 335 c 0
 159.1640625 335 159.594726562 334.942382812 160.00390625 334.833007812 c 0
 181.125976562 329.228515625 204.342773438 321.411132812 220.276367188 295.983398438 c 0
 232.939453125 275.774414062 240.720703125 245.206054688 240.720703125 197 c 0
 240.720703125 120.366210938 225.682617188 53.033203125 202.64453125 15.7119140625 c 0
 191.205078125 -2.8193359375 177.100585938 -15 160.720703125 -15 c 0
 138.791015625 -15 122.434570312 6.439453125 110.215820312 37.0068359375 c 0
 94.669921875 75.8974609375 84.61328125 133.124023438 80.7294921875 196.69140625 c 0
 80.23828125 204.743164062 80 212.74609375 80 220.700195312 c 0
 80 343.717773438 136.758789062 454.619140625 190.330078125 559.634765625 c 0
 214.676757812 607.362304688 238.409179688 653.909179688 256.051757812 699.791992188 c 0
 256.772460938 701.66796875 258.591796875 703 260.720703125 703 c 0
 263.48046875 703 265.720703125 700.759765625 265.720703125 698 c 0
 265.720703125 697.368164062 265.603515625 696.764648438 265.389648438 696.208007812 c 0
 210.041015625 552.262695312 90 395.852539062 90 220.700195312 c 0
 90 212.94921875 90.2314453125 205.153320312 90.7109375 197.30859375 c 0
 94.5517578125 134.4453125 104.624023438 77.9423828125 119.505859375 40.712890625 c 0
 131.62890625 10.3857421875 146.205078125 -5 160.720703125 -5 c 0
 175.365234375 -5 191.287109375 10.576171875 204.2734375 40.7626953125 c 0
 220.247070312 77.89453125 230.720703125 134.223632812 230.720703125 197 c 0
 230.720703125 244.197265625 222.9921875 272.81640625 211.795898438 290.68359375 c 0
 197.905273438 312.8515625 178.251953125 319.643554688 157.436523438 325.166992188 c 0
 155.297851562 325.734375 153.720703125 327.684570312 153.720703125 330 c 0
EndSplineSet
EndChar
StartChar: seven
Encoding: 55 55 22
Width: 294
Flags: HW
LayerCount: 2
Fore
SplineSet
75 406 m 2
 72.240234375 406 70 408.240234375 70 411 c 0
 70 413.759765625 72.240234375 416 75 416 c 2
 259 416 l 2
 261.759765625 416 264 413.759765625 264 411 c 0
 264 410.497070312 263.92578125 410.01171875 263.787109375 409.553710938 c 2
 79.787109375 -199.446289062 l 2
 79.166015625 -201.501953125 77.2568359375 -203 75 -203 c 0
 72.240234375 -203 70 -200.759765625 70 -198 c 0
 70 -197.497070312 70.07421875 -197.01171875 70.212890625 -196.553710938 c 2
 252.264648438 406 l 1
 75 406 l 2
EndSplineSet
EndChar
StartChar: seven
Encoding: 55 55 22
Width: 294
Flags: HW
LayerCount: 2
Fore
SplineSet
135 406 m 2
 132.240234375 406 130 408.240234375 130 411 c 0
 130 413.759765625 132.240234375 416 135 416 c 2
 319 416 l 2
 321.759765625 416 324 413.759765625 324 411 c 0
 324 410.497070312 323.92578125 410.01171875 323.787109375 409.553710938 c 2
 139.787109375 -199.446289062 l 2
 139.166015625 -201.501953125 137.256835938 -203 135 -203 c 0
 132.240234375 -203 130 -200.759765625 130 -198 c 0
 130 -197.497070312 130.07421875 -197.01171875 130.212890625 -196.553710938 c 2
 312.264648438 406 l 1
 135 406 l 2
EndSplineSet
EndChar
StartChar: eight
Encoding: 56 56 23
Width: 226
Flags: HW
LayerCount: 2
Fore
SplineSet
130 582 m 0
 130 522.094726562 138.028320312 468.412109375 150.930664062 432.004882812 c 0
 160.975585938 403.66015625 174.594726562 383 193 383 c 0
 211.405273438 383 225.024414062 403.66015625 235.069335938 432.004882812 c 0
 247.971679688 468.412109375 256 522.094726562 256 582 c 0
 256 641.905273438 247.971679688 695.587890625 235.069335938 731.995117188 c 0
 225.024414062 760.33984375 211.405273438 781 193 781 c 0
 174.594726562 781 160.975585938 760.33984375 150.930664062 731.995117188 c 0
 138.028320312 695.587890625 130 641.905273438 130 582 c 0
140 582 m 0
 140 640.983398438 148.021484375 693.84375 160.359375 728.658203125 c 0
 170.505859375 757.290039062 182.9609375 771 193 771 c 0
 203.0390625 771 215.494140625 757.290039062 225.640625 728.658203125 c 0
 237.978515625 693.84375 246 640.983398438 246 582 c 0
 246 523.016601562 237.978515625 470.15625 225.640625 435.341796875 c 0
 215.494140625 406.709960938 203.0390625 393 193 393 c 0
 182.9609375 393 170.505859375 406.709960938 160.359375 435.341796875 c 0
 148.021484375 470.15625 140 523.016601562 140 582 c 0
130 194 m 0
 130 253.905273438 138.028320312 307.587890625 150.930664062 343.995117188 c 0
 160.975585938 372.33984375 174.594726562 393 193 393 c 0
 211.405273438 393 225.024414062 372.33984375 235.069335938 343.995117188 c 0
 247.971679688 307.587890625 256 253.905273438 256 194 c 0
 256 134.094726562 247.971679688 80.412109375 235.069335938 44.0048828125 c 0
 225.024414062 15.66015625 211.405273438 -5 193 -5 c 0
 174.594726562 -5 160.975585938 15.66015625 150.930664062 44.0048828125 c 0
 138.028320312 80.412109375 130 134.094726562 130 194 c 0
140 194 m 0
 140 135.016601562 148.021484375 82.15625 160.359375 47.341796875 c 0
 170.505859375 18.7099609375 182.9609375 5 193 5 c 0
 203.0390625 5 215.494140625 18.7099609375 225.640625 47.341796875 c 0
 237.978515625 82.15625 246 135.016601562 246 194 c 0
 246 252.983398438 237.978515625 305.84375 225.640625 340.658203125 c 0
 215.494140625 369.290039062 203.0390625 383 193 383 c 0
 182.9609375 383 170.505859375 369.290039062 160.359375 340.658203125 c 0
 148.021484375 305.84375 140 252.983398438 140 194 c 0
EndSplineSet
EndChar
StartChar: nine
Encoding: 57 57 24
Width: 267
Flags: HW
LayerCount: 2
Fore
SplineSet
211 108 m 0
 211 105.240234375 208.759765625 103 206 103 c 0
 205.556640625 103 205.125976562 103.057617188 204.715820312 103.166992188 c 0
 197.234375 105.15234375 186.389648438 105.61328125 174.211914062 106.046875 c 0
 155.188476562 106.723632812 132.787109375 107.391601562 113.313476562 115.897460938 c 0
 88.51171875 126.73046875 70 150.342773438 70 198.151367188 c 0
 70 274.78515625 85.0380859375 342.118164062 108.075195312 379.439453125 c 0
 119.514648438 397.970703125 133.620117188 410.151367188 150 410.151367188 c 0
 171.979492188 410.151367188 189.016601562 387.911132812 202.232421875 356.506835938 c 0
 219.055664062 316.53125 230.842773438 258.060546875 235.983398438 194.559570312 c 0
 236.854492188 183.793945312 237.270507812 173.314453125 237.270507812 163.095703125 c 0
 237.270507812 62.14453125 196.72265625 -12.83984375 156.827148438 -86.7734375 c 0
 136.627929688 -124.205078125 116.5625 -161.420898438 101.692382812 -201.728515625 c 0
 100.98828125 -203.637695312 99.15234375 -205 97 -205 c 0
 94.240234375 -205 92 -202.759765625 92 -200 c 0
 92 -199.392578125 92.1083984375 -198.810546875 92.3076171875 -198.271484375 c 0
 107.494140625 -157.104492188 127.82421875 -119.4609375 148.020507812 -82.0341796875 c 0
 187.970703125 -7.9990234375 227.270507812 64.9853515625 227.270507812 163.095703125 c 0
 227.270507812 173.038085938 226.866210938 183.245117188 226.016601562 193.743164062 c 0
 220.936523438 256.495117188 209.16796875 314.243164062 193.010742188 352.634765625 c 0
 179.84375 383.923828125 164.46484375 400.151367188 150 400.151367188 c 0
 135.354492188 400.151367188 119.43359375 384.575195312 106.447265625 354.388671875 c 0
 90.4736328125 317.256835938 80 260.927734375 80 198.151367188 c 0
 80 153.100585938 96.3916015625 134.202148438 117.30859375 125.06640625 c 0
 134.41015625 117.596679688 155.5078125 116.71875 174.572265625 116.040039062 c 0
 186.754882812 115.607421875 198.057617188 115.28125 207.284179688 112.833007812 c 0
 209.421875 112.265625 211 110.315429688 211 108 c 0
EndSplineSet
EndChar
StartChar: colon
Encoding: 58 58 25
Width: 110
Flags: HW
LayerCount: 2
Fore
SplineSet
70 439 m 0
 70 441.759765625 72.240234375 444 75 444 c 0
 77.759765625 444 80 441.759765625 80 439 c 0
 80 436.240234375 77.759765625 434 75 434 c 0
 72.240234375 434 70 436.240234375 70 439 c 0
70 29 m 0
 70 31.759765625 72.240234375 34 75 34 c 0
 77.759765625 34 80 31.759765625 80 29 c 0
 80 26.240234375 77.759765625 24 75 24 c 0
 72.240234375 24 70 26.240234375 70 29 c 0
EndSplineSet
EndChar
StartChar: colon
Encoding: 58 58 25
Width: 110
Flags: HW
LayerCount: 2
Fore
SplineSet
80 439 m 0
 80 441.759765625 82.240234375 444 85 444 c 0
 87.759765625 444 90 441.759765625 90 439 c 0
 90 436.240234375 87.759765625 434 85 434 c 0
 82.240234375 434 80 436.240234375 80 439 c 0
80 29 m 0
 80 31.759765625 82.240234375 34 85 34 c 0
 87.759765625 34 90 31.759765625 90 29 c 0
 90 26.240234375 87.759765625 24 85 24 c 0
 82.240234375 24 80 26.240234375 80 29 c 0
EndSplineSet
EndChar
StartChar: semicolon
Encoding: 59 59 26
Width: 146
Flags: HW
LayerCount: 2
Fore
SplineSet
166 -7 m 0
 166 6.46484375 157 23.486328125 157 26 c 0
 157 28.759765625 159.240234375 31 162 31 c 0
 164.030273438 31 165.779296875 29.787109375 166.5625 28.0478515625 c 0
 166.647460938 27.859375 176 7.853515625 176 -7 c 0
 176 -20.53125 168.09765625 -33.8232421875 159.966796875 -44.4951171875 c 0
 149.723632812 -57.939453125 138.41015625 -67.6611328125 138.259765625 -67.7900390625 c 0
 137.384765625 -68.5439453125 136.245117188 -69 135 -69 c 0
 132.240234375 -69 130 -66.759765625 130 -64 c 0
 130 -62.4853515625 130.674804688 -61.126953125 131.740234375 -60.2099609375 c 0
 131.89453125 -60.0771484375 166 -29.4111328125 166 -7 c 0
131.5 388 m 0
 131.5 390.759765625 133.740234375 393 136.5 393 c 0
 139.259765625 393 141.5 390.759765625 141.5 388 c 0
 141.5 385.240234375 139.259765625 383 136.5 383 c 0
 133.740234375 383 131.5 385.240234375 131.5 388 c 0
EndSplineSet
EndChar
StartChar: less
Encoding: 60 60 55
Width: 344
Flags: HW
LayerCount: 2
Fore
SplineSet
309 640 m 0
 311.759765625 640 314 637.759765625 314 635 c 0
 314 633.581054688 313.407226562 632.298828125 312.456054688 631.388671875 c 2
 82.0439453125 410.823242188 l 1
 300.634765625 179.431640625 l 2
 301.48046875 178.536132812 302 177.328125 302 176 c 0
 302 173.240234375 299.759765625 171 297 171 c 0
 295.568359375 171 294.27734375 171.602539062 293.365234375 172.568359375 c 2
 71.365234375 407.568359375 l 2
 70.51953125 408.463867188 70 409.671875 70 411 c 0
 70 412.418945312 70.5927734375 413.701171875 71.5439453125 414.611328125 c 2
 305.543945312 638.611328125 l 2
 306.442382812 639.471679688 307.66015625 640 309 640 c 0
EndSplineSet
EndChar
StartChar: less
Encoding: 60 60 55
Width: 344
Flags: HW
LayerCount: 2
Fore
SplineSet
319 640 m 0
 321.759765625 640 324 637.759765625 324 635 c 0
 324 633.581054688 323.407226562 632.298828125 322.456054688 631.388671875 c 2
 92.0439453125 410.823242188 l 1
 310.634765625 179.431640625 l 2
 311.48046875 178.536132812 312 177.328125 312 176 c 0
 312 173.240234375 309.759765625 171 307 171 c 0
 305.568359375 171 304.27734375 171.602539062 303.365234375 172.568359375 c 2
 81.365234375 407.568359375 l 2
 80.51953125 408.463867188 80 409.671875 80 411 c 0
 80 412.418945312 80.5927734375 413.701171875 81.5439453125 414.611328125 c 2
 315.543945312 638.611328125 l 2
 316.442382812 639.471679688 317.66015625 640 319 640 c 0
EndSplineSet
EndChar
StartChar: equal
Encoding: 61 61 56
Width: 458
Flags: HW
LayerCount: 2
Fore
SplineSet
75 367 m 2
 72.240234375 367 70 369.240234375 70 372 c 0
 70 374.759765625 72.240234375 377 75 377 c 2
 423 377 l 2
 425.759765625 377 428 374.759765625 428 372 c 0
 428 369.240234375 425.759765625 367 423 367 c 2
 75 367 l 2
75 467 m 2
 72.240234375 467 70 469.240234375 70 472 c 0
 70 474.759765625 72.240234375 477 75 477 c 2
 423 477 l 2
 425.759765625 477 428 474.759765625 428 472 c 0
 428 469.240234375 425.759765625 467 423 467 c 2
 75 467 l 2
EndSplineSet
EndChar
StartChar: greater
Encoding: 62 62 57
Width: 344
Flags: HW
LayerCount: 2
Fore
SplineSet
70 635 m 0
 70 637.759765625 72.240234375 640 75 640 c 0
 76.33984375 640 77.5576171875 639.471679688 78.4560546875 638.611328125 c 2
 312.456054688 414.611328125 l 2
 313.407226562 413.701171875 314 412.418945312 314 411 c 0
 314 409.671875 313.48046875 408.463867188 312.634765625 407.568359375 c 2
 90.634765625 172.568359375 l 2
 89.72265625 171.602539062 88.431640625 171 87 171 c 0
 84.240234375 171 82 173.240234375 82 176 c 0
 82 177.328125 82.51953125 178.536132812 83.365234375 179.431640625 c 2
 301.956054688 410.823242188 l 1
 71.5439453125 631.388671875 l 2
 70.5927734375 632.298828125 70 633.581054688 70 635 c 0
EndSplineSet
EndChar
StartChar: question
Encoding: 63 63 58
Width: 316
VWidth: 1000
Flags: HW
LayerCount: 2
Fore
SplineSet
154 395 m 1
 154 212 l 2
 154 209.240234375 151.759765625 207 149 207 c 0
 146.240234375 207 144 209.240234375 144 212 c 2
 144 400 l 2
 144 402.759765625 146.240234375 405 149 405 c 2
 240.299804688 405 l 1
 265.514648438 443.79296875 276.01953125 477.594726562 276.01953125 507.66796875 c 0
 276.01953125 542.20703125 262.202148438 572.469726562 239.415039062 600.485351562 c 1
 213.51953125 622.393554688 187.458984375 632.999023438 161.000976562 632.999023438 c 0
 135.009765625 632.999023438 108.041015625 622.728515625 80 601.529296875 c 1
 80 570 l 2
 80 567.240234375 77.759765625 565 75 565 c 0
 72.240234375 565 70 567.240234375 70 570 c 2
 70 604 l 2
 70 605.610351562 70.7626953125 607.043945312 71.9462890625 607.958984375 c 0
 101.875 631.083984375 131.59375 642.999023438 161.000976562 642.999023438 c 0
 190.423828125 642.999023438 218.9140625 631.034179688 246.235351562 607.810546875 c 0
 246.467773438 607.61328125 246.681640625 607.395507812 246.874023438 607.159179688 c 0
 270.8046875 577.85546875 286.01953125 545.20703125 286.01953125 507.66796875 c 0
 286.01953125 474.545898438 274.205078125 438.119140625 247.173828125 397.247070312 c 0
 246.278320312 395.893554688 244.743164062 395 243 395 c 2
 154 395 l 1
148 152 m 2
 148 154.759765625 150.240234375 157 153 157 c 0
 155.759765625 157 158 154.759765625 158 152 c 2
 158 108 l 2
 158 105.240234375 155.759765625 103 153 103 c 0
 150.240234375 103 148 105.240234375 148 108 c 2
 148 152 l 2
EndSplineSet
EndChar
StartChar: question
Encoding: 63 63 58
Width: 316
VWidth: 1000
Flags: HW
LayerCount: 2
Fore
SplineSet
164 395 m 1
 164 212 l 2
 164 209.240234375 161.759765625 207 159 207 c 0
 156.240234375 207 154 209.240234375 154 212 c 2
 154 400 l 2
 154 402.759765625 156.240234375 405 159 405 c 2
 250.299804688 405 l 1
 275.514648438 443.79296875 286.01953125 477.594726562 286.01953125 507.66796875 c 0
 286.01953125 542.20703125 272.202148438 572.469726562 249.415039062 600.485351562 c 1
 223.51953125 622.393554688 197.458984375 632.999023438 171.000976562 632.999023438 c 0
 145.009765625 632.999023438 118.041015625 622.728515625 90 601.529296875 c 1
 90 570 l 2
 90 567.240234375 87.759765625 565 85 565 c 0
 82.240234375 565 80 567.240234375 80 570 c 2
 80 604 l 2
 80 605.610351562 80.7626953125 607.043945312 81.9462890625 607.958984375 c 0
 111.875 631.083984375 141.59375 642.999023438 171.000976562 642.999023438 c 0
 200.423828125 642.999023438 228.9140625 631.034179688 256.235351562 607.810546875 c 0
 256.467773438 607.61328125 256.681640625 607.395507812 256.874023438 607.159179688 c 0
 280.8046875 577.85546875 296.01953125 545.20703125 296.01953125 507.66796875 c 0
 296.01953125 474.545898438 284.205078125 438.119140625 257.173828125 397.247070312 c 0
 256.278320312 395.893554688 254.743164062 395 253 395 c 2
 164 395 l 1
158 152 m 2
 158 154.759765625 160.240234375 157 163 157 c 0
 165.759765625 157 168 154.759765625 168 152 c 2
 168 108 l 2
 168 105.240234375 165.759765625 103 163 103 c 0
 160.240234375 103 158 105.240234375 158 108 c 2
 158 152 l 2
EndSplineSet
EndChar
StartChar: at
Encoding: 64 64 59
Width: 728
Flags: HW
LayerCount: 2
Fore
SplineSet
190 176 m 0
 190 182.094726562 189.962890625 188.276367188 189.962890625 194.532226562 c 0
 189.962890625 256.822265625 192.7421875 355 276 355 c 0
 307.049804688 355 331.66015625 339.721679688 354.369140625 325.798828125 c 0
 375.665039062 312.741210938 395.23046875 301 417 301 c 0
 419.759765625 301 422 298.759765625 422 296 c 0
 422 293.240234375 419.759765625 291 417 291 c 0
 391.578125 291 370.2421875 304.336914062 349.15234375 317.266601562 c 0
 326.288085938 331.28515625 303.612304688 345 276 345 c 0
 204.349609375 345 199.962890625 259.912109375 199.962890625 194.532226562 c 0
 199.962890625 188.282226562 200 182.108398438 200 176 c 0
 200 56.734375 306.4140625 7 408 7 c 0
 456.87109375 7 475 59.7734375 475 110 c 0
 475 129.943359375 476.35546875 142.041015625 480.313476562 149.2265625 c 0
 482.354492188 152.931640625 485.841796875 155.830078125 490.267578125 155.830078125 c 0
 496.838867188 155.830078125 502.0625 150.775390625 507.321289062 145.018554688 c 0
 514.192382812 137.497070312 521.864257812 126.758789062 530.340820312 114.940429688 c 0
 554.2109375 81.66015625 583.384765625 43 609 43 c 0
 678.111328125 43 688 107.239257812 688 185 c 0
 688 326.124023438 555.677734375 450 411 450 c 0
 206.798828125 450 80 371.9453125 80 179 c 0
 80 10.25 191.243164062 -164.000976562 357.08984375 -164.000976562 c 1
 357.08984375 -164.000976562 527.068359375 -167 636 -167 c 0
 659.640625 -167 679 -149.899414062 679 -127 c 0
 679 -120.892578125 682.630859375 -117.048828125 684.783203125 -114.657226562 c 0
 687.130859375 -112.048828125 688 -110.892578125 688 -109 c 0
 688 -106.240234375 690.240234375 -104 693 -104 c 0
 695.759765625 -104 698 -106.240234375 698 -109 c 0
 698 -115.107421875 694.369140625 -118.951171875 692.216796875 -121.342773438 c 0
 689.869140625 -123.951171875 689 -125.107421875 689 -127 c 0
 689 -156.100585938 664.359375 -177 636 -177 c 0
 526.920898438 -177 356.92578125 -173.999023438 356.91015625 -173.999023438 c 0
 183.162109375 -173.999023438 70 7.1083984375 70 179 c 0
 70 378.768554688 204.173828125 460 411 460 c 0
 560.924804688 460 698 332.25 698 185 c 0
 698 108.8828125 688.36328125 33 609 33 c 0
 593.725585938 33 579.55078125 42.23046875 566.584960938 54.4921875 c 0
 550.267578125 69.92578125 535.223632812 90.9765625 522.208984375 109.12109375 c 0
 513.748046875 120.91796875 506.122070312 131.506835938 499.9375 138.27734375 c 0
 494.751953125 143.954101562 490.96484375 145.830078125 490.267578125 145.830078125 c 2
 490.267578125 145.830078125 485 141.723632812 485 110 c 0
 485 59.4716796875 466.53515625 -3 408 -3 c 0
 304.165039062 -3 190 48.7353515625 190 176 c 0
EndSplineSet
EndChar
StartChar: at
Encoding: 64 64 59
Width: 728
Flags: HW
LayerCount: 2
Fore
SplineSet
250 176 m 0
 250 182.094726562 249.962890625 188.276367188 249.962890625 194.532226562 c 0
 249.962890625 256.822265625 252.7421875 355 336 355 c 0
 367.049804688 355 391.66015625 339.721679688 414.369140625 325.798828125 c 0
 435.665039062 312.741210938 455.23046875 301 477 301 c 0
 479.759765625 301 482 298.759765625 482 296 c 0
 482 293.240234375 479.759765625 291 477 291 c 0
 451.578125 291 430.2421875 304.336914062 409.15234375 317.266601562 c 0
 386.288085938 331.28515625 363.612304688 345 336 345 c 0
 264.349609375 345 259.962890625 259.912109375 259.962890625 194.532226562 c 0
 259.962890625 188.282226562 260 182.108398438 260 176 c 0
 260 56.734375 366.4140625 7 468 7 c 0
 516.87109375 7 535 59.7734375 535 110 c 0
 535 129.943359375 536.35546875 142.041015625 540.313476562 149.2265625 c 0
 542.354492188 152.931640625 545.841796875 155.830078125 550.267578125 155.830078125 c 0
 556.838867188 155.830078125 562.0625 150.775390625 567.321289062 145.018554688 c 0
 574.192382812 137.497070312 581.864257812 126.758789062 590.340820312 114.940429688 c 0
 614.2109375 81.66015625 643.384765625 43 669 43 c 0
 738.111328125 43 748 107.239257812 748 185 c 0
 748 326.124023438 615.677734375 450 471 450 c 0
 266.798828125 450 140 371.9453125 140 179 c 0
 140 10.25 251.243164062 -164.000976562 417.08984375 -164.000976562 c 1
 417.08984375 -164.000976562 587.068359375 -167 696 -167 c 0
 719.640625 -167 739 -149.899414062 739 -127 c 0
 739 -120.892578125 742.630859375 -117.048828125 744.783203125 -114.657226562 c 0
 747.130859375 -112.048828125 748 -110.892578125 748 -109 c 0
 748 -106.240234375 750.240234375 -104 753 -104 c 0
 755.759765625 -104 758 -106.240234375 758 -109 c 0
 758 -115.107421875 754.369140625 -118.951171875 752.216796875 -121.342773438 c 0
 749.869140625 -123.951171875 749 -125.107421875 749 -127 c 0
 749 -156.100585938 724.359375 -177 696 -177 c 0
 586.920898438 -177 416.92578125 -173.999023438 416.91015625 -173.999023438 c 0
 243.162109375 -173.999023438 130 7.1083984375 130 179 c 0
 130 378.768554688 264.173828125 460 471 460 c 0
 620.924804688 460 758 332.25 758 185 c 0
 758 108.8828125 748.36328125 33 669 33 c 0
 653.725585938 33 639.55078125 42.23046875 626.584960938 54.4921875 c 0
 610.267578125 69.92578125 595.223632812 90.9765625 582.208984375 109.12109375 c 0
 573.748046875 120.91796875 566.122070312 131.506835938 559.9375 138.27734375 c 0
 554.751953125 143.954101562 550.96484375 145.830078125 550.267578125 145.830078125 c 2
 550.267578125 145.830078125 545 141.723632812 545 110 c 0
 545 59.4716796875 526.53515625 -3 468 -3 c 0
 364.165039062 -3 250 48.7353515625 250 176 c 0
EndSplineSet
EndChar
StartChar: A
Encoding: 65 65 27
Width: 466
Flags: HW
LayerCount: 2
Fore
SplineSet
321 793 m 0
 328.020507812 793 329.37890625 784.978515625 329.37890625 779.173828125 c 0
 329.37890625 776.5546875 329.169921875 774.23828125 329.045898438 773.096679688 c 0
 341.485351562 688.762695312 359.602539062 607.423828125 370.95703125 524.685546875 c 2
 391.953125 371.684570312 l 2
 391.974609375 371.530273438 391.98828125 371.374023438 391.995117188 371.215820312 c 2
 397.990234375 230.329101562 l 1
 401.693359375 188.094726562 401.809570312 146.362304688 406.912109375 105.021484375 c 0
 413.571289062 82.3173828125 419.71875 59.9970703125 424.825195312 36.3466796875 c 0
 433.467773438 11.2119140625 436.8125 -1.5341796875 436.8125 -7.814453125 c 0
 436.8125 -7.8603515625 436.818359375 -7.990234375 436.818359375 -8.185546875 c 0
 436.818359375 -9.6640625 436.5 -14.857421875 431.024414062 -14.857421875 c 0
 428.102539062 -14.857421875 426.880859375 -13.26171875 426.19921875 -12.5556640625 c 0
 425.135742188 -11.4560546875 424.290039062 -10.21875 423.360351562 -8.69921875 c 0
 421.291015625 -5.314453125 418.952148438 -0.4912109375 416.517578125 5.427734375 c 0
 411.129882812 18.53125 405.37109375 36.8828125 403.129882812 54.640625 c 1
 386.159179688 92.759765625 386.967773438 133.405273438 376.255859375 174.376953125 c 1
 356.44140625 220.88671875 348.299804688 273.357421875 322.752929688 314.361328125 c 0
 322.657226562 314.514648438 322.5703125 314.673828125 322.491210938 314.837890625 c 0
 296.325195312 369.2421875 238.801757812 398.040039062 182.194335938 416.56640625 c 1
 186.36328125 372.608398438 193.234375 328.952148438 198.7578125 285.280273438 c 0
 202.387695312 256.58203125 206.229492188 226.330078125 206.229492188 196.837890625 c 0
 206.229492188 182.453125 205.313476562 168.247070312 202.985351562 154.48828125 c 0
 200.909179688 95.10546875 178.844726562 29.7763671875 129.015625 -7.9873046875 c 0
 128.177734375 -8.623046875 127.1328125 -9 126 -9 c 2
 120 -9 l 2
 117.240234375 -9 115 -6.759765625 115 -4 c 0
 115 -1.240234375 117.240234375 1 120 1 c 2
 124.303710938 1 l 1
 169.920898438 36.4365234375 191.083007812 98.1796875 193.002929688 155.170898438 c 0
 193.010742188 155.400390625 193.034179688 155.625976562 193.071289062 155.846679688 c 0
 195.322265625 169.013671875 196.229492188 182.772460938 196.229492188 196.837890625 c 0
 196.229492188 230.229492188 191.03515625 265.828125 187.037109375 298.385742188 c 0
 182.083984375 338.724609375 175.526367188 378.903320312 171.84375 419.84765625 c 1
 165.395507812 421.830078125 158.606445312 423.760742188 152.278320312 425.693359375 c 0
 140.75 429.213867188 131.516601562 432 120 432 c 0
 117.138671875 432 116.393554688 433.216796875 115.821289062 433.666992188 c 0
 113.268554688 435.6796875 110.305664062 439.182617188 108.411132812 441.362304688 c 1
 74.1728515625 447.068359375 l 2
 71.806640625 447.462890625 70 449.522460938 70 452 c 0
 70 454.759765625 72.240234375 457 75 457 c 0
 75.28125 457 75.5576171875 456.9765625 75.8271484375 456.931640625 c 2
 111.827148438 450.931640625 l 2
 113.537109375 450.646484375 114.51171875 449.584960938 115.524414062 448.418945312 c 0
 116.977539062 446.745117188 119.958007812 443.40625 121.4765625 441.986328125 c 0
 137.036132812 441.701171875 150.055664062 436.661132812 163.389648438 432.803710938 c 0
 165.895507812 432.079101562 168.416015625 431.336914062 170.94921875 430.576171875 c 1
 169.735351562 446.434570312 169 462.493164062 169 478.908203125 c 0
 168.860351562 482.801757812 168.791015625 486.694335938 168.791015625 490.5859375 c 0
 168.791015625 587.66796875 211.775390625 683.389648438 275.389648438 755.463867188 c 0
 279.333007812 759.932617188 288.73828125 770.603515625 298.278320312 779.369140625 c 0
 305.671875 786.161132812 313.329101562 793 321 793 c 0
319.37890625 779.173828125 m 0
 319.37890625 780.301757812 319.294921875 781.444335938 319.176757812 782.353515625 c 1
 316.286132812 780.9375 310.762695312 777.26171875 305.040039062 772.00390625 c 0
 296.0390625 763.734375 286.788085938 753.268554688 282.888671875 748.8515625 c 0
 220.662109375 678.348632812 178.791015625 584.706054688 178.791015625 490.5859375 c 0
 178.791015625 486.724609375 179 482.862304688 179 479 c 0
 179 461.501953125 179.848632812 444.369140625 181.236328125 427.396484375 c 1
 239.819335938 408.75 302.568359375 379.060546875 331.390625 319.408203125 c 1
 357.897460938 276.719726562 365.434570312 225.134765625 385.599609375 177.961914062 c 0
 385.694335938 177.740234375 385.7734375 177.510742188 385.8359375 177.275390625 c 0
 389.45703125 163.522460938 391.74609375 149.384765625 393.916015625 135.2578125 c 1
 391.517578125 166.811523438 390.768554688 198.254882812 388.01953125 229.557617188 c 0
 388.012695312 229.6328125 388.0078125 229.708007812 388.004882812 229.784179688 c 2
 382.014648438 370.547851562 l 1
 361.059570312 523.220703125 l 2
 349.677734375 606.145507812 331.53125 687.694335938 319.060546875 772.223632812 c 0
 319.020507812 772.4765625 319 772.735351562 319 773 c 0
 319 773.94921875 319.37890625 775.430664062 319.37890625 779.173828125 c 0
EndSplineSet
EndChar
StartChar: A
Encoding: 65 65 27
Width: 466
Flags: HW
LayerCount: 2
Fore
SplineSet
381 793 m 0
 388.020507812 793 389.37890625 784.978515625 389.37890625 779.173828125 c 0
 389.37890625 776.5546875 389.169921875 774.23828125 389.045898438 773.096679688 c 0
 401.485351562 688.762695312 419.602539062 607.423828125 430.95703125 524.685546875 c 2
 451.953125 371.684570312 l 2
 451.974609375 371.530273438 451.98828125 371.374023438 451.995117188 371.215820312 c 2
 457.990234375 230.329101562 l 1
 461.693359375 188.094726562 461.809570312 146.362304688 466.912109375 105.021484375 c 0
 473.571289062 82.3173828125 479.71875 59.9970703125 484.825195312 36.3466796875 c 0
 493.467773438 11.2119140625 496.8125 -1.5341796875 496.8125 -7.814453125 c 0
 496.8125 -7.8603515625 496.818359375 -7.990234375 496.818359375 -8.185546875 c 0
 496.818359375 -9.6640625 496.5 -14.857421875 491.024414062 -14.857421875 c 0
 488.102539062 -14.857421875 486.880859375 -13.26171875 486.19921875 -12.5556640625 c 0
 485.135742188 -11.4560546875 484.290039062 -10.21875 483.360351562 -8.69921875 c 0
 481.291015625 -5.314453125 478.952148438 -0.4912109375 476.517578125 5.427734375 c 0
 471.129882812 18.53125 465.37109375 36.8828125 463.129882812 54.640625 c 1
 446.159179688 92.759765625 446.967773438 133.405273438 436.255859375 174.376953125 c 1
 416.44140625 220.88671875 408.299804688 273.357421875 382.752929688 314.361328125 c 0
 382.657226562 314.514648438 382.5703125 314.673828125 382.491210938 314.837890625 c 0
 356.325195312 369.2421875 298.801757812 398.040039062 242.194335938 416.56640625 c 1
 246.36328125 372.608398438 253.234375 328.952148438 258.7578125 285.280273438 c 0
 262.387695312 256.58203125 266.229492188 226.330078125 266.229492188 196.837890625 c 0
 266.229492188 182.453125 265.313476562 168.247070312 262.985351562 154.48828125 c 0
 260.909179688 95.10546875 238.844726562 29.7763671875 189.015625 -7.9873046875 c 0
 188.177734375 -8.623046875 187.1328125 -9 186 -9 c 2
 180 -9 l 2
 177.240234375 -9 175 -6.759765625 175 -4 c 0
 175 -1.240234375 177.240234375 1 180 1 c 2
 184.303710938 1 l 1
 229.920898438 36.4365234375 251.083007812 98.1796875 253.002929688 155.170898438 c 0
 253.010742188 155.400390625 253.034179688 155.625976562 253.071289062 155.846679688 c 0
 255.322265625 169.013671875 256.229492188 182.772460938 256.229492188 196.837890625 c 0
 256.229492188 230.229492188 251.03515625 265.828125 247.037109375 298.385742188 c 0
 242.083984375 338.724609375 235.526367188 378.903320312 231.84375 419.84765625 c 1
 225.395507812 421.830078125 218.606445312 423.760742188 212.278320312 425.693359375 c 0
 200.75 429.213867188 191.516601562 432 180 432 c 0
 177.138671875 432 176.393554688 433.216796875 175.821289062 433.666992188 c 0
 173.268554688 435.6796875 170.305664062 439.182617188 168.411132812 441.362304688 c 1
 134.172851562 447.068359375 l 2
 131.806640625 447.462890625 130 449.522460938 130 452 c 0
 130 454.759765625 132.240234375 457 135 457 c 0
 135.28125 457 135.557617188 456.9765625 135.827148438 456.931640625 c 2
 171.827148438 450.931640625 l 2
 173.537109375 450.646484375 174.51171875 449.584960938 175.524414062 448.418945312 c 0
 176.977539062 446.745117188 179.958007812 443.40625 181.4765625 441.986328125 c 0
 197.036132812 441.701171875 210.055664062 436.661132812 223.389648438 432.803710938 c 0
 225.895507812 432.079101562 228.416015625 431.336914062 230.94921875 430.576171875 c 1
 229.735351562 446.434570312 229 462.493164062 229 478.908203125 c 0
 228.860351562 482.801757812 228.791015625 486.694335938 228.791015625 490.5859375 c 0
 228.791015625 587.66796875 271.775390625 683.389648438 335.389648438 755.463867188 c 0
 339.333007812 759.932617188 348.73828125 770.603515625 358.278320312 779.369140625 c 0
 365.671875 786.161132812 373.329101562 793 381 793 c 0
379.37890625 779.173828125 m 0
 379.37890625 780.301757812 379.294921875 781.444335938 379.176757812 782.353515625 c 1
 376.286132812 780.9375 370.762695312 777.26171875 365.040039062 772.00390625 c 0
 356.0390625 763.734375 346.788085938 753.268554688 342.888671875 748.8515625 c 0
 280.662109375 678.348632812 238.791015625 584.706054688 238.791015625 490.5859375 c 0
 238.791015625 486.724609375 239 482.862304688 239 479 c 0
 239 461.501953125 239.848632812 444.369140625 241.236328125 427.396484375 c 1
 299.819335938 408.75 362.568359375 379.060546875 391.390625 319.408203125 c 1
 417.897460938 276.719726562 425.434570312 225.134765625 445.599609375 177.961914062 c 0
 445.694335938 177.740234375 445.7734375 177.510742188 445.8359375 177.275390625 c 0
 449.45703125 163.522460938 451.74609375 149.384765625 453.916015625 135.2578125 c 1
 451.517578125 166.811523438 450.768554688 198.254882812 448.01953125 229.557617188 c 0
 448.012695312 229.6328125 448.0078125 229.708007812 448.004882812 229.784179688 c 2
 442.014648438 370.547851562 l 1
 421.059570312 523.220703125 l 2
 409.677734375 606.145507812 391.53125 687.694335938 379.060546875 772.223632812 c 0
 379.020507812 772.4765625 379 772.735351562 379 773 c 0
 379 773.94921875 379.37890625 775.430664062 379.37890625 779.173828125 c 0
EndSplineSet
EndChar
StartChar: B
Encoding: 66 66 28
Width: 503
Flags: HW
LayerCount: 2
Fore
SplineSet
205.490234375 778.817382812 m 0
 225.239257812 778.817382812 252.395507812 769.203125 269.607421875 769.001953125 c 0
 271.53515625 769.30859375 273.434570312 769.452148438 275.30078125 769.452148438 c 0
 296.94921875 769.452148438 312.221679688 751.296875 330.900390625 747.919921875 c 0
 412.262695312 733.209960938 464.005859375 658.592773438 464.005859375 578 c 0
 464.005859375 577.5390625 463.944335938 577.092773438 463.827148438 576.668945312 c 0
 443.0625 501.403320312 355.955078125 443.345703125 277.877929688 443.345703125 c 0
 267.045898438 443.345703125 253.487304688 444.918945312 245.30078125 446.438476562 c 1
 245.119140625 444.681640625 245.005859375 443.420898438 245.005859375 443 c 0
 247.333007812 436.213867188 266.939453125 423.576171875 293.794921875 406.701171875 c 0
 360.490234375 364.79296875 473.005859375 295.072265625 473.005859375 194 c 0
 473.005859375 85.169921875 409.48828125 27 309.005859375 27 c 0
 272.486328125 27 240.740234375 52.142578125 211.237304688 63.322265625 c 0
 209.8828125 63.8359375 208.809570312 64.919921875 208.310546875 66.2802734375 c 2
 175.310546875 156.280273438 l 2
 175.137695312 156.750976562 175.034179688 157.254882812 175.010742188 157.779296875 c 2
 172.001953125 227 l 2
 172.001953125 229.759765625 174.247070312 232 177.005859375 232 c 0
 179.692382812 232 181.885742188 229.877929688 182.001953125 227.220703125 c 2
 184.967773438 158.995117188 l 1
 216.923828125 71.84375 l 1
 244.379882812 60.9384765625 277.235351562 37 309.005859375 37 c 0
 404.647460938 37 463.005859375 90.1640625 463.005859375 194 c 0
 463.005859375 287.586914062 356.228515625 355.661132812 288.485351562 398.227539062 c 0
 271.966796875 408.607421875 257.96875 417.377929688 248.461914062 424.850585938 c 0
 241.263671875 430.508789062 235.005859375 435.873046875 235.005859375 443 c 0
 235.005859375 444.012695312 235.185546875 446.1640625 235.45703125 448.840820312 c 0
 230.075195312 450.595703125 223.784179688 453.541015625 223.784179688 459.788085938 c 0
 223.784179688 468.715820312 237.017578125 473.231445312 241.383789062 474.73046875 c 0
 241.892578125 474.905273438 242.438476562 475 243.005859375 475 c 0
 245.765625 475 248.005859375 472.759765625 248.005859375 470 c 0
 248.005859375 469.788085938 247.993164062 469.578125 247.967773438 469.373046875 c 2
 247.967773438 469.373046875 247.190429688 463.021484375 246.432617188 456.534179688 c 1
 253.510742188 455.094726562 267.568359375 453.345703125 277.877929688 453.345703125 c 0
 351.525390625 453.345703125 434.358398438 508.979492188 454.004882812 578.682617188 c 1
 453.71484375 654.97265625 404.784179688 724.3984375 329.112304688 738.080078125 c 0
 318.8984375 739.926757812 310.23828125 744.916015625 302.25 749.427734375 c 0
 292.614257812 754.870117188 284.102539062 759.452148438 275.30078125 759.452148438 c 0
 273.5859375 759.452148438 271.784179688 759 270.005859375 759 c 0
 255.500976562 759 230.559570312 765.68359375 215.235351562 768.059570312 c 0
 211.919921875 768.573242188 208.669921875 768.817382812 205.490234375 768.817382812 c 0
 166.979492188 768.817382812 136.198242188 732.21484375 127.99609375 697.37890625 c 0
 127.755859375 689.814453125 123.685546875 677.701171875 121.87890625 669.872070312 c 2
 106.908203125 609.98828125 l 1
 88.98828125 499.484375 l 1
 80.017578125 293.142578125 l 1
 91.9384765625 173.934570312 l 1
 107.908203125 116.95703125 124.248046875 61.8369140625 145.66796875 6.8115234375 c 0
 145.88671875 6.2490234375 146.005859375 5.638671875 146.005859375 5 c 0
 146.005859375 2.240234375 143.765625 0 141.005859375 0 c 0
 138.885742188 0 137.071289062 1.3232421875 136.344726562 3.1884765625 c 0
 114.677734375 58.849609375 98.22265625 114.4375 82.19140625 171.649414062 c 0
 82.1142578125 171.923828125 82.060546875 172.20703125 82.03125 172.497070312 c 2
 70.03125 292.497070312 l 2
 70.0146484375 292.663085938 69.994140625 292.831054688 70.001953125 293 c 2
 79.0107421875 500.220703125 l 2
 79.01953125 500.418945312 79.0400390625 500.61328125 79.0712890625 500.8046875 c 2
 97.0712890625 611.8046875 l 2
 97.09375 611.943359375 97.12109375 612.080078125 97.1552734375 612.21484375 c 0
 102.6328125 634.125 107.842773438 656.192382812 113.642578125 677.973632812 c 0
 115.462890625 684.809570312 118.005859375 695.19921875 118.005859375 698 c 0
 118.005859375 698.384765625 118.049804688 698.760742188 118.1328125 699.12109375 c 0
 126.815429688 736.979492188 160.212890625 778.817382812 205.490234375 778.817382812 c 0
236.927734375 461.711914062 m 1
 236.828125 460.89453125 236.7265625 460.049804688 236.623046875 459.19140625 c 1
 235.737304688 459.524414062 235.079101562 459.814453125 234.609375 460.043945312 c 1
 235.181640625 460.515625 235.982421875 461.1171875 236.927734375 461.711914062 c 1
EndSplineSet
EndChar
StartChar: C
Encoding: 67 67 29
Width: 446
Flags: HW
LayerCount: 2
Fore
SplineSet
458.001953125 686 m 0
 458.001953125 683.240234375 455.76171875 681 453.001953125 681 c 0
 450.447265625 681 448.337890625 682.919921875 448.038085938 685.393554688 c 0
 444.685546875 713.0703125 432.916992188 742.362304688 409.594726562 749.201171875 c 0
 400.602539062 751.837890625 391.758789062 756.844726562 383.1015625 761.6796875 c 0
 370.568359375 768.680664062 358.615234375 775 349.001953125 775 c 0
 248.774414062 775 224.280273438 699.923828125 199.064453125 622.42578125 c 0
 186.994140625 585.326171875 175.030273438 548.147460938 153.829101562 520.084960938 c 1
 140.009765625 387.807617188 l 1
 143.9921875 246.4296875 l 1
 151.922851562 190.913085938 l 1
 155.844726562 173.642578125 159.079101562 157.669921875 167.397460938 142.384765625 c 0
 171.482421875 134.876953125 175.725585938 124.106445312 180.580078125 111.874023438 c 0
 189.0703125 90.4765625 199.364257812 64.71875 211.952148438 46.529296875 c 0
 222.142578125 31.8056640625 233.171875 23 245.001953125 23 c 2
 259.001953125 23 l 2
 259.697265625 23 260.359375 22.857421875 260.961914062 22.6005859375 c 0
 289.938476562 10.2294921875 321.23828125 2.9169921875 354.75 2.9169921875 c 0
 396.0390625 2.9169921875 411.478515625 16.115234375 435.888671875 37.5322265625 c 0
 439.32421875 40.5458984375 442.923828125 43.7041015625 446.775390625 46.97265625 c 1
 464.032226562 92.9892578125 l 1
 466.004882812 152.168945312 l 2
 466.09375 154.850585938 468.298828125 157 471.001953125 157 c 0
 473.76171875 157 476.096679688 154.7578125 476.004882812 152 c 2
 473.999023438 91.8310546875 l 2
 473.98046875 91.275390625 473.87109375 90.7421875 473.685546875 90.24609375 c 2
 455.685546875 42.24609375 l 2
 455.381835938 41.4365234375 454.873046875 40.7255859375 454.223632812 40.1767578125 c 0
 427.198242188 17.3779296875 407.950195312 -5.7568359375 361.13671875 -6.998046875 c 0
 359 -7.0546875 356.87109375 -7.0830078125 354.75 -7.0830078125 c 0
 320.110351562 -7.0830078125 287.776367188 0.41015625 257.982421875 13 c 1
 245.001953125 13 l 2
 227.897460938 13 214.466796875 25.3251953125 203.723632812 40.8486328125 c 0
 190.145507812 60.4677734375 179.784179688 86.76171875 171.280273438 108.19140625 c 0
 166.439453125 120.391601562 162.178710938 131.052734375 158.607421875 137.615234375 c 0
 149.344726562 154.63671875 146.120117188 171.318359375 142.125976562 188.888671875 c 0
 142.096679688 189.01953125 142.071289062 189.153320312 142.052734375 189.288085938 c 2
 134.052734375 245.288085938 l 2
 134.025390625 245.474609375 134.009765625 245.6640625 134.00390625 245.856445312 c 2
 130 388 l 2
 130 388.176757812 130.01171875 388.352539062 130.029296875 388.524414062 c 2
 144.029296875 522.524414062 l 2
 144.127929688 523.46875 144.490234375 524.3359375 145.041015625 525.049804688 c 0
 165.254882812 551.256835938 177.301757812 587.862304688 189.552734375 625.518554688 c 0
 214.443359375 702.017578125 241.375 785 349.001953125 785 c 0
 371.220703125 785 393.498046875 764.34375 412.409179688 758.798828125 c 0
 442.495117188 749.977539062 454.529296875 714.970703125 457.965820312 686.606445312 c 0
 457.965820312 686.407226562 458.001953125 686.205078125 458.001953125 686 c 0
EndSplineSet
EndChar
StartChar: D
Encoding: 68 68 30
Width: 463
Flags: HW
LayerCount: 2
Fore
SplineSet
179.333007812 84.1767578125 m 1
 206.643554688 83.3876953125 238.120117188 79 265 79 c 0
 342.297851562 79 372.989257812 160.107421875 401.431640625 237.283203125 c 0
 407.793945312 254.544921875 414.008789062 271.416992188 420.6484375 286.837890625 c 1
 433.176757812 425.865234375 l 1
 351.3828125 665.401367188 l 2
 330.141601562 727.610351562 266.55078125 757 199 757 c 0
 134.1015625 757 100.098632812 726.620117188 89.8974609375 676.989257812 c 0
 89.4296875 674.713867188 87.4130859375 673 85 673 c 0
 82.240234375 673 80 675.240234375 80 678 c 0
 80 678.345703125 80.03515625 678.68359375 80.1025390625 679.010742188 c 0
 91.2353515625 733.176757812 130.287109375 767 199 767 c 0
 269.001953125 767 337.727539062 736.346679688 360.849609375 668.629882812 c 2
 442.985351562 428.090820312 l 2
 443.158203125 427.584960938 443.251953125 427.041015625 443.251953125 426.4765625 c 0
 443.251953125 426.323242188 443.245117188 426.171875 443.231445312 426.022460938 c 2
 430.536132812 285.135742188 l 2
 430.487304688 284.59765625 430.353515625 284.083984375 430.147460938 283.607421875 c 0
 423.544921875 268.349609375 417.28125 251.36328125 410.818359375 233.829101562 c 0
 383.038085938 158.452148438 350.869140625 69 265 69 c 0
 237.403320312 69 205.821289062 73.466796875 178.216796875 74.203125 c 1
 174.545898438 45.6201171875 166.935546875 18.99609375 153.330078125 -4.5 c 0
 152.46484375 -5.994140625 150.848632812 -7 149 -7 c 0
 148.422851562 -7 147.868164062 -6.90234375 147.352539062 -6.7216796875 c 0
 127.362304688 0.2626953125 89.9462890625 0.94140625 89.9462890625 28.439453125 c 0
 89.9462890625 29.1044921875 89.958984375 29.802734375 90.021484375 30.470703125 c 0
 94.1376953125 74.47265625 130.090820312 84.1240234375 169.287109375 84.30859375 c 1
 170.502929688 96.576171875 171.0390625 109.255859375 171.0390625 122.264648438 c 0
 171.0390625 210.935546875 145.969726562 314.12890625 145.969726562 402.7578125 c 0
 145.969726562 404.53125 145.979492188 406.23828125 146 408 c 2
 146 676 l 2
 146 678.759765625 148.240234375 681 151 681 c 0
 153.759765625 681 156 678.759765625 156 676 c 2
 156 408 l 2
 155.979492188 406.279296875 155.969726562 404.4921875 155.969726562 402.7578125 c 0
 155.969726562 314.55859375 181.0390625 211.328125 181.0390625 122.264648438 c 0
 181.0390625 109.296875 180.524414062 96.5703125 179.333007812 84.1767578125 c 1
99.9462890625 28.439453125 m 0
 99.9462890625 16.609375 113.9453125 12.21875 133.608398438 7.4287109375 c 0
 138.005859375 6.357421875 142.431640625 5.28515625 146.645507812 4.0166015625 c 1
 158.017578125 24.8994140625 164.712890625 48.60546875 168.12890625 74.30078125 c 1
 130.220703125 73.9716796875 103.359375 65.326171875 99.984375 29.5966796875 c 0
 99.958984375 29.1962890625 99.9462890625 28.8115234375 99.9462890625 28.439453125 c 0
EndSplineSet
EndChar
StartChar: E
Encoding: 69 69 31
Width: 432
Flags: HW
LayerCount: 2
Fore
SplineSet
73.60546875 577.978515625 m 0
 73.60546875 583.702148438 72.8212890625 589.095703125 72.8212890625 594.526367188 c 0
 72.8212890625 638.09375 91.35546875 681.61328125 117.59375 716.694335938 c 1
 135.094726562 749.038085938 169.659179688 770.159179688 207.182617188 774.958984375 c 0
 207.391601562 774.986328125 207.60546875 775 207.822265625 775 c 0
 238.786132812 775 269.228515625 769.471679688 299.900390625 768.999023438 c 0
 313.159179688 768.795898438 324.911132812 761.956054688 335.657226562 755.935546875 c 0
 345.361328125 750.5 354.311523438 745.69921875 362.276367188 744.979492188 c 0
 364.823242188 744.75 366.822265625 742.606445312 366.822265625 740 c 0
 366.822265625 737.240234375 364.58203125 735 361.822265625 735 c 0
 361.668945312 735 361.517578125 735.006835938 361.3671875 735.020507812 c 0
 340.37109375 736.916015625 320.122070312 758.6875 299.744140625 759.000976562 c 0
 269.018554688 759.473632812 238.611328125 764.958984375 208.146484375 765 c 0
 173.37109375 760.45703125 141.845703125 740.766601562 126.231445312 711.642578125 c 0
 126.112304688 711.418945312 125.975585938 711.205078125 125.82421875 711.00390625 c 0
 100.451171875 677.184570312 82.8212890625 635.3515625 82.8212890625 594.526367188 c 0
 82.8212890625 594.443359375 82.8212890625 594.360351562 82.8212890625 594.27734375 c 0
 83.3896484375 588.927734375 83.60546875 583.479492188 83.60546875 577.978515625 c 0
 83.60546875 559.073242188 81.03125 539.19921875 81.03125 520.450195312 c 0
 81.03125 494.30078125 85.9052734375 471.765625 108.650390625 456.123046875 c 0
 111.528320312 454.143554688 114.00390625 451.352539062 116.69921875 448.455078125 c 0
 122.400390625 442.32421875 128.103515625 437.291015625 131.529296875 437.01171875 c 0
 132.932617188 437.208984375 134.3203125 437.296875 135.684570312 437.296875 c 0
 146.34375 437.296875 155.198242188 432.358398438 164.573242188 430.944335938 c 0
 181.171875 428.440429688 192.321289062 417 209.822265625 417 c 2
 237.822265625 417 l 2
 240.58203125 417 242.822265625 414.759765625 242.822265625 412 c 0
 242.822265625 409.661132812 241.213867188 407.696289062 239.04296875 407.150390625 c 0
 204.6640625 398.5078125 155.41015625 367.577148438 129.921875 331.138671875 c 0
 129.627929688 330.717773438 129.26953125 330.34375 128.86328125 330.03125 c 0
 94.2353515625 303.448242188 80.109375 269.475585938 80.109375 228.500976562 c 0
 80.109375 223.125976562 80.822265625 217.603515625 80.822265625 212 c 0
 80.822265625 202.2421875 80 192.185546875 80 182.513671875 c 0
 80 159.434570312 82.568359375 137.650390625 94.103515625 118.583007812 c 0
 94.31640625 118.231445312 94.486328125 117.8515625 94.6083984375 117.450195312 c 0
 114.88671875 50.548828125 186.428710938 12.2431640625 253.916015625 10.9990234375 c 0
 254.379882812 10.990234375 254.829101562 10.9189453125 255.25390625 10.7919921875 c 0
 263.8828125 8.2138671875 272.32421875 7.0263671875 280.53125 7.0263671875 c 0
 314.711914062 7.0263671875 345.767578125 27.81640625 367.856445312 57.044921875 c 2
 387.5625 82.662109375 l 1
 393.346679688 94.2314453125 l 2
 394.16796875 95.8720703125 395.864257812 97 397.822265625 97 c 0
 400.58203125 97 402.822265625 94.759765625 402.822265625 92 c 0
 402.822265625 91.1982421875 402.6328125 90.4404296875 402.296875 89.7685546875 c 2
 396.296875 77.7685546875 l 2
 396.153320312 77.48046875 395.982421875 77.208984375 395.787109375 76.955078125 c 2
 375.787109375 50.955078125 l 2
 352.4765625 20.1103515625 318.922851562 -2.9736328125 280.53125 -2.9736328125 c 0
 271.548828125 -2.9736328125 262.353515625 -1.7001953125 253.046875 1.0146484375 c 0
 182.912109375 2.552734375 107.32421875 42.171875 85.2177734375 113.956054688 c 1
 72.515625 135.276367188 70 158.978515625 70 182.513671875 c 0
 70 192.341796875 70.443359375 202.209960938 70.814453125 211.885742188 c 0
 70.349609375 217.514648438 70.109375 223.053710938 70.109375 228.500976562 c 0
 70.109375 271.743164062 85.4453125 309.0234375 122.16796875 337.495117188 c 1
 143.15625 367.1640625 177.66796875 392.6015625 209.23828125 407.002929688 c 1
 189.830078125 407.23046875 179.313476562 418.606445312 163.071289062 421.055664062 c 0
 154.142578125 422.403320312 144.344726562 427.296875 135.684570312 427.296875 c 0
 134.376953125 427.296875 133.112304688 427 131.822265625 427 c 0
 118.119140625 427 111.166015625 442.2578125 102.994140625 447.876953125 c 0
 76.39453125 466.169921875 71.03125 493.220703125 71.03125 520.450195312 c 0
 71.03125 539.401367188 73.60546875 559.275390625 73.60546875 577.978515625 c 0
EndSplineSet
EndChar
StartChar: E
Encoding: 69 69 31
Width: 432
Flags: HW
LayerCount: 2
Fore
SplineSet
133.60546875 577.978515625 m 0
 133.60546875 583.702148438 132.821289062 589.095703125 132.821289062 594.526367188 c 0
 132.821289062 638.09375 151.35546875 681.61328125 177.59375 716.694335938 c 1
 195.094726562 749.038085938 229.659179688 770.159179688 267.182617188 774.958984375 c 0
 267.391601562 774.986328125 267.60546875 775 267.822265625 775 c 0
 298.786132812 775 329.228515625 769.471679688 359.900390625 768.999023438 c 0
 373.159179688 768.795898438 384.911132812 761.956054688 395.657226562 755.935546875 c 0
 405.361328125 750.5 414.311523438 745.69921875 422.276367188 744.979492188 c 0
 424.823242188 744.75 426.822265625 742.606445312 426.822265625 740 c 0
 426.822265625 737.240234375 424.58203125 735 421.822265625 735 c 0
 421.668945312 735 421.517578125 735.006835938 421.3671875 735.020507812 c 0
 400.37109375 736.916015625 380.122070312 758.6875 359.744140625 759.000976562 c 0
 329.018554688 759.473632812 298.611328125 764.958984375 268.146484375 765 c 0
 233.37109375 760.45703125 201.845703125 740.766601562 186.231445312 711.642578125 c 0
 186.112304688 711.418945312 185.975585938 711.205078125 185.82421875 711.00390625 c 0
 160.451171875 677.184570312 142.821289062 635.3515625 142.821289062 594.526367188 c 0
 142.821289062 594.443359375 142.821289062 594.360351562 142.821289062 594.27734375 c 0
 143.389648438 588.927734375 143.60546875 583.479492188 143.60546875 577.978515625 c 0
 143.60546875 559.073242188 141.03125 539.19921875 141.03125 520.450195312 c 0
 141.03125 494.30078125 145.905273438 471.765625 168.650390625 456.123046875 c 0
 171.528320312 454.143554688 174.00390625 451.352539062 176.69921875 448.455078125 c 0
 182.400390625 442.32421875 188.103515625 437.291015625 191.529296875 437.01171875 c 0
 192.932617188 437.208984375 194.3203125 437.296875 195.684570312 437.296875 c 0
 206.34375 437.296875 215.198242188 432.358398438 224.573242188 430.944335938 c 0
 241.171875 428.440429688 252.321289062 417 269.822265625 417 c 2
 297.822265625 417 l 2
 300.58203125 417 302.822265625 414.759765625 302.822265625 412 c 0
 302.822265625 409.661132812 301.213867188 407.696289062 299.04296875 407.150390625 c 0
 264.6640625 398.5078125 215.41015625 367.577148438 189.921875 331.138671875 c 0
 189.627929688 330.717773438 189.26953125 330.34375 188.86328125 330.03125 c 0
 154.235351562 303.448242188 140.109375 269.475585938 140.109375 228.500976562 c 0
 140.109375 223.125976562 140.822265625 217.603515625 140.822265625 212 c 0
 140.822265625 202.2421875 140 192.185546875 140 182.513671875 c 0
 140 159.434570312 142.568359375 137.650390625 154.103515625 118.583007812 c 0
 154.31640625 118.231445312 154.486328125 117.8515625 154.608398438 117.450195312 c 0
 174.88671875 50.548828125 246.428710938 12.2431640625 313.916015625 10.9990234375 c 0
 314.379882812 10.990234375 314.829101562 10.9189453125 315.25390625 10.7919921875 c 0
 323.8828125 8.2138671875 332.32421875 7.0263671875 340.53125 7.0263671875 c 0
 374.711914062 7.0263671875 405.767578125 27.81640625 427.856445312 57.044921875 c 2
 447.5625 82.662109375 l 1
 453.346679688 94.2314453125 l 2
 454.16796875 95.8720703125 455.864257812 97 457.822265625 97 c 0
 460.58203125 97 462.822265625 94.759765625 462.822265625 92 c 0
 462.822265625 91.1982421875 462.6328125 90.4404296875 462.296875 89.7685546875 c 2
 456.296875 77.7685546875 l 2
 456.153320312 77.48046875 455.982421875 77.208984375 455.787109375 76.955078125 c 2
 435.787109375 50.955078125 l 2
 412.4765625 20.1103515625 378.922851562 -2.9736328125 340.53125 -2.9736328125 c 0
 331.548828125 -2.9736328125 322.353515625 -1.7001953125 313.046875 1.0146484375 c 0
 242.912109375 2.552734375 167.32421875 42.171875 145.217773438 113.956054688 c 1
 132.515625 135.276367188 130 158.978515625 130 182.513671875 c 0
 130 192.341796875 130.443359375 202.209960938 130.814453125 211.885742188 c 0
 130.349609375 217.514648438 130.109375 223.053710938 130.109375 228.500976562 c 0
 130.109375 271.743164062 145.4453125 309.0234375 182.16796875 337.495117188 c 1
 203.15625 367.1640625 237.66796875 392.6015625 269.23828125 407.002929688 c 1
 249.830078125 407.23046875 239.313476562 418.606445312 223.071289062 421.055664062 c 0
 214.142578125 422.403320312 204.344726562 427.296875 195.684570312 427.296875 c 0
 194.376953125 427.296875 193.112304688 427 191.822265625 427 c 0
 178.119140625 427 171.166015625 442.2578125 162.994140625 447.876953125 c 0
 136.39453125 466.169921875 131.03125 493.220703125 131.03125 520.450195312 c 0
 131.03125 539.401367188 133.60546875 559.275390625 133.60546875 577.978515625 c 0
EndSplineSet
EndChar
StartChar: F
Encoding: 70 70 32
Width: 542
Flags: HW
LayerCount: 2
Fore
SplineSet
103 419 m 2
 100.240234375 419 98 421.240234375 98 424 c 0
 98 426.759765625 100.240234375 429 103 429 c 2
 111 429 l 2
 145.78125 429 181.49609375 415.377929688 213.611328125 408.977539062 c 1
 299.235351562 404.994140625 l 2
 301.885742188 404.87109375 304 402.680664062 304 400 c 0
 304 397.240234375 301.759765625 395 299 395 c 0
 298.920898438 395 298.842773438 395.001953125 298.764648438 395.005859375 c 2
 212.764648438 399.005859375 l 2
 212.512695312 399.017578125 212.265625 399.047851562 212.024414062 399.095703125 c 0
 180.638671875 405.310546875 143.749023438 419 111 419 c 2
 103 419 l 2
180.780273438 285.7109375 m 0
 180.780273438 367.123046875 190.22265625 447.7109375 190.22265625 528.955078125 c 0
 190.22265625 535.8671875 190.154296875 542.782226562 190.004882812 549.700195312 c 0
 186.399414062 586.971679688 189.083007812 628.313476562 185.603515625 665.784179688 c 1
 157.182617188 670.6171875 139.365234375 696.864257812 124.599609375 718 c 0
 117.184570312 728.614257812 110.3203125 738.30859375 103.6640625 744.276367188 c 0
 102.642578125 745.192382812 101.944335938 746.522460938 101.997070312 748 c 2
 104.002929688 804.181640625 l 2
 104.098632812 806.857421875 106.30078125 809 109 809 c 0
 110.342773438 809 111.5625 808.469726562 112.4609375 807.606445312 c 2
 162.4609375 759.606445312 l 2
 162.590820312 759.482421875 162.712890625 759.3515625 162.828125 759.21484375 c 0
 182.764648438 735.505859375 191.162109375 706.055664062 194.809570312 675 c 0
 194.873046875 675 194.936523438 675 195 675 c 0
 227.623046875 675 266.86328125 700.672851562 308.09375 728.23828125 c 0
 345.958984375 753.552734375 385.333007812 780.134765625 424.133789062 786.924804688 c 0
 429.385742188 787.84375 434.682617188 788.319335938 439.91015625 788.319335938 c 1
 438.678710938 789.344726562 438.118164062 790.069335938 438.118164062 790.513671875 c 0
 438.118164062 790.879882812 438.497070312 791.056640625 439.194335938 791.056640625 c 0
 447.00390625 791.056640625 494.684570312 768.880859375 495.946289062 741.66796875 c 1
 501.67578125 733.2265625 503.567382812 723.094726562 505.392578125 714.09765625 c 0
 506.982421875 706.256835938 508.543945312 699.208984375 511.305664062 694.541015625 c 0
 511.747070312 693.795898438 512 692.927734375 512 692 c 0
 512 689.240234375 509.759765625 687 507 687 c 0
 505.16796875 687 503.564453125 687.987304688 502.694335938 689.458984375 c 0
 494.499023438 703.305664062 496.008789062 724.888671875 486.985351562 737.020507812 c 0
 486.38671875 737.826171875 486.0234375 738.817382812 486.000976562 739.892578125 c 0
 485.436523438 766.572265625 465.064453125 778.319335938 439.91015625 778.319335938 c 0
 435.301757812 778.319335938 430.572265625 777.8984375 425.866210938 777.075195312 c 0
 390.176757812 770.829101562 351.58984375 745.290039062 313.641601562 719.918945312 c 0
 273.025390625 692.763671875 232.931640625 665.405273438 195.823242188 665.004882812 c 1
 199.064453125 627.505859375 196.422851562 586.978515625 199.9765625 550.489257812 c 0
 200.661132812 543.453125 200.22265625 536.032226562 200.22265625 528.955078125 c 0
 200.22265625 447.533203125 190.780273438 366.946289062 190.780273438 285.7109375 c 0
 190.780273438 269.915039062 191.137695312 254.106445312 191.9921875 238.2734375 c 0
 191.997070312 238.182617188 192 238.091796875 192 238 c 0
 192 237.629882812 191.959960938 237.268554688 191.8828125 236.920898438 c 0
 189.625976562 226.674804688 188.874023438 213.470703125 188.874023438 198.662109375 c 0
 188.874023438 174.012695312 190.671875 147.045898438 190.671875 121.698242188 c 0
 190.671875 60.0908203125 180.272460938 -3.298828125 108.7421875 1.0068359375 c 0
 95.7607421875 1.66796875 83.767578125 1.177734375 72.5087890625 7.6640625 c 0
 71.009765625 8.5283203125 70 10.1474609375 70 12 c 0
 70 14.759765625 72.240234375 17 75 17 c 0
 75.90625 17 76.7568359375 16.7578125 77.4912109375 16.3359375 c 0
 85.501953125 11.7197265625 96.9482421875 11.6201171875 109.2578125 10.9931640625 c 0
 111.365234375 10.8662109375 113.452148438 10.8017578125 115.427734375 10.8017578125 c 0
 171.40625 10.8017578125 180.671875 61.1669921875 180.671875 121.698242188 c 0
 180.671875 146.956054688 178.874023438 173.89453125 178.874023438 198.662109375 c 0
 178.874023438 213.508789062 179.557617188 227.049804688 181.970703125 238.405273438 c 0
 181.130859375 254.219726562 180.780273438 269.985351562 180.780273438 285.7109375 c 0
155.342773438 752.58203125 m 1
 113.59765625 792.65625 l 1
 112.078125 750.100585938 l 1
 119.380859375 743.043945312 125.930664062 733.555664062 132.803710938 723.717773438 c 0
 147.421875 702.791015625 162.729492188 681.561523438 184.458007812 676.2578125 c 1
 180.791015625 705.103515625 172.876953125 731.618164062 155.342773438 752.58203125 c 1
EndSplineSet
EndChar
StartChar: F
Encoding: 70 70 32
Width: 542
Flags: HW
LayerCount: 2
Fore
SplineSet
163 419 m 2
 160.240234375 419 158 421.240234375 158 424 c 0
 158 426.759765625 160.240234375 429 163 429 c 2
 171 429 l 2
 205.78125 429 241.49609375 415.377929688 273.611328125 408.977539062 c 1
 359.235351562 404.994140625 l 2
 361.885742188 404.87109375 364 402.680664062 364 400 c 0
 364 397.240234375 361.759765625 395 359 395 c 0
 358.920898438 395 358.842773438 395.001953125 358.764648438 395.005859375 c 2
 272.764648438 399.005859375 l 2
 272.512695312 399.017578125 272.265625 399.047851562 272.024414062 399.095703125 c 0
 240.638671875 405.310546875 203.749023438 419 171 419 c 2
 163 419 l 2
240.780273438 285.7109375 m 0
 240.780273438 367.123046875 250.22265625 447.7109375 250.22265625 528.955078125 c 0
 250.22265625 535.8671875 250.154296875 542.782226562 250.004882812 549.700195312 c 0
 246.399414062 586.971679688 249.083007812 628.313476562 245.603515625 665.784179688 c 1
 217.182617188 670.6171875 199.365234375 696.864257812 184.599609375 718 c 0
 177.184570312 728.614257812 170.3203125 738.30859375 163.6640625 744.276367188 c 0
 162.642578125 745.192382812 161.944335938 746.522460938 161.997070312 748 c 2
 164.002929688 804.181640625 l 2
 164.098632812 806.857421875 166.30078125 809 169 809 c 0
 170.342773438 809 171.5625 808.469726562 172.4609375 807.606445312 c 2
 222.4609375 759.606445312 l 2
 222.590820312 759.482421875 222.712890625 759.3515625 222.828125 759.21484375 c 0
 242.764648438 735.505859375 251.162109375 706.055664062 254.809570312 675 c 0
 254.873046875 675 254.936523438 675 255 675 c 0
 287.623046875 675 326.86328125 700.672851562 368.09375 728.23828125 c 0
 405.958984375 753.552734375 445.333007812 780.134765625 484.133789062 786.924804688 c 0
 489.385742188 787.84375 494.682617188 788.319335938 499.91015625 788.319335938 c 1
 498.678710938 789.344726562 498.118164062 790.069335938 498.118164062 790.513671875 c 0
 498.118164062 790.879882812 498.497070312 791.056640625 499.194335938 791.056640625 c 0
 507.00390625 791.056640625 554.684570312 768.880859375 555.946289062 741.66796875 c 1
 561.67578125 733.2265625 563.567382812 723.094726562 565.392578125 714.09765625 c 0
 566.982421875 706.256835938 568.543945312 699.208984375 571.305664062 694.541015625 c 0
 571.747070312 693.795898438 572 692.927734375 572 692 c 0
 572 689.240234375 569.759765625 687 567 687 c 0
 565.16796875 687 563.564453125 687.987304688 562.694335938 689.458984375 c 0
 554.499023438 703.305664062 556.008789062 724.888671875 546.985351562 737.020507812 c 0
 546.38671875 737.826171875 546.0234375 738.817382812 546.000976562 739.892578125 c 0
 545.436523438 766.572265625 525.064453125 778.319335938 499.91015625 778.319335938 c 0
 495.301757812 778.319335938 490.572265625 777.8984375 485.866210938 777.075195312 c 0
 450.176757812 770.829101562 411.58984375 745.290039062 373.641601562 719.918945312 c 0
 333.025390625 692.763671875 292.931640625 665.405273438 255.823242188 665.004882812 c 1
 259.064453125 627.505859375 256.422851562 586.978515625 259.9765625 550.489257812 c 0
 260.661132812 543.453125 260.22265625 536.032226562 260.22265625 528.955078125 c 0
 260.22265625 447.533203125 250.780273438 366.946289062 250.780273438 285.7109375 c 0
 250.780273438 269.915039062 251.137695312 254.106445312 251.9921875 238.2734375 c 0
 251.997070312 238.182617188 252 238.091796875 252 238 c 0
 252 237.629882812 251.959960938 237.268554688 251.8828125 236.920898438 c 0
 249.625976562 226.674804688 248.874023438 213.470703125 248.874023438 198.662109375 c 0
 248.874023438 174.012695312 250.671875 147.045898438 250.671875 121.698242188 c 0
 250.671875 60.0908203125 240.272460938 -3.298828125 168.7421875 1.0068359375 c 0
 155.760742188 1.66796875 143.767578125 1.177734375 132.508789062 7.6640625 c 0
 131.009765625 8.5283203125 130 10.1474609375 130 12 c 0
 130 14.759765625 132.240234375 17 135 17 c 0
 135.90625 17 136.756835938 16.7578125 137.491210938 16.3359375 c 0
 145.501953125 11.7197265625 156.948242188 11.6201171875 169.2578125 10.9931640625 c 0
 171.365234375 10.8662109375 173.452148438 10.8017578125 175.427734375 10.8017578125 c 0
 231.40625 10.8017578125 240.671875 61.1669921875 240.671875 121.698242188 c 0
 240.671875 146.956054688 238.874023438 173.89453125 238.874023438 198.662109375 c 0
 238.874023438 213.508789062 239.557617188 227.049804688 241.970703125 238.405273438 c 0
 241.130859375 254.219726562 240.780273438 269.985351562 240.780273438 285.7109375 c 0
215.342773438 752.58203125 m 1
 173.59765625 792.65625 l 1
 172.078125 750.100585938 l 1
 179.380859375 743.043945312 185.930664062 733.555664062 192.803710938 723.717773438 c 0
 207.421875 702.791015625 222.729492188 681.561523438 244.458007812 676.2578125 c 1
 240.791015625 705.103515625 232.876953125 731.618164062 215.342773438 752.58203125 c 1
EndSplineSet
EndChar
StartChar: G
Encoding: 71 71 33
Width: 524
Flags: HW
LayerCount: 2
Fore
SplineSet
304.014648438 253 m 0
 304.014648438 246.830078125 306.014648438 239.881835938 306.014648438 233 c 0
 306.014648438 218.513671875 314.991210938 204.767578125 325.280273438 189.592773438 c 0
 335.989257812 173.797851562 348.014648438 156.482421875 348.014648438 135 c 0
 348.014648438 102.1953125 338.916015625 65.8828125 314.618164062 41.5341796875 c 0
 288.486328125 13.3583984375 249.278320312 -0.9658203125 213.16015625 -1.998046875 c 0
 213.111328125 -1.9990234375 213.063476562 -2 213.014648438 -2 c 0
 212.350585938 -2 211.715820312 -1.8701171875 211.135742188 -1.634765625 c 0
 156.94140625 20.3818359375 125.706054688 84.470703125 106.598632812 159.4609375 c 0
 82.6171875 253.57421875 77.478515625 367.043945312 73.9326171875 444.647460938 c 0
 73.27734375 458.98046875 72.677734375 472.083007812 72.029296875 483.592773438 c 0
 70.6787109375 496.465820312 70 509.436523438 70 522.384765625 c 0
 70 650.786132812 137.436523438 778.999023438 280.30859375 778.999023438 c 0
 294.670898438 778.999023438 309.752929688 777.697265625 325.55859375 774.98046875 c 0
 373.745117188 772.731445312 412.6171875 737.323242188 444.149414062 711.893554688 c 0
 445.287109375 710.9765625 446.014648438 709.573242188 446.014648438 708 c 0
 446.014648438 705.240234375 443.774414062 703 441.014648438 703 c 0
 439.828125 703 438.737304688 703.4140625 437.87890625 704.106445312 c 0
 406.447265625 729.455078125 368.444335938 763.107421875 324.793945312 765.004882812 c 0
 324.578125 765.014648438 324.366210938 765.037109375 324.158203125 765.073242188 c 0
 308.759765625 767.736328125 294.145507812 768.999023438 280.30859375 768.999023438 c 0
 145.219726562 768.999023438 80 648.201171875 80 522.384765625 c 0
 80 509.75390625 80.6640625 497.091796875 81.9873046875 484.528320312 c 0
 83.2099609375 472.907226562 83.26171875 459.54296875 83.921875 445.111328125 c 0
 87.4658203125 367.5625 92.67578125 254.608398438 116.2890625 161.934570312 c 0
 135.131835938 87.9853515625 165.53125 28.3134765625 213.928710938 8.0322265625 c 1
 247.485351562 9.2509765625 283.725585938 22.8857421875 307.345703125 48.3955078125 c 0
 307.389648438 48.4423828125 307.43359375 48.4892578125 307.479492188 48.53515625 c 0
 329.129882812 70.185546875 338.014648438 103.8359375 338.014648438 135 c 0
 338.014648438 170.661132812 296.014648438 196.39453125 296.014648438 233 c 0
 296.014648438 239.430664062 294.014648438 246.334960938 294.014648438 253 c 0
 294.014648438 283.713867188 328.432617188 296 353.014648438 296 c 0
 374.361328125 296 395.443359375 298.538085938 415.774414062 298.538085938 c 0
 428.688476562 298.538085938 440.235351562 297.359375 449.52734375 292.3671875 c 0
 461.537109375 285.915039062 468.014648438 273.455078125 468.014648438 254 c 0
 468.014648438 198.224609375 424.014648438 152.243164062 424.014648438 98 c 0
 424.014648438 84.5458984375 438.227539062 74.701171875 445.721679688 64.7841796875 c 1
 489.452148438 60.9814453125 l 2
 492.0078125 60.7587890625 494.014648438 58.6123046875 494.014648438 56 c 0
 494.014648438 53.240234375 491.774414062 51 489.014648438 51 c 0
 488.8671875 51 488.720703125 51.0068359375 488.576171875 51.0185546875 c 2
 442.576171875 55.0185546875 l 2
 441.053710938 55.1513671875 439.725585938 55.9677734375 438.900390625 57.1591796875 c 0
 430.529296875 69.2509765625 414.014648438 78.091796875 414.014648438 98 c 0
 414.014648438 153.775390625 458.014648438 199.756835938 458.014648438 254 c 0
 458.014648438 271.36328125 452.870117188 279.21875 444.805664062 283.551757812 c 0
 438.038085938 287.1875 428.116210938 288.538085938 415.774414062 288.538085938 c 0
 395.672851562 288.538085938 374.504882812 286 353.014648438 286 c 0
 329.595703125 286 304.014648438 274.286132812 304.014648438 253 c 0
EndSplineSet
EndChar
StartChar: G
Encoding: 71 71 33
Width: 524
Flags: HW
LayerCount: 2
Fore
SplineSet
314.014648438 253 m 0
 314.014648438 246.830078125 316.014648438 239.881835938 316.014648438 233 c 0
 316.014648438 218.513671875 324.991210938 204.767578125 335.280273438 189.592773438 c 0
 345.989257812 173.797851562 358.014648438 156.482421875 358.014648438 135 c 0
 358.014648438 102.1953125 348.916015625 65.8828125 324.618164062 41.5341796875 c 0
 298.486328125 13.3583984375 259.278320312 -0.9658203125 223.16015625 -1.998046875 c 0
 223.111328125 -1.9990234375 223.063476562 -2 223.014648438 -2 c 0
 222.350585938 -2 221.715820312 -1.8701171875 221.135742188 -1.634765625 c 0
 166.94140625 20.3818359375 135.706054688 84.470703125 116.598632812 159.4609375 c 0
 92.6171875 253.57421875 87.478515625 367.043945312 83.9326171875 444.647460938 c 0
 83.27734375 458.98046875 82.677734375 472.083007812 82.029296875 483.592773438 c 0
 80.6787109375 496.465820312 80 509.436523438 80 522.384765625 c 0
 80 650.786132812 147.436523438 778.999023438 290.30859375 778.999023438 c 0
 304.670898438 778.999023438 319.752929688 777.697265625 335.55859375 774.98046875 c 0
 383.745117188 772.731445312 422.6171875 737.323242188 454.149414062 711.893554688 c 0
 455.287109375 710.9765625 456.014648438 709.573242188 456.014648438 708 c 0
 456.014648438 705.240234375 453.774414062 703 451.014648438 703 c 0
 449.828125 703 448.737304688 703.4140625 447.87890625 704.106445312 c 0
 416.447265625 729.455078125 378.444335938 763.107421875 334.793945312 765.004882812 c 0
 334.578125 765.014648438 334.366210938 765.037109375 334.158203125 765.073242188 c 0
 318.759765625 767.736328125 304.145507812 768.999023438 290.30859375 768.999023438 c 0
 155.219726562 768.999023438 90 648.201171875 90 522.384765625 c 0
 90 509.75390625 90.6640625 497.091796875 91.9873046875 484.528320312 c 0
 93.2099609375 472.907226562 93.26171875 459.54296875 93.921875 445.111328125 c 0
 97.4658203125 367.5625 102.67578125 254.608398438 126.2890625 161.934570312 c 0
 145.131835938 87.9853515625 175.53125 28.3134765625 223.928710938 8.0322265625 c 1
 257.485351562 9.2509765625 293.725585938 22.8857421875 317.345703125 48.3955078125 c 0
 317.389648438 48.4423828125 317.43359375 48.4892578125 317.479492188 48.53515625 c 0
 339.129882812 70.185546875 348.014648438 103.8359375 348.014648438 135 c 0
 348.014648438 170.661132812 306.014648438 196.39453125 306.014648438 233 c 0
 306.014648438 239.430664062 304.014648438 246.334960938 304.014648438 253 c 0
 304.014648438 283.713867188 338.432617188 296 363.014648438 296 c 0
 384.361328125 296 405.443359375 298.538085938 425.774414062 298.538085938 c 0
 438.688476562 298.538085938 450.235351562 297.359375 459.52734375 292.3671875 c 0
 471.537109375 285.915039062 478.014648438 273.455078125 478.014648438 254 c 0
 478.014648438 198.224609375 434.014648438 152.243164062 434.014648438 98 c 0
 434.014648438 84.5458984375 448.227539062 74.701171875 455.721679688 64.7841796875 c 1
 499.452148438 60.9814453125 l 2
 502.0078125 60.7587890625 504.014648438 58.6123046875 504.014648438 56 c 0
 504.014648438 53.240234375 501.774414062 51 499.014648438 51 c 0
 498.8671875 51 498.720703125 51.0068359375 498.576171875 51.0185546875 c 2
 452.576171875 55.0185546875 l 2
 451.053710938 55.1513671875 449.725585938 55.9677734375 448.900390625 57.1591796875 c 0
 440.529296875 69.2509765625 424.014648438 78.091796875 424.014648438 98 c 0
 424.014648438 153.775390625 468.014648438 199.756835938 468.014648438 254 c 0
 468.014648438 271.36328125 462.870117188 279.21875 454.805664062 283.551757812 c 0
 448.038085938 287.1875 438.116210938 288.538085938 425.774414062 288.538085938 c 0
 405.672851562 288.538085938 384.504882812 286 363.014648438 286 c 0
 339.595703125 286 314.014648438 274.286132812 314.014648438 253 c 0
EndSplineSet
EndChar
StartChar: H
Encoding: 72 72 34
Width: 782
Flags: HW
LayerCount: 2
Fore
SplineSet
348.4765625 746.307617188 m 1
 352.268554688 750.1640625 355.083984375 755.015625 356.634765625 760.877929688 c 1
 353.71875 757.267578125 350.961914062 752.354492188 348.4765625 746.307617188 c 1
342.650390625 309.801757812 m 1
 418.331054688 371.9765625 504.391601562 433.125976562 558.421875 509.736328125 c 1
 555.216796875 540.733398438 551.271484375 572.911132812 551.271484375 605.020507812 c 0
 551.271484375 612.69921875 551.494140625 620.413085938 552 628.170898438 c 0
 552.048828125 640.58984375 557.272460938 687.040039062 568.043945312 726.931640625 c 0
 572.84765625 744.719726562 578.701171875 761.134765625 586.103515625 772.734375 c 0
 591.895507812 781.811523438 599.30859375 789 609 789 c 0
 616.452148438 789 617.955078125 781.078125 618.625 777.354492188 c 0
 619.73828125 771.163085938 619.71875 763.565429688 619.739257812 757.810546875 c 0
 619.751953125 754.321289062 619.853515625 751.272460938 619.923828125 750.872070312 c 0
 623.9453125 728.041015625 625.841796875 706.396484375 625.841796875 685.809570312 c 0
 625.841796875 615.043945312 603.458984375 557.249023438 568.75390625 507.016601562 c 0
 569.16015625 503.01953125 569.5546875 499.012695312 569.9296875 494.995117188 c 0
 584.000976562 449.98828125 584.680664062 390.931640625 585.501953125 330.418945312 c 0
 587.090820312 213.288085938 589.630859375 94.5224609375 678.862304688 58.640625 c 0
 688.07421875 54.9365234375 738.3203125 29.01171875 742.946289062 26.623046875 c 0
 746.57421875 25.4130859375 752 24.6875 752 20 c 0
 752 17.240234375 749.759765625 15 747 15 c 0
 744.317382812 15 741.713867188 16.490234375 739.419921875 17.2548828125 c 0
 738.926757812 17.419921875 684.051757812 45.7744140625 675.137695312 49.359375 c 0
 577.853515625 88.478515625 577.064453125 215.186523438 575.502929688 330.28125 c 0
 574.678710938 391.036132812 573.760742188 449.630859375 560.23046875 492.495117188 c 0
 560.01953125 493.163085938 559.984375 493.9375 559.91015625 494.724609375 c 1
 502.884765625 418.494140625 417.974609375 359.299804688 343.247070312 297.286132812 c 1
 345.157226562 256.286132812 346.853515625 219.833007812 346.853515625 177.03125 c 0
 346.853515625 108.688476562 339.060546875 -1 261 -1 c 0
 260.953125 -1 260.907226562 -0.9990234375 260.860351562 -0.998046875 c 0
 222.424804688 0.0546875 170.684570312 30.0888671875 170.684570312 74.458984375 c 0
 170.684570312 78.58984375 171.061523438 83.021484375 172.159179688 87.2568359375 c 0
 195.09765625 175.73828125 260.080078125 241.034179688 333.021484375 301.834960938 c 1
 329.440429688 377.252929688 324.28515625 454.650390625 324.28515625 531.569335938 c 0
 324.28515625 555.607421875 324.784179688 579.694335938 325.986328125 603.844726562 c 0
 324.779296875 614.739257812 324.091796875 628.416015625 324.091796875 643.322265625 c 0
 324.091796875 670.342773438 326.327148438 701.331054688 332.091796875 726.751953125 c 1
 327.2578125 725.583007812 322.173828125 725 317 725 c 0
 237.151367188 725 191.380859375 787 113 787 c 0
 100.126953125 787 90.5400390625 781.654296875 80 778.267578125 c 1
 80 716.499023438 l 1
 89.9033203125 666.984375 l 2
 89.966796875 666.666015625 90 666.336914062 90 666 c 0
 90 663.240234375 87.759765625 661 85 661 c 0
 82.5771484375 661 80.5546875 662.7265625 80.0966796875 665.015625 c 2
 70.0966796875 715.015625 l 2
 70.033203125 715.333984375 70 715.663085938 70 716 c 2
 70 782 l 2
 70 784.307617188 71.5673828125 786.252929688 73.6943359375 786.827148438 c 0
 86.4951171875 790.287109375 96.201171875 797 113 797 c 0
 154.176757812 797 186.426757812 780.891601562 217.663085938 765.383789062 c 0
 248.868164062 749.891601562 279.0625 735 317 735 c 0
 323.483398438 735 329.5625 735.95703125 334.951171875 737.885742188 c 1
 340.3125 756.415039062 348.159179688 771.831054688 361.263671875 776.689453125 c 0
 361.8046875 776.890625 362.389648438 777 363 777 c 0
 365.759765625 777 368 774.759765625 368 772 c 0
 368 751.622070312 357.810546875 737.924804688 343.374023438 730.802734375 c 1
 336.76171875 705.650390625 334.091796875 672.098632812 334.091796875 643.322265625 c 0
 334.091796875 628.553710938 334.790039062 615.0234375 335.96875 604.564453125 c 0
 335.989257812 604.379882812 336 604.19140625 336 604 c 0
 336 603.915039062 335.998046875 603.830078125 335.994140625 603.74609375 c 0
 334.787109375 579.654296875 334.28515625 555.600585938 334.28515625 531.569335938 c 0
 334.28515625 457.641601562 339.106445312 382.643554688 342.650390625 309.801757812 c 1
607.959960938 778.930664062 m 0
 604.001953125 778.412109375 599.36328125 774.92578125 594.5390625 767.365234375 c 0
 588.133789062 757.328125 582.368164062 741.608398438 577.700195312 724.322265625 c 0
 567.211914062 685.483398438 562 638.390625 562 628 c 0
 562 620.322265625 561.271484375 612.6640625 561.271484375 605.020507812 c 0
 561.271484375 577.602539062 564.19921875 550.209960938 567.122070312 522.634765625 c 1
 597.084960938 569.159179688 615.841796875 622.0859375 615.841796875 685.809570312 c 0
 615.841796875 705.76953125 614.00390625 726.829101562 610.076171875 749.127929688 c 0
 609.760742188 750.916015625 609.741210938 752.978515625 609.741210938 755.525390625 c 0
 609.741210938 755.891601562 609.741210938 756.266601562 609.741210938 756.653320312 c 0
 609.741210938 763.50390625 609.883789062 774.041992188 607.959960938 778.930664062 c 0
333.606445312 289.220703125 m 1
 263.670898438 230.211914062 203.354492188 167.626953125 181.859375 84.8173828125 c 0
 181.05859375 81.2626953125 180.684570312 77.8095703125 180.684570312 74.458984375 c 0
 180.684570312 38.4365234375 225.629882812 10.005859375 261.0703125 9 c 0
 326.758789062 9.068359375 336.853515625 105.4375 336.853515625 177.03125 c 0
 336.853515625 217.15625 335.336914062 250.833007812 333.606445312 289.220703125 c 1
EndSplineSet
EndChar
StartChar: H
Encoding: 72 72 34
Width: 782
Flags: HW
LayerCount: 2
Fore
SplineSet
408.4765625 746.307617188 m 1
 412.268554688 750.1640625 415.083984375 755.015625 416.634765625 760.877929688 c 1
 413.71875 757.267578125 410.961914062 752.354492188 408.4765625 746.307617188 c 1
402.650390625 309.801757812 m 1
 478.331054688 371.9765625 564.391601562 433.125976562 618.421875 509.736328125 c 1
 615.216796875 540.733398438 611.271484375 572.911132812 611.271484375 605.020507812 c 0
 611.271484375 612.69921875 611.494140625 620.413085938 612 628.170898438 c 0
 612.048828125 640.58984375 617.272460938 687.040039062 628.043945312 726.931640625 c 0
 632.84765625 744.719726562 638.701171875 761.134765625 646.103515625 772.734375 c 0
 651.895507812 781.811523438 659.30859375 789 669 789 c 0
 676.452148438 789 677.955078125 781.078125 678.625 777.354492188 c 0
 679.73828125 771.163085938 679.71875 763.565429688 679.739257812 757.810546875 c 0
 679.751953125 754.321289062 679.853515625 751.272460938 679.923828125 750.872070312 c 0
 683.9453125 728.041015625 685.841796875 706.396484375 685.841796875 685.809570312 c 0
 685.841796875 615.043945312 663.458984375 557.249023438 628.75390625 507.016601562 c 0
 629.16015625 503.01953125 629.5546875 499.012695312 629.9296875 494.995117188 c 0
 644.000976562 449.98828125 644.680664062 390.931640625 645.501953125 330.418945312 c 0
 647.090820312 213.288085938 649.630859375 94.5224609375 738.862304688 58.640625 c 0
 748.07421875 54.9365234375 798.3203125 29.01171875 802.946289062 26.623046875 c 0
 806.57421875 25.4130859375 812 24.6875 812 20 c 0
 812 17.240234375 809.759765625 15 807 15 c 0
 804.317382812 15 801.713867188 16.490234375 799.419921875 17.2548828125 c 0
 798.926757812 17.419921875 744.051757812 45.7744140625 735.137695312 49.359375 c 0
 637.853515625 88.478515625 637.064453125 215.186523438 635.502929688 330.28125 c 0
 634.678710938 391.036132812 633.760742188 449.630859375 620.23046875 492.495117188 c 0
 620.01953125 493.163085938 619.984375 493.9375 619.91015625 494.724609375 c 1
 562.884765625 418.494140625 477.974609375 359.299804688 403.247070312 297.286132812 c 1
 405.157226562 256.286132812 406.853515625 219.833007812 406.853515625 177.03125 c 0
 406.853515625 108.688476562 399.060546875 -1 321 -1 c 0
 320.953125 -1 320.907226562 -0.9990234375 320.860351562 -0.998046875 c 0
 282.424804688 0.0546875 230.684570312 30.0888671875 230.684570312 74.458984375 c 0
 230.684570312 78.58984375 231.061523438 83.021484375 232.159179688 87.2568359375 c 0
 255.09765625 175.73828125 320.080078125 241.034179688 393.021484375 301.834960938 c 1
 389.440429688 377.252929688 384.28515625 454.650390625 384.28515625 531.569335938 c 0
 384.28515625 555.607421875 384.784179688 579.694335938 385.986328125 603.844726562 c 0
 384.779296875 614.739257812 384.091796875 628.416015625 384.091796875 643.322265625 c 0
 384.091796875 670.342773438 386.327148438 701.331054688 392.091796875 726.751953125 c 1
 387.2578125 725.583007812 382.173828125 725 377 725 c 0
 297.151367188 725 251.380859375 787 173 787 c 0
 160.126953125 787 150.540039062 781.654296875 140 778.267578125 c 1
 140 716.499023438 l 1
 149.903320312 666.984375 l 2
 149.966796875 666.666015625 150 666.336914062 150 666 c 0
 150 663.240234375 147.759765625 661 145 661 c 0
 142.577148438 661 140.5546875 662.7265625 140.096679688 665.015625 c 2
 130.096679688 715.015625 l 2
 130.033203125 715.333984375 130 715.663085938 130 716 c 2
 130 782 l 2
 130 784.307617188 131.567382812 786.252929688 133.694335938 786.827148438 c 0
 146.495117188 790.287109375 156.201171875 797 173 797 c 0
 214.176757812 797 246.426757812 780.891601562 277.663085938 765.383789062 c 0
 308.868164062 749.891601562 339.0625 735 377 735 c 0
 383.483398438 735 389.5625 735.95703125 394.951171875 737.885742188 c 1
 400.3125 756.415039062 408.159179688 771.831054688 421.263671875 776.689453125 c 0
 421.8046875 776.890625 422.389648438 777 423 777 c 0
 425.759765625 777 428 774.759765625 428 772 c 0
 428 751.622070312 417.810546875 737.924804688 403.374023438 730.802734375 c 1
 396.76171875 705.650390625 394.091796875 672.098632812 394.091796875 643.322265625 c 0
 394.091796875 628.553710938 394.790039062 615.0234375 395.96875 604.564453125 c 0
 395.989257812 604.379882812 396 604.19140625 396 604 c 0
 396 603.915039062 395.998046875 603.830078125 395.994140625 603.74609375 c 0
 394.787109375 579.654296875 394.28515625 555.600585938 394.28515625 531.569335938 c 0
 394.28515625 457.641601562 399.106445312 382.643554688 402.650390625 309.801757812 c 1
667.959960938 778.930664062 m 0
 664.001953125 778.412109375 659.36328125 774.92578125 654.5390625 767.365234375 c 0
 648.133789062 757.328125 642.368164062 741.608398438 637.700195312 724.322265625 c 0
 627.211914062 685.483398438 622 638.390625 622 628 c 0
 622 620.322265625 621.271484375 612.6640625 621.271484375 605.020507812 c 0
 621.271484375 577.602539062 624.19921875 550.209960938 627.122070312 522.634765625 c 1
 657.084960938 569.159179688 675.841796875 622.0859375 675.841796875 685.809570312 c 0
 675.841796875 705.76953125 674.00390625 726.829101562 670.076171875 749.127929688 c 0
 669.760742188 750.916015625 669.741210938 752.978515625 669.741210938 755.525390625 c 0
 669.741210938 755.891601562 669.741210938 756.266601562 669.741210938 756.653320312 c 0
 669.741210938 763.50390625 669.883789062 774.041992188 667.959960938 778.930664062 c 0
393.606445312 289.220703125 m 1
 323.670898438 230.211914062 263.354492188 167.626953125 241.859375 84.8173828125 c 0
 241.05859375 81.2626953125 240.684570312 77.8095703125 240.684570312 74.458984375 c 0
 240.684570312 38.4365234375 285.629882812 10.005859375 321.0703125 9 c 0
 386.758789062 9.068359375 396.853515625 105.4375 396.853515625 177.03125 c 0
 396.853515625 217.15625 395.336914062 250.833007812 393.606445312 289.220703125 c 1
EndSplineSet
EndChar
StartChar: I
Encoding: 73 73 35
Width: 286
Flags: HW
LayerCount: 2
Fore
SplineSet
268.009765625 817.124023438 m 0
 268.009765625 590.084960938 316.025390625 373.166992188 316.025390625 144 c 0
 316.025390625 70.0849609375 267.65625 -9.7294921875 215.2421875 -9.7294921875 c 0
 191.615234375 -9.7294921875 169.360351562 7.0283203125 152.4765625 43.923828125 c 0
 152.34375 44.2119140625 152.23828125 44.515625 152.163085938 44.8310546875 c 2
 140.163085938 94.8310546875 l 2
 140.073242188 95.2060546875 140.025390625 95.59765625 140.025390625 96 c 0
 140.025390625 98.759765625 142.265625 101 145.025390625 101 c 0
 147.381835938 101 149.360351562 99.365234375 149.887695312 97.1689453125 c 2
 161.774414062 47.640625 l 1
 177.848632812 12.759765625 197.096679688 0.2705078125 215.2421875 0.2705078125 c 0
 257.940429688 0.2705078125 306.025390625 72.0791015625 306.025390625 144 c 0
 306.025390625 372.875 258.009765625 589.705078125 258.009765625 817.124023438 c 0
 258.009765625 817.453125 258.010742188 817.782226562 258.010742188 818.111328125 c 1
 203.616210938 807.16796875 140 737.8046875 140 676.501953125 c 0
 140 654.771484375 147.788085938 634.158203125 166.911132812 617 c 1
 263.025390625 617 l 2
 265.78515625 617 268.025390625 614.759765625 268.025390625 612 c 0
 268.025390625 609.240234375 265.78515625 607 263.025390625 607 c 2
 165.025390625 607 l 2
 163.77734375 607 162.634765625 607.458007812 161.758789062 608.215820312 c 0
 139.430664062 627.51171875 130 651.645507812 130 676.501953125 c 0
 130 745.681640625 201.334960938 821.231445312 262.392578125 828.959960938 c 0
 262.599609375 828.986328125 262.810546875 829 263.025390625 829 c 0
 265.78515625 829 268.030273438 826.759765625 268.025390625 823.977539062 c 0
 268.020507812 821.692382812 268.009765625 819.407226562 268.009765625 817.124023438 c 0
EndSplineSet
EndChar
StartChar: J
Encoding: 74 74 36
Width: 376
Flags: HW
LayerCount: 2
Fore
SplineSet
163 487 m 0
 164.817382812 487 166.78515625 486.327148438 168.408203125 486.327148438 c 0
 175.9609375 486.327148438 182.268554688 492.038085938 189.819335938 499.500976562 c 0
 196.755859375 506.356445312 204.922851562 515 216.919921875 515 c 0
 216.954101562 515 216.987304688 515 217.021484375 515 c 0
 219.771484375 515 222 512.751953125 222 510 c 0
 222 507.240234375 219.759765625 505 216.919921875 505 c 0
 210.18359375 505 204.223632812 499.680664062 196.84765625 492.389648438 c 0
 189.705078125 485.331054688 181.124023438 476.327148438 168.408203125 476.327148438 c 0
 166.45703125 476.327148438 164.453125 476.547851562 162.407226562 477.002929688 c 0
 110.216796875 477.591796875 80 555.288085938 80 594 c 0
 80 629.309570312 109.114257812 654.711914062 135.375 678.252929688 c 0
 161.120117188 701.33203125 184 722.625 184 748 c 0
 184 757.951171875 187.975585938 763.583007812 188 771.94140625 c 0
 187.8515625 778.01171875 187.78125 782.555664062 187.78125 785.848632812 c 0
 187.78125 788.6015625 187.930664062 790.32421875 187.930664062 791.78125 c 0
 187.930664062 792.037109375 187.887695312 792.25 187.887695312 792.510742188 c 0
 187.887695312 794.323242188 189.49609375 797.438476562 193.177734375 797.438476562 c 0
 198.966796875 797.438476562 198.573242188 792.41796875 199.18359375 788.043945312 c 0
 201.0546875 774.634765625 203.749023438 746.520507812 205.876953125 737.10546875 c 0
 205.958007812 736.75 206 736.379882812 206 736 c 0
 206 729.67578125 205.5234375 723.381835938 205.5234375 717.124023438 c 0
 205.5234375 601.864257812 258 497.961914062 258 382 c 0
 258 362.05078125 258.084960938 341.918945312 258.219726562 321.653320312 c 1
 277.280273438 345.89453125 313.767578125 392.000976562 322.48828125 404.278320312 c 1
 346.254882812 475.580078125 l 2
 346.916992188 477.56640625 348.79296875 479 351 479 c 0
 353.759765625 479 356 476.759765625 356 474 c 0
 356 473.448242188 355.91015625 472.916015625 355.745117188 472.419921875 c 2
 331.745117188 400.419921875 l 2
 331.58984375 399.954101562 331.368164062 399.51953125 331.090820312 399.125976562 c 0
 320.16015625 383.600585938 278.776367188 331.671875 258.334960938 305.61328125 c 1
 258.908203125 232.130859375 260 157.82421875 260 84 c 0
 260 79.0771484375 258 74.40234375 258 70 c 0
 258 69.7978515625 257.98828125 69.5986328125 257.96484375 69.4033203125 c 0
 253.837890625 34.7578125 211.263671875 -3 175 -3 c 0
 159.737304688 -3 142.952148438 8.3046875 128.749023438 22.287109375 c 0
 110.986328125 39.7724609375 96 62.75 96 80 c 0
 96 98.2890625 118.891601562 134.377929688 149.288085938 177.624023438 c 0
 178.60546875 219.333984375 215.6328125 267.342773438 248.30859375 309.03125 c 1
 248.123046875 333.553710938 248 357.905273438 248 382 c 0
 248 497.170898438 195.5234375 601.079101562 195.5234375 717.124023438 c 0
 195.5234375 723.240234375 195.66796875 729.390625 195.97265625 735.579101562 c 0
 195.310546875 738.680664062 194.6484375 742.901367188 193.999023438 747.658203125 c 1
 193.8046875 716.428710938 167.044921875 693.215820312 142.045898438 670.805664062 c 0
 115.19140625 646.732421875 90 623.453125 90 594 c 0
 90 561.055664062 117 487 163 487 c 0
248.438476562 292.970703125 m 1
 217.801757812 253.755859375 184.319335938 210.075195312 157.475585938 171.883789062 c 0
 127.094726562 128.659179688 106 92.080078125 106 80 c 0
 106 67.9638671875 118.864257812 46.0478515625 135.762695312 29.412109375 c 0
 149.288085938 16.09765625 164.58984375 7 175 7 c 0
 205.541015625 7 244.35546875 41.52734375 248.001953125 70.3271484375 c 0
 248.06640625 75.2109375 250 79.927734375 250 84 c 0
 250 153.555664062 249.028320312 223.66796875 248.438476562 292.970703125 c 1
EndSplineSet
EndChar
StartChar: K
Encoding: 75 75 37
Width: 852
Flags: HW
LayerCount: 2
Fore
SplineSet
135 737 m 2
 132.240234375 737 130 739.240234375 130 742 c 0
 130 744.759765625 132.240234375 747 135 747 c 2
 183 747 l 2
 243.56640625 747 306.658203125 780.41796875 306.658203125 780.41796875 c 2
 307.356445312 780.7890625 308.154296875 781 309 781 c 0
 311.540039062 781 313.640625 779.1015625 313.958984375 776.646484375 c 0
 323.19140625 705.266601562 328.25 615.91015625 328.25 523.125 c 0
 328.25 406.409179688 320.2578125 284.326171875 302.356445312 185.852539062 c 1
 367.779296875 319.637695312 442.873046875 449.54296875 566.043945312 540.032226562 c 0
 575.833984375 547.223632812 597.928710938 570.861328125 623.043945312 597.936523438 c 0
 648.654296875 625.543945312 677.758789062 656.93359375 702.361328125 679.5546875 c 0
 721.782226562 697.412109375 738.450195312 711 751 711 c 0
 753.057617188 711 754.826171875 709.754882812 755.59375 707.9765625 c 0
 769.405273438 675.961914062 775.678710938 645.888671875 775.678710938 617.999023438 c 0
 775.678710938 480.262695312 624.233398438 401.202148438 492.590820312 401.202148438 c 0
 482.216796875 401.202148438 471.943359375 401.689453125 461.84765625 402.677734375 c 1
 456.581054688 392.033203125 454.028320312 379.634765625 454.028320312 365.833007812 c 0
 454.028320312 246.40625 645.72265625 35 827 35 c 0
 845.774414062 35 851.90625 49.1435546875 859.123046875 66.44921875 c 0
 862.872070312 75.44140625 866.607421875 84.89453125 873.522460938 91.591796875 c 0
 874.422851562 92.462890625 875.649414062 93 877 93 c 0
 879.759765625 93 882 90.759765625 882 88 c 0
 882 86.5908203125 881.416015625 85.3173828125 880.477539062 84.408203125 c 0
 875.743164062 79.82421875 872.149414062 71.7021484375 868.356445312 62.607421875 c 0
 861.544921875 46.271484375 852.909179688 25 827 25 c 0
 639.8515625 25 444.028320312 239.478515625 444.028320312 365.833007812 c 0
 444.028320312 382.256835938 447.34765625 397.396484375 454.631835938 410.43359375 c 0
 455.487304688 411.963867188 457.124023438 413 459 413 c 0
 459.185546875 413 459.369140625 412.990234375 459.549804688 412.969726562 c 0
 470.354492188 411.787109375 481.405273438 411.202148438 492.590820312 411.202148438 c 0
 621.904296875 411.202148438 765.678710938 488.854492188 765.678710938 617.999023438 c 0
 765.678710938 643.321289062 760.211914062 670.830078125 747.943359375 700.392578125 c 1
 740.42578125 697.880859375 725.991210938 687.700195312 709.125976562 672.193359375 c 0
 685.001953125 650.010742188 655.970703125 618.729492188 630.375976562 591.138671875 c 0
 605.130859375 563.924804688 583.569335938 540.5 571.956054688 531.967773438 c 0
 440.27734375 435.227539062 363.881835938 291.887695312 294.282226562 146.083984375 c 1
 277.313476562 71.0390625 253.596679688 13.802734375 219.717773438 -8.1962890625 c 0
 218.935546875 -8.705078125 218.001953125 -9 217 -9 c 0
 214.240234375 -9 212 -6.759765625 212 -4 c 0
 212 -3.19921875 212.188476562 -2.4423828125 212.5234375 -1.771484375 c 0
 237.143554688 47.5478515625 260.749023438 99.0087890625 284.765625 149.379882812 c 1
 308.379882812 253.907226562 318.25 390.995117188 318.25 523.125 c 0
 318.25 612.51953125 313.5234375 698.744140625 304.923828125 768.369140625 c 1
 287.090820312 759.791015625 234.833984375 737 183 737 c 2
 135 737 l 2
234.028320312 19.2509765625 m 1
 247.591796875 36.9189453125 259.646484375 62.76171875 270.013671875 94.7890625 c 1
 258.071289062 69.4404296875 246.163085938 44.181640625 234.028320312 19.2509765625 c 1
EndSplineSet
EndChar
StartChar: L
Encoding: 76 76 38
Width: 618
Flags: HW
LayerCount: 2
Fore
SplineSet
224.549804688 117.555664062 m 1
 236.055664062 173.651367188 238.038085938 228.329101562 238.038085938 253.21484375 c 0
 238.038085938 318.741210938 220.299804688 382.8203125 214.025390625 445.497070312 c 0
 214.016601562 445.58203125 214.009765625 445.668945312 214.005859375 445.754882812 c 0
 212.866210938 469.346679688 208.66796875 497.731445312 204.206054688 527.799804688 c 0
 199.446289062 559.87890625 194.384765625 593.87890625 192.510742188 626.352539062 c 1
 175.866210938 622.711914062 159.267578125 620.875 143.836914062 620.875 c 0
 140.802734375 620.875 136.603515625 620.471679688 134.53125 621.65234375 c 0
 82.130859375 651.4921875 75.376953125 730.025390625 70.02734375 781.477539062 c 0
 70.02734375 781.649414062 70 781.823242188 70 782 c 0
 70 784.759765625 72.240234375 787 75 787 c 0
 78.736328125 787 79.810546875 784.087890625 80.1826171875 780.504882812 c 0
 85.5048828125 729.23828125 93.775390625 657.411132812 138.423828125 630.955078125 c 0
 140.2109375 630.90234375 142.015625 630.875 143.836914062 630.875 c 0
 159.337890625 630.875 175.758789062 632.78125 192.032226562 636.481445312 c 1
 191.852539062 641.3984375 191.756835938 646.271484375 191.756835938 651.086914062 c 0
 191.756835938 723.54296875 214.643554688 785.216796875 303.724609375 785.216796875 c 0
 309.376953125 785.216796875 316.391601562 786.116210938 317.791992188 781.432617188 c 0
 321.166015625 770.141601562 322.755859375 759.31640625 322.755859375 748.997070312 c 0
 322.755859375 685.43359375 263.783203125 644.8125 202.3984375 628.728515625 c 1
 204.158203125 596.375976562 209.25 561.948242188 214.09765625 529.278320312 c 0
 218.553710938 499.250976562 222.801757812 470.713867188 223.987304688 446.375 c 0
 230.311523438 383.348632812 248.038085938 319.918945312 248.038085938 253.21484375 c 0
 248.038085938 251.454101562 248.025390625 249.69140625 247.999023438 247.92578125 c 0
 247.69140625 226.78515625 245.15625 164.591796875 233.088867188 109.599609375 c 1
 241.624023438 101.383789062 249.833007812 92.7587890625 257.958984375 84.2421875 c 0
 292.978515625 47.5380859375 326.495117188 12.7998046875 378.009765625 12.7998046875 c 0
 380.20703125 12.7998046875 382.4609375 12.8642578125 384.732421875 12.9931640625 c 0
 477.889648438 17.9130859375 578.086914062 34.6650390625 578.086914062 151.876953125 c 0
 578.086914062 153.198242188 578.07421875 154.533203125 578.048828125 155.881835938 c 2
 551.46484375 182.46484375 l 2
 550.560546875 183.370117188 550 184.620117188 550 186 c 0
 550 188.759765625 552.240234375 191 555 191 c 0
 556.379882812 191 557.629882812 190.439453125 558.53515625 189.53515625 c 2
 586.53515625 161.53515625 l 2
 588.49609375 159.573242188 588.086914062 155.571289062 588.086914062 151.876953125 c 0
 588.086914062 25.4482421875 477.55078125 7.880859375 385.267578125 3.0068359375 c 0
 382.807617188 2.8671875 380.40234375 2.7998046875 378.009765625 2.7998046875 c 0
 310.450195312 2.7998046875 270.461914062 58.662109375 230.41796875 98.1962890625 c 1
 219.388671875 54.0380859375 200.96484375 13 167 13 c 0
 166.7109375 13 166.428710938 13.0244140625 166.153320312 13.0712890625 c 0
 116.122070312 21.6220703125 86.0791015625 81.787109375 80.09765625 124.940429688 c 0
 78.556640625 130.184570312 77.77734375 134.799804688 77.77734375 138.97265625 c 0
 77.77734375 155.9375 91.3408203125 161.244140625 105.645507812 161.244140625 c 0
 112.345703125 161.244140625 119.701171875 160.3203125 127.373046875 159.009765625 c 0
 128.270507812 159.029296875 129.1640625 159.038085938 130.053710938 159.038085938 c 0
 169.276367188 159.038085938 198.684570312 140.80859375 224.549804688 117.555664062 c 1
201.756835938 651.086914062 m 0
 201.756835938 647.092773438 201.825195312 643.049804688 201.955078125 638.966796875 c 1
 259.672851562 654.768554688 312.755859375 693.141601562 312.755859375 748.997070312 c 0
 312.755859375 757.248046875 311.626953125 765.959960938 309.178710938 775.138671875 c 0
 307.330078125 775.190429688 305.51171875 775.216796875 303.724609375 775.216796875 c 0
 222.034179688 775.216796875 201.756835938 721.82421875 201.756835938 651.086914062 c 0
222.067382812 106.219726562 m 1
 196.002929688 130.506835938 167.864257812 149.038085938 130.053710938 149.038085938 c 0
 129.043945312 149.038085938 128.0234375 149 127 149 c 0
 126.708007812 149 126.422851562 149.025390625 126.14453125 149.073242188 c 0
 118.587890625 150.377929688 111.524414062 151.244140625 105.645507812 151.244140625 c 0
 92.8466796875 151.244140625 87.77734375 148.250976562 87.77734375 138.97265625 c 0
 87.77734375 136.021484375 88.3720703125 132.17578125 89.791015625 127.43359375 c 0
 89.8642578125 127.188476562 89.9189453125 126.935546875 89.9541015625 126.676757812 c 0
 95.55078125 85.4150390625 124.6640625 30.6396484375 167.418945312 23.0029296875 c 1
 193.099609375 23.3896484375 211.314453125 60.21875 222.067382812 106.219726562 c 1
EndSplineSet
EndChar
StartChar: L
Encoding: 76 76 38
Width: 618
Flags: HW
LayerCount: 2
Fore
SplineSet
284.549804688 117.555664062 m 1
 296.055664062 173.651367188 298.038085938 228.329101562 298.038085938 253.21484375 c 0
 298.038085938 318.741210938 280.299804688 382.8203125 274.025390625 445.497070312 c 0
 274.016601562 445.58203125 274.009765625 445.668945312 274.005859375 445.754882812 c 0
 272.866210938 469.346679688 268.66796875 497.731445312 264.206054688 527.799804688 c 0
 259.446289062 559.87890625 254.384765625 593.87890625 252.510742188 626.352539062 c 1
 235.866210938 622.711914062 219.267578125 620.875 203.836914062 620.875 c 0
 200.802734375 620.875 196.603515625 620.471679688 194.53125 621.65234375 c 0
 142.130859375 651.4921875 135.376953125 730.025390625 130.02734375 781.477539062 c 0
 130.02734375 781.649414062 130 781.823242188 130 782 c 0
 130 784.759765625 132.240234375 787 135 787 c 0
 138.736328125 787 139.810546875 784.087890625 140.182617188 780.504882812 c 0
 145.504882812 729.23828125 153.775390625 657.411132812 198.423828125 630.955078125 c 0
 200.2109375 630.90234375 202.015625 630.875 203.836914062 630.875 c 0
 219.337890625 630.875 235.758789062 632.78125 252.032226562 636.481445312 c 1
 251.852539062 641.3984375 251.756835938 646.271484375 251.756835938 651.086914062 c 0
 251.756835938 723.54296875 274.643554688 785.216796875 363.724609375 785.216796875 c 0
 369.376953125 785.216796875 376.391601562 786.116210938 377.791992188 781.432617188 c 0
 381.166015625 770.141601562 382.755859375 759.31640625 382.755859375 748.997070312 c 0
 382.755859375 685.43359375 323.783203125 644.8125 262.3984375 628.728515625 c 1
 264.158203125 596.375976562 269.25 561.948242188 274.09765625 529.278320312 c 0
 278.553710938 499.250976562 282.801757812 470.713867188 283.987304688 446.375 c 0
 290.311523438 383.348632812 308.038085938 319.918945312 308.038085938 253.21484375 c 0
 308.038085938 251.454101562 308.025390625 249.69140625 307.999023438 247.92578125 c 0
 307.69140625 226.78515625 305.15625 164.591796875 293.088867188 109.599609375 c 1
 301.624023438 101.383789062 309.833007812 92.7587890625 317.958984375 84.2421875 c 0
 352.978515625 47.5380859375 386.495117188 12.7998046875 438.009765625 12.7998046875 c 0
 440.20703125 12.7998046875 442.4609375 12.8642578125 444.732421875 12.9931640625 c 0
 537.889648438 17.9130859375 638.086914062 34.6650390625 638.086914062 151.876953125 c 0
 638.086914062 153.198242188 638.07421875 154.533203125 638.048828125 155.881835938 c 2
 611.46484375 182.46484375 l 2
 610.560546875 183.370117188 610 184.620117188 610 186 c 0
 610 188.759765625 612.240234375 191 615 191 c 0
 616.379882812 191 617.629882812 190.439453125 618.53515625 189.53515625 c 2
 646.53515625 161.53515625 l 2
 648.49609375 159.573242188 648.086914062 155.571289062 648.086914062 151.876953125 c 0
 648.086914062 25.4482421875 537.55078125 7.880859375 445.267578125 3.0068359375 c 0
 442.807617188 2.8671875 440.40234375 2.7998046875 438.009765625 2.7998046875 c 0
 370.450195312 2.7998046875 330.461914062 58.662109375 290.41796875 98.1962890625 c 1
 279.388671875 54.0380859375 260.96484375 13 227 13 c 0
 226.7109375 13 226.428710938 13.0244140625 226.153320312 13.0712890625 c 0
 176.122070312 21.6220703125 146.079101562 81.787109375 140.09765625 124.940429688 c 0
 138.556640625 130.184570312 137.77734375 134.799804688 137.77734375 138.97265625 c 0
 137.77734375 155.9375 151.340820312 161.244140625 165.645507812 161.244140625 c 0
 172.345703125 161.244140625 179.701171875 160.3203125 187.373046875 159.009765625 c 0
 188.270507812 159.029296875 189.1640625 159.038085938 190.053710938 159.038085938 c 0
 229.276367188 159.038085938 258.684570312 140.80859375 284.549804688 117.555664062 c 1
261.756835938 651.086914062 m 0
 261.756835938 647.092773438 261.825195312 643.049804688 261.955078125 638.966796875 c 1
 319.672851562 654.768554688 372.755859375 693.141601562 372.755859375 748.997070312 c 0
 372.755859375 757.248046875 371.626953125 765.959960938 369.178710938 775.138671875 c 0
 367.330078125 775.190429688 365.51171875 775.216796875 363.724609375 775.216796875 c 0
 282.034179688 775.216796875 261.756835938 721.82421875 261.756835938 651.086914062 c 0
282.067382812 106.219726562 m 1
 256.002929688 130.506835938 227.864257812 149.038085938 190.053710938 149.038085938 c 0
 189.043945312 149.038085938 188.0234375 149 187 149 c 0
 186.708007812 149 186.422851562 149.025390625 186.14453125 149.073242188 c 0
 178.587890625 150.377929688 171.524414062 151.244140625 165.645507812 151.244140625 c 0
 152.846679688 151.244140625 147.77734375 148.250976562 147.77734375 138.97265625 c 0
 147.77734375 136.021484375 148.372070312 132.17578125 149.791015625 127.43359375 c 0
 149.864257812 127.188476562 149.918945312 126.935546875 149.954101562 126.676757812 c 0
 155.55078125 85.4150390625 184.6640625 30.6396484375 227.418945312 23.0029296875 c 1
 253.099609375 23.3896484375 271.314453125 60.21875 282.067382812 106.219726562 c 1
EndSplineSet
EndChar
StartChar: M
Encoding: 77 77 39
Width: 750
Flags: HW
LayerCount: 2
Fore
SplineSet
417.826171875 376.890625 m 0
 417.826171875 375.076171875 418 373.53125 418 372 c 0
 418 369.240234375 415.759765625 367 413 367 c 0
 411.077148438 367 409.40625 368.087890625 408.569335938 369.681640625 c 0
 348.095703125 484.91796875 274.823242188 612.6953125 260.458984375 756.168945312 c 1
 252.923828125 686.018554688 252.029296875 613.559570312 251.1484375 541.174804688 c 0
 248.747070312 343.823242188 246.637695312 146.09375 106.626953125 -1.4404296875 c 0
 105.715820312 -2.400390625 104.426757812 -3 103 -3 c 0
 101.825195312 -3 100.744140625 -2.59375 99.890625 -1.9150390625 c 0
 80.8798828125 13.2099609375 71.8447265625 53.0732421875 70.01953125 73.55078125 c 0
 70.01953125 73.69921875 70 73.8486328125 70 74 c 0
 70 76.759765625 72.240234375 79 75 79 c 0
 77.6083984375 79 79.7529296875 76.998046875 79.98046875 74.44921875 c 0
 81.578125 56.517578125 90.248046875 23.150390625 102.794921875 9.0869140625 c 1
 236.131835938 152.764648438 238.762695312 345.14453125 241.149414062 541.297851562 c 0
 242.26171875 632.779296875 243.361328125 724.885742188 258.068359375 812.829101562 c 0
 258.463867188 815.1953125 260.522460938 817 263 817 c 0
 268.612304688 817 267.958007812 811.255859375 267.958007812 805.66796875 c 0
 267.958007812 652.362304688 343.470703125 514.361328125 408.670898438 390.9453125 c 1
 417.149414062 471.034179688 487.75 677.3515625 534.048828125 758.697265625 c 0
 540.969726562 770.856445312 547.411132812 780.453125 553.478515625 786.911132812 c 0
 558.185546875 791.919921875 563.086914062 795.819335938 568.959960938 795.819335938 c 0
 573.646484375 795.819335938 577.40234375 792.8671875 579.734375 788.93359375 c 0
 584.280273438 781.265625 586 768.2734375 586 748 c 0
 586 662.072265625 582.681640625 574.28125 582.681640625 488.775390625 c 0
 582.681640625 314.797851562 596.875 154.372070312 680.892578125 43.1416015625 c 1
 718.78515625 -0.734375 l 2
 719.541992188 -1.611328125 720 -2.751953125 720 -4 c 0
 720 -6.759765625 717.759765625 -9 715 -9 c 0
 713.48828125 -9 712.131835938 -8.3271484375 711.21484375 -7.265625 c 2
 673.21484375 36.734375 l 2
 673.143554688 36.8173828125 673.075195312 36.9013671875 673.009765625 36.98828125 c 0
 586.434570312 151.491210938 572.681640625 314.485351562 572.681640625 488.775390625 c 0
 572.681640625 574.329101562 576 662.138671875 576 748 c 0
 576 764.3984375 574.52734375 775.360351562 572.392578125 781.106445312 c 0
 570.642578125 785.819335938 569.2265625 785.819335938 568.959960938 785.819335938 c 0
 568.072265625 785.819335938 564.994140625 784.565429688 560.766601562 780.06640625 c 0
 555.666992188 774.638671875 549.451171875 765.54296875 542.74609375 753.760742188 c 0
 527.638671875 727.21875 509.891601562 687.126953125 492.670898438 642.625976562 c 0
 453.944335938 542.556640625 417.826171875 419.348632812 417.826171875 376.890625 c 0
EndSplineSet
EndChar
StartChar: N
Encoding: 78 78 40
Width: 616
Flags: HW
LayerCount: 2
Fore
SplineSet
186 172 m 0
 186 156.341796875 186.787109375 139.943359375 186.787109375 123.0234375 c 0
 186.787109375 65.4052734375 179.465820312 -13 109 -13 c 0
 108.693359375 -13 108.393554688 -12.97265625 108.102539062 -12.919921875 c 0
 84.06640625 -8.5576171875 79.6416015625 17.39453125 75.80859375 36.6767578125 c 0
 74.1865234375 44.833984375 72.6171875 52.498046875 70.3564453125 58.1435546875 c 0
 70.126953125 58.7177734375 70 59.3447265625 70 60 c 0
 70 62.759765625 72.240234375 65 75 65 c 0
 77.103515625 65 78.90625 63.6982421875 79.6435546875 61.8564453125 c 0
 88.666015625 39.328125 86.7861328125 1.5634765625 109.469726562 -2.9990234375 c 1
 168.508789062 -2.650390625 176.787109375 63.423828125 176.787109375 123.0234375 c 0
 176.787109375 139.865234375 176 156.118164062 176 171.852539062 c 0
 171.177734375 255.15625 162.400390625 347.133789062 162.400390625 429.243164062 c 0
 162.400390625 554.044921875 182.309570312 666.7890625 265.313476562 757.375976562 c 0
 275.189453125 768.154296875 282.629882812 774.185546875 290.137695312 774.185546875 c 0
 302.481445312 774.185546875 303.5234375 759.080078125 303.5234375 747.942382812 c 0
 303.5234375 726.27734375 296.885742188 691.377929688 296.885742188 670.416015625 c 0
 296.885742188 666.01171875 297.400390625 663.098632812 297.86328125 661.166015625 c 0
 307.314453125 621.647460938 310.286132812 580.3203125 310.286132812 538.340820312 c 0
 310.286132812 465.940429688 301.2890625 390.760742188 301.2890625 318.801757812 c 0
 301.2890625 267.546875 305.947265625 218.4375 321.717773438 173.659179688 c 0
 321.762695312 173.53125 321.802734375 173.400390625 321.837890625 173.267578125 c 0
 324.599609375 162.71875 335.206054688 137.291015625 346.514648438 110.365234375 c 0
 356.051757812 87.65625 366.20703125 64.0615234375 372.80078125 45.7451171875 c 1
 401.602539062 308.091796875 485.450195312 526.579101562 558.24609375 749.55078125 c 0
 558.416992188 750.076171875 558.672851562 750.563476562 558.998046875 750.99609375 c 2
 576.998046875 774.99609375 l 2
 577.91015625 776.211914062 579.36328125 777 581 777 c 0
 583.759765625 777 586 774.759765625 586 772 c 0
 586 770.876953125 585.62890625 769.83984375 585.001953125 769.00390625 c 2
 567.499023438 745.666015625 l 1
 492.415039062 515.775390625 405.59375 290.158203125 379.977539062 17.52734375 c 0
 379.739257812 14.9892578125 377.600585938 13 375 13 c 0
 372.240234375 13 370 15.240234375 370 18 c 0
 370 35.3544921875 319.107421875 144.560546875 312.215820312 170.530273438 c 0
 295.947265625 216.825195312 291.2890625 267.0234375 291.2890625 318.801757812 c 0
 291.2890625 390.94140625 300.286132812 466.130859375 300.286132812 538.340820312 c 0
 300.286132812 579.786132812 297.341796875 620.272460938 288.174804688 658.67578125 c 0
 287.15234375 662.022460938 286.885742188 665.909179688 286.885742188 670.416015625 c 0
 286.885742188 691.67578125 293.5234375 726.708984375 293.5234375 747.942382812 c 0
 293.5234375 761.921875 290.484375 764.185546875 290.137695312 764.185546875 c 0
 288.541992188 764.185546875 282.448242188 761.276367188 272.686523438 750.624023438 c 0
 192.15234375 662.731445312 172.400390625 553.125976562 172.400390625 429.243164062 c 0
 172.400390625 347.7421875 181.188476562 255.315429688 185.991210938 172.29296875 c 0
 185.997070312 172.196289062 186 172.098632812 186 172 c 0
EndSplineSet
EndChar
StartChar: N
Encoding: 78 78 40
Width: 616
Flags: HW
LayerCount: 2
Fore
SplineSet
196 172 m 0
 196 156.341796875 196.787109375 139.943359375 196.787109375 123.0234375 c 0
 196.787109375 65.4052734375 189.465820312 -13 119 -13 c 0
 118.693359375 -13 118.393554688 -12.97265625 118.102539062 -12.919921875 c 0
 94.06640625 -8.5576171875 89.6416015625 17.39453125 85.80859375 36.6767578125 c 0
 84.1865234375 44.833984375 82.6171875 52.498046875 80.3564453125 58.1435546875 c 0
 80.126953125 58.7177734375 80 59.3447265625 80 60 c 0
 80 62.759765625 82.240234375 65 85 65 c 0
 87.103515625 65 88.90625 63.6982421875 89.6435546875 61.8564453125 c 0
 98.666015625 39.328125 96.7861328125 1.5634765625 119.469726562 -2.9990234375 c 1
 178.508789062 -2.650390625 186.787109375 63.423828125 186.787109375 123.0234375 c 0
 186.787109375 139.865234375 186 156.118164062 186 171.852539062 c 0
 181.177734375 255.15625 172.400390625 347.133789062 172.400390625 429.243164062 c 0
 172.400390625 554.044921875 192.309570312 666.7890625 275.313476562 757.375976562 c 0
 285.189453125 768.154296875 292.629882812 774.185546875 300.137695312 774.185546875 c 0
 312.481445312 774.185546875 313.5234375 759.080078125 313.5234375 747.942382812 c 0
 313.5234375 726.27734375 306.885742188 691.377929688 306.885742188 670.416015625 c 0
 306.885742188 666.01171875 307.400390625 663.098632812 307.86328125 661.166015625 c 0
 317.314453125 621.647460938 320.286132812 580.3203125 320.286132812 538.340820312 c 0
 320.286132812 465.940429688 311.2890625 390.760742188 311.2890625 318.801757812 c 0
 311.2890625 267.546875 315.947265625 218.4375 331.717773438 173.659179688 c 0
 331.762695312 173.53125 331.802734375 173.400390625 331.837890625 173.267578125 c 0
 334.599609375 162.71875 345.206054688 137.291015625 356.514648438 110.365234375 c 0
 366.051757812 87.65625 376.20703125 64.0615234375 382.80078125 45.7451171875 c 1
 411.602539062 308.091796875 495.450195312 526.579101562 568.24609375 749.55078125 c 0
 568.416992188 750.076171875 568.672851562 750.563476562 568.998046875 750.99609375 c 2
 586.998046875 774.99609375 l 2
 587.91015625 776.211914062 589.36328125 777 591 777 c 0
 593.759765625 777 596 774.759765625 596 772 c 0
 596 770.876953125 595.62890625 769.83984375 595.001953125 769.00390625 c 2
 577.499023438 745.666015625 l 1
 502.415039062 515.775390625 415.59375 290.158203125 389.977539062 17.52734375 c 0
 389.739257812 14.9892578125 387.600585938 13 385 13 c 0
 382.240234375 13 380 15.240234375 380 18 c 0
 380 35.3544921875 329.107421875 144.560546875 322.215820312 170.530273438 c 0
 305.947265625 216.825195312 301.2890625 267.0234375 301.2890625 318.801757812 c 0
 301.2890625 390.94140625 310.286132812 466.130859375 310.286132812 538.340820312 c 0
 310.286132812 579.786132812 307.341796875 620.272460938 298.174804688 658.67578125 c 0
 297.15234375 662.022460938 296.885742188 665.909179688 296.885742188 670.416015625 c 0
 296.885742188 691.67578125 303.5234375 726.708984375 303.5234375 747.942382812 c 0
 303.5234375 761.921875 300.484375 764.185546875 300.137695312 764.185546875 c 0
 298.541992188 764.185546875 292.448242188 761.276367188 282.686523438 750.624023438 c 0
 202.15234375 662.731445312 182.400390625 553.125976562 182.400390625 429.243164062 c 0
 182.400390625 347.7421875 191.188476562 255.315429688 195.991210938 172.29296875 c 0
 195.997070312 172.196289062 196 172.098632812 196 172 c 0
EndSplineSet
EndChar
StartChar: O
Encoding: 79 79 41
Width: 518
Flags: HW
LayerCount: 2
Fore
SplineSet
323.48046875 -3 m 0
 283.75 -3 241.551757812 9 203.48046875 9 c 2
 191.48046875 9 l 2
 190.474609375 9 189.5390625 9.296875 188.754882812 9.80859375 c 0
 91.2578125 73.3759765625 70 175.19140625 70 289.326171875 c 0
 70 368.231445312 79.7373046875 452.966796875 82.48046875 532.087890625 c 1
 82.48046875 578 l 2
 82.48046875 662.805664062 124.217773438 754.58203125 210.546875 770.913085938 c 0
 220.208007812 772.78125 229.53515625 773.672851562 238.545898438 773.672851562 c 0
 330.477539062 773.672851562 383.02734375 681.440429688 383.02734375 592.372070312 c 0
 383.02734375 537.102539062 362.99609375 481.6484375 318.491210938 448.008789062 c 0
 317.653320312 447.375976562 316.610351562 447 315.48046875 447 c 0
 312.720703125 447 310.48046875 449.240234375 310.48046875 452 c 0
 310.48046875 453.629882812 311.26171875 455.078125 312.469726562 455.991210938 c 0
 353.751953125 487.194335938 373.02734375 539.354492188 373.02734375 592.372070312 c 0
 373.02734375 678.721679688 322.427734375 763.672851562 238.545898438 763.672851562 c 0
 230.2109375 763.672851562 221.484375 762.840820312 212.4140625 761.086914062 c 0
 133.08984375 746.08203125 92.48046875 660.528320312 92.48046875 578 c 2
 92.48046875 532 l 2
 92.48046875 531.94140625 92.4794921875 531.8828125 92.4775390625 531.82421875 c 0
 89.7412109375 452.764648438 80 367.830078125 80 289.326171875 c 0
 80 176.594726562 100.75 79.8623046875 192.97265625 19 c 1
 203.48046875 19 l 2
 241.983398438 19 284.252929688 7 323.48046875 7 c 0
 362.0234375 7 398.131835938 64.8916015625 425.462890625 139.44140625 c 0
 459.060546875 231.087890625 478.4140625 342.668945312 478.479492188 375.830078125 c 0
 470.502929688 492.623046875 424.948242188 605.108398438 365.204101562 703.408203125 c 0
 364.745117188 704.1640625 364.48046875 705.051757812 364.48046875 706 c 0
 364.48046875 708.759765625 366.720703125 711 369.48046875 711 c 0
 371.291015625 711 372.87890625 710.03515625 373.755859375 708.591796875 c 0
 434.09765625 609.307617188 480.37890625 495.353515625 488.46875 376.34375 c 0
 488.4765625 376.229492188 488.48046875 376.115234375 488.48046875 376 c 0
 488.48046875 340.641601562 469.01171875 229.173828125 434.854492188 136.00390625 c 0
 407.935546875 62.5751953125 371.244140625 -3 323.48046875 -3 c 0
EndSplineSet
EndChar
StartChar: O
Encoding: 79 79 41
Width: 518
Flags: HW
LayerCount: 2
Fore
SplineSet
383.48046875 -3 m 0
 343.75 -3 301.551757812 9 263.48046875 9 c 2
 251.48046875 9 l 2
 250.474609375 9 249.5390625 9.296875 248.754882812 9.80859375 c 0
 151.2578125 73.3759765625 130 175.19140625 130 289.326171875 c 0
 130 368.231445312 139.737304688 452.966796875 142.48046875 532.087890625 c 1
 142.48046875 578 l 2
 142.48046875 662.805664062 184.217773438 754.58203125 270.546875 770.913085938 c 0
 280.208007812 772.78125 289.53515625 773.672851562 298.545898438 773.672851562 c 0
 390.477539062 773.672851562 443.02734375 681.440429688 443.02734375 592.372070312 c 0
 443.02734375 537.102539062 422.99609375 481.6484375 378.491210938 448.008789062 c 0
 377.653320312 447.375976562 376.610351562 447 375.48046875 447 c 0
 372.720703125 447 370.48046875 449.240234375 370.48046875 452 c 0
 370.48046875 453.629882812 371.26171875 455.078125 372.469726562 455.991210938 c 0
 413.751953125 487.194335938 433.02734375 539.354492188 433.02734375 592.372070312 c 0
 433.02734375 678.721679688 382.427734375 763.672851562 298.545898438 763.672851562 c 0
 290.2109375 763.672851562 281.484375 762.840820312 272.4140625 761.086914062 c 0
 193.08984375 746.08203125 152.48046875 660.528320312 152.48046875 578 c 2
 152.48046875 532 l 2
 152.48046875 531.94140625 152.479492188 531.8828125 152.477539062 531.82421875 c 0
 149.741210938 452.764648438 140 367.830078125 140 289.326171875 c 0
 140 176.594726562 160.75 79.8623046875 252.97265625 19 c 1
 263.48046875 19 l 2
 301.983398438 19 344.252929688 7 383.48046875 7 c 0
 422.0234375 7 458.131835938 64.8916015625 485.462890625 139.44140625 c 0
 519.060546875 231.087890625 538.4140625 342.668945312 538.479492188 375.830078125 c 0
 530.502929688 492.623046875 484.948242188 605.108398438 425.204101562 703.408203125 c 0
 424.745117188 704.1640625 424.48046875 705.051757812 424.48046875 706 c 0
 424.48046875 708.759765625 426.720703125 711 429.48046875 711 c 0
 431.291015625 711 432.87890625 710.03515625 433.755859375 708.591796875 c 0
 494.09765625 609.307617188 540.37890625 495.353515625 548.46875 376.34375 c 0
 548.4765625 376.229492188 548.48046875 376.115234375 548.48046875 376 c 0
 548.48046875 340.641601562 529.01171875 229.173828125 494.854492188 136.00390625 c 0
 467.935546875 62.5751953125 431.244140625 -3 383.48046875 -3 c 0
EndSplineSet
EndChar
StartChar: P
Encoding: 80 80 42
Width: 642
Flags: HW
LayerCount: 2
Fore
SplineSet
273.979492188 498.3046875 m 0
 273.979492188 496.846679688 274 495.415039062 274 494 c 0
 274 431.627929688 307.759765625 351 377 351 c 0
 474.666015625 351 602 432.51953125 602 538 c 0
 602 699.119140625 488.213867188 775 333 775 c 0
 271.4296875 775 222.075195312 773.06640625 186.375976562 759.514648438 c 0
 142.350585938 742.801757812 117.454101562 708.712890625 113.994140625 633.765625 c 0
 113.70703125 627.5390625 113.561523438 621.303710938 113.561523438 615.069335938 c 0
 113.561523438 566.450195312 122.411132812 517.893554688 141.583984375 473.998046875 c 0
 141.8515625 473.385742188 142 472.709960938 142 472 c 0
 142 469.240234375 139.759765625 467 137 467 c 0
 134.950195312 467 133.1875 468.236328125 132.416015625 470.001953125 c 0
 112.614257812 515.334960938 103.561523438 565.225585938 103.561523438 615.069335938 c 0
 103.561523438 621.461914062 103.7109375 627.853515625 104.005859375 634.234375 c 0
 107.568359375 711.412109375 134.563476562 750.543945312 182.83203125 768.8671875 c 0
 220.967773438 783.34375 271.306640625 785 333 785 c 0
 491.590820312 785 612 705.689453125 612 538 c 0
 612 424.4140625 478.20703125 341 377 341 c 0
 298.462890625 341 264 430.221679688 264 494 c 0
 264 495.391601562 263.979492188 496.828125 263.979492188 498.3046875 c 0
 263.979492188 498.404296875 263.979492188 498.505859375 263.979492188 498.609375 c 0
 263.979492188 506.999023438 264.083007812 527 281 527 c 0
 283.759765625 527 286 524.759765625 286 522 c 0
 286 519.240234375 283.759765625 517 281 517 c 0
 275.64453125 517 273.979492188 509.596679688 273.979492188 498.3046875 c 0
230.0234375 171.913085938 m 0
 230.0234375 176.447265625 230 180.715820312 230 185 c 0
 230 255.692382812 222.50390625 325.47265625 222.000976562 394.805664062 c 2
 220 670.962890625 l 2
 220 673.759765625 222.240234375 676 225 676 c 0
 227.747070312 676 229.98046875 673.779296875 230 671.037109375 c 2
 231.999023438 395.116210938 l 1
 234.659179688 325.680664062 240 256.086914062 240 185 c 0
 240 180.731445312 240.0234375 176.448242188 240.0234375 171.913085938 c 0
 240.0234375 135.092773438 239.02734375 68.9443359375 215.516601562 27.6328125 c 0
 203.676757812 6.8310546875 185.463867188 -8 159 -8 c 0
 111.494140625 -8 103.91796875 41.98828125 79.5380859375 65.3935546875 c 0
 78.712890625 66.185546875 78.1591796875 67.2578125 78.029296875 68.45703125 c 2
 70.029296875 142.45703125 l 2
 70.009765625 142.635742188 70 142.81640625 70 143 c 0
 70 145.759765625 72.240234375 148 75 148 c 0
 77.576171875 148 79.7001953125 146.046875 79.970703125 143.54296875 c 2
 87.7802734375 71.302734375 l 1
 95.609375 63.34375 101.556640625 53.29296875 107.461914062 43.447265625 c 0
 120.607421875 21.52734375 132.611328125 2 159 2 c 0
 226.731445312 2 230.0234375 117.263671875 230.0234375 171.913085938 c 0
EndSplineSet
EndChar
StartChar: P
Encoding: 80 80 42
Width: 642
Flags: HW
LayerCount: 2
Fore
SplineSet
283.979492188 498.3046875 m 0
 283.979492188 496.846679688 284 495.415039062 284 494 c 0
 284 431.627929688 317.759765625 351 387 351 c 0
 484.666015625 351 612 432.51953125 612 538 c 0
 612 699.119140625 498.213867188 775 343 775 c 0
 281.4296875 775 232.075195312 773.06640625 196.375976562 759.514648438 c 0
 152.350585938 742.801757812 127.454101562 708.712890625 123.994140625 633.765625 c 0
 123.70703125 627.5390625 123.561523438 621.303710938 123.561523438 615.069335938 c 0
 123.561523438 566.450195312 132.411132812 517.893554688 151.583984375 473.998046875 c 0
 151.8515625 473.385742188 152 472.709960938 152 472 c 0
 152 469.240234375 149.759765625 467 147 467 c 0
 144.950195312 467 143.1875 468.236328125 142.416015625 470.001953125 c 0
 122.614257812 515.334960938 113.561523438 565.225585938 113.561523438 615.069335938 c 0
 113.561523438 621.461914062 113.7109375 627.853515625 114.005859375 634.234375 c 0
 117.568359375 711.412109375 144.563476562 750.543945312 192.83203125 768.8671875 c 0
 230.967773438 783.34375 281.306640625 785 343 785 c 0
 501.590820312 785 622 705.689453125 622 538 c 0
 622 424.4140625 488.20703125 341 387 341 c 0
 308.462890625 341 274 430.221679688 274 494 c 0
 274 495.391601562 273.979492188 496.828125 273.979492188 498.3046875 c 0
 273.979492188 498.404296875 273.979492188 498.505859375 273.979492188 498.609375 c 0
 273.979492188 506.999023438 274.083007812 527 291 527 c 0
 293.759765625 527 296 524.759765625 296 522 c 0
 296 519.240234375 293.759765625 517 291 517 c 0
 285.64453125 517 283.979492188 509.596679688 283.979492188 498.3046875 c 0
240.0234375 171.913085938 m 0
 240.0234375 176.447265625 240 180.715820312 240 185 c 0
 240 255.692382812 232.50390625 325.47265625 232.000976562 394.805664062 c 2
 230 670.962890625 l 2
 230 673.759765625 232.240234375 676 235 676 c 0
 237.747070312 676 239.98046875 673.779296875 240 671.037109375 c 2
 241.999023438 395.116210938 l 1
 244.659179688 325.680664062 250 256.086914062 250 185 c 0
 250 180.731445312 250.0234375 176.448242188 250.0234375 171.913085938 c 0
 250.0234375 135.092773438 249.02734375 68.9443359375 225.516601562 27.6328125 c 0
 213.676757812 6.8310546875 195.463867188 -8 169 -8 c 0
 121.494140625 -8 113.91796875 41.98828125 89.5380859375 65.3935546875 c 0
 88.712890625 66.185546875 88.1591796875 67.2578125 88.029296875 68.45703125 c 2
 80.029296875 142.45703125 l 2
 80.009765625 142.635742188 80 142.81640625 80 143 c 0
 80 145.759765625 82.240234375 148 85 148 c 0
 87.576171875 148 89.7001953125 146.046875 89.970703125 143.54296875 c 2
 97.7802734375 71.302734375 l 1
 105.609375 63.34375 111.556640625 53.29296875 117.461914062 43.447265625 c 0
 130.607421875 21.52734375 142.611328125 2 169 2 c 0
 236.731445312 2 240.0234375 117.263671875 240.0234375 171.913085938 c 0
EndSplineSet
EndChar
StartChar: Q
Encoding: 81 81 43
Width: 482
Flags: HW
LayerCount: 2
Fore
SplineSet
406.372070312 -61 m 0
 406.372070312 -60.3984375 406.41015625 -59.794921875 406.41015625 -59.19921875 c 0
 406.41015625 -29.4658203125 368.224609375 -4.568359375 353.287109375 18.3603515625 c 1
 341.037109375 4.6171875 317.379882812 -2.1435546875 299.653320312 -2.1435546875 c 0
 298.122070312 -2.1435546875 296.612304688 -2.0947265625 295.12890625 -1.9951171875 c 0
 117.489257812 3.0078125 70 251.985351562 70 396.454101562 c 0
 70 410.473632812 70.44921875 422.546875 70.625 436.513671875 c 0
 72.1357421875 556.663085938 73.5400390625 753.637695312 229.912109375 753.637695312 c 0
 234.861328125 753.637695312 239.956054688 753.4375 245.200195312 753.029296875 c 0
 255.1015625 754.4765625 264.608398438 755.17578125 273.733398438 755.17578125 c 0
 407.765625 755.17578125 452.223632812 606.118164062 452.223632812 487.368164062 c 0
 452.223632812 473.102539062 451.58984375 459.200195312 450.38671875 445.9375 c 0
 451.459960938 429.712890625 452.043945312 412.66796875 452.043945312 395.081054688 c 0
 452.043945312 265.72265625 420.684570312 105.63671875 316.276367188 30.9306640625 c 0
 315.458007812 30.3447265625 314.455078125 30 313.372070312 30 c 0
 310.612304688 30 308.372070312 32.240234375 308.372070312 35 c 0
 308.372070312 36.6767578125 309.19921875 38.162109375 310.466796875 39.0693359375 c 0
 410.1640625 110.404296875 442.043945312 266.63671875 442.043945312 395.081054688 c 0
 442.043945312 412.583984375 441.45703125 429.543945312 440.3828125 445.663085938 c 0
 440.375 445.774414062 440.372070312 445.88671875 440.372070312 446 c 0
 440.372070312 446.155273438 440.37890625 446.309570312 440.392578125 446.4609375 c 0
 441.58984375 459.528320312 442.223632812 473.265625 442.223632812 487.368164062 c 0
 442.223632812 605.919921875 397.915039062 745.17578125 273.733398438 745.17578125 c 0
 264.96484375 745.17578125 255.762695312 744.490234375 246.112304688 743.0546875 c 0
 245.87109375 743.018554688 245.623046875 743 245.372070312 743 c 0
 240.063476562 743 234.877929688 743.637695312 229.912109375 743.637695312 c 0
 85.55859375 743.637695312 82.1826171875 560.330078125 80.6240234375 436.385742188 c 0
 80.44921875 422.470703125 80 410.422851562 80 396.454101562 c 0
 80 250.713867188 128.928710938 12.599609375 295.51171875 7.998046875 c 0
 296.860351562 7.9609375 298.231445312 7.8564453125 299.653320312 7.8564453125 c 0
 318.80078125 7.8564453125 340.025390625 16.4404296875 348.0703125 28.529296875 c 0
 346.700195312 32.2744140625 345.918945312 36.1494140625 345.918945312 40.1904296875 c 0
 345.918945312 45.0654296875 347.30859375 56 353.372070312 56 c 0
 355.352539062 56 357.06640625 54.845703125 357.875 53.1728515625 c 0
 360.244140625 48.27734375 361.405273438 43.44140625 361.405273438 38.76953125 c 0
 361.405273438 34.939453125 360.69140625 31.3828125 359.395507812 28.09765625 c 0
 373.482421875 1.5615234375 416.41015625 -21.48828125 416.41015625 -59.19921875 c 0
 416.41015625 -99.8671875 383.450195312 -116.924804688 367.676757812 -143.543945312 c 0
 366.805664062 -145.013671875 365.203125 -146 363.372070312 -146 c 2
 291.372070312 -146 l 2
 288.612304688 -146 286.372070312 -143.759765625 286.372070312 -141 c 0
 286.372070312 -138.240234375 288.612304688 -136 291.372070312 -136 c 2
 360.578125 -136 l 1
 366.087890625 -127.362304688 372.903320312 -119.879882812 379.48046875 -112.6171875 c 0
 393.732421875 -96.8828125 406.372070312 -82.6689453125 406.372070312 -61 c 0
EndSplineSet
EndChar
StartChar: Q
Encoding: 81 81 43
Width: 482
Flags: HW
LayerCount: 2
Fore
SplineSet
416.372070312 -61 m 0
 416.372070312 -60.3984375 416.41015625 -59.794921875 416.41015625 -59.19921875 c 0
 416.41015625 -29.4658203125 378.224609375 -4.568359375 363.287109375 18.3603515625 c 1
 351.037109375 4.6171875 327.379882812 -2.1435546875 309.653320312 -2.1435546875 c 0
 308.122070312 -2.1435546875 306.612304688 -2.0947265625 305.12890625 -1.9951171875 c 0
 127.489257812 3.0078125 80 251.985351562 80 396.454101562 c 0
 80 410.473632812 80.44921875 422.546875 80.625 436.513671875 c 0
 82.1357421875 556.663085938 83.5400390625 753.637695312 239.912109375 753.637695312 c 0
 244.861328125 753.637695312 249.956054688 753.4375 255.200195312 753.029296875 c 0
 265.1015625 754.4765625 274.608398438 755.17578125 283.733398438 755.17578125 c 0
 417.765625 755.17578125 462.223632812 606.118164062 462.223632812 487.368164062 c 0
 462.223632812 473.102539062 461.58984375 459.200195312 460.38671875 445.9375 c 0
 461.459960938 429.712890625 462.043945312 412.66796875 462.043945312 395.081054688 c 0
 462.043945312 265.72265625 430.684570312 105.63671875 326.276367188 30.9306640625 c 0
 325.458007812 30.3447265625 324.455078125 30 323.372070312 30 c 0
 320.612304688 30 318.372070312 32.240234375 318.372070312 35 c 0
 318.372070312 36.6767578125 319.19921875 38.162109375 320.466796875 39.0693359375 c 0
 420.1640625 110.404296875 452.043945312 266.63671875 452.043945312 395.081054688 c 0
 452.043945312 412.583984375 451.45703125 429.543945312 450.3828125 445.663085938 c 0
 450.375 445.774414062 450.372070312 445.88671875 450.372070312 446 c 0
 450.372070312 446.155273438 450.37890625 446.309570312 450.392578125 446.4609375 c 0
 451.58984375 459.528320312 452.223632812 473.265625 452.223632812 487.368164062 c 0
 452.223632812 605.919921875 407.915039062 745.17578125 283.733398438 745.17578125 c 0
 274.96484375 745.17578125 265.762695312 744.490234375 256.112304688 743.0546875 c 0
 255.87109375 743.018554688 255.623046875 743 255.372070312 743 c 0
 250.063476562 743 244.877929688 743.637695312 239.912109375 743.637695312 c 0
 95.55859375 743.637695312 92.1826171875 560.330078125 90.6240234375 436.385742188 c 0
 90.44921875 422.470703125 90 410.422851562 90 396.454101562 c 0
 90 250.713867188 138.928710938 12.599609375 305.51171875 7.998046875 c 0
 306.860351562 7.9609375 308.231445312 7.8564453125 309.653320312 7.8564453125 c 0
 328.80078125 7.8564453125 350.025390625 16.4404296875 358.0703125 28.529296875 c 0
 356.700195312 32.2744140625 355.918945312 36.1494140625 355.918945312 40.1904296875 c 0
 355.918945312 45.0654296875 357.30859375 56 363.372070312 56 c 0
 365.352539062 56 367.06640625 54.845703125 367.875 53.1728515625 c 0
 370.244140625 48.27734375 371.405273438 43.44140625 371.405273438 38.76953125 c 0
 371.405273438 34.939453125 370.69140625 31.3828125 369.395507812 28.09765625 c 0
 383.482421875 1.5615234375 426.41015625 -21.48828125 426.41015625 -59.19921875 c 0
 426.41015625 -99.8671875 393.450195312 -116.924804688 377.676757812 -143.543945312 c 0
 376.805664062 -145.013671875 375.203125 -146 373.372070312 -146 c 2
 301.372070312 -146 l 2
 298.612304688 -146 296.372070312 -143.759765625 296.372070312 -141 c 0
 296.372070312 -138.240234375 298.612304688 -136 301.372070312 -136 c 2
 370.578125 -136 l 1
 376.087890625 -127.362304688 382.903320312 -119.879882812 389.48046875 -112.6171875 c 0
 403.732421875 -96.8828125 416.372070312 -82.6689453125 416.372070312 -61 c 0
EndSplineSet
EndChar
StartChar: R
Encoding: 82 82 44
Width: 633
Flags: HW
LayerCount: 2
Fore
SplineSet
269.693359375 498.96875 m 0
 269.693359375 510.975585938 271.76171875 522.959960938 282.586914062 522.959960938 c 0
 287.9140625 522.959960938 292.715820312 519.98046875 297.458984375 516.189453125 c 0
 315.442382812 501.81640625 340.939453125 463.861328125 345.658203125 445.580078125 c 0
 353.455078125 426.810546875 358.9765625 407.620117188 362.999023438 388.177734375 c 1
 436.770507812 404.126953125 519.8984375 477.490234375 519.8984375 548 c 0
 519.8984375 678.696289062 451.266601562 779 282.8984375 779 c 0
 282.654296875 779 282.413085938 779.017578125 282.177734375 779.051757812 c 0
 272.828125 780.405273438 264.043945312 781.047851562 255.794921875 781.047851562 c 0
 135.366210938 781.047851562 120.549804688 642.056640625 113.888671875 537.677734375 c 0
 113.721679688 535.068359375 111.549804688 533 108.8984375 533 c 0
 106.139648438 533 103.8984375 535.240234375 103.8984375 538 c 0
 103.8984375 538.108398438 103.90234375 538.215820312 103.909179688 538.322265625 c 0
 110.3984375 640.010742188 124.45703125 791.047851562 255.794921875 791.047851562 c 0
 264.466796875 791.047851562 273.611328125 790.380859375 283.26171875 789 c 0
 456.892578125 788.852539062 529.8984375 682.883789062 529.8984375 548 c 0
 529.8984375 470.865234375 442.809570312 394.930664062 364.907226562 378.3359375 c 1
 377.521484375 308.759765625 372.791015625 235.858398438 385.811523438 166.932617188 c 0
 396.305664062 111.383789062 430.426757812 7 494.8984375 7 c 0
 530.615234375 7 557.4296875 56.384765625 582.791992188 77.1123046875 c 1
 594.30078125 103.965820312 l 2
 595.065429688 105.749023438 596.836914062 107 598.8984375 107 c 0
 601.658203125 107 603.8984375 104.759765625 603.8984375 102 c 0
 603.8984375 101.301757812 603.755859375 100.637695312 603.497070312 100.034179688 c 2
 591.497070312 72.0341796875 l 2
 591.166015625 71.2626953125 590.647460938 70.5908203125 589.998046875 70.0771484375 c 0
 562.563476562 48.369140625 538.384765625 -3 494.8984375 -3 c 0
 419.748046875 -3 386.15625 111.227539062 375.986328125 165.067382812 c 0
 362.889648438 234.392578125 367.581054688 307.28515625 355.041015625 376.547851562 c 1
 348.19921875 375.529296875 341.462890625 375 334.8984375 375 c 0
 333.846679688 375 332.870117188 375.325195312 332.064453125 375.881835938 c 0
 294.990234375 401.458007812 269.693359375 452.284179688 269.693359375 498.96875 c 0
279.693359375 498.96875 m 0
 279.693359375 456.151367188 303.224609375 408.715820312 336.4609375 385.010742188 c 0
 341.908203125 385.0859375 347.48046875 385.552734375 353.133789062 386.3828125 c 1
 349.203125 405.358398438 343.83203125 423.97265625 336.282226562 442.079101562 c 0
 336.184570312 442.3125 336.104492188 442.5546875 336.04296875 442.803710938 c 0
 333.745117188 452.1484375 321.338867188 473.827148438 308.16796875 490.462890625 c 0
 302.315429688 497.856445312 296.299804688 504.31640625 291.22265625 508.374023438 c 0
 287.067382812 511.6953125 283.760742188 512.959960938 282.586914062 512.959960938 c 0
 282.544921875 512.959960938 282.360351562 513.119140625 282.1015625 513.119140625 c 0
 280.40625 513.119140625 279.693359375 503.955078125 279.693359375 498.96875 c 0
259.8984375 258 m 0
 259.8984375 233.513671875 261.498046875 210.595703125 261.498046875 181.41796875 c 0
 261.498046875 125.40625 257.30859375 55.5927734375 232.087890625 13.9873046875 c 0
 219.390625 -6.958984375 200.75 -21 174.8984375 -21 c 0
 142.4296875 -21 93.8857421875 10.826171875 85.240234375 46.9365234375 c 1
 82.505859375 44.109375 80.818359375 41.9267578125 78.11328125 39.9775390625 c 0
 77.9482421875 39.8583984375 77.7314453125 38.9453125 75.0234375 38.9453125 c 0
 72.2763671875 38.9453125 70 41.98046875 70 43.9697265625 c 0
 70 46.5556640625 70.5341796875 46.3994140625 71.1796875 47.314453125 c 0
 72.9521484375 49.8271484375 74.44921875 51.4091796875 77.15234375 54.5537109375 c 0
 86.01171875 64.8583984375 100.379882812 81.1787109375 109.625976562 91.091796875 c 0
 110.302734375 91.8173828125 110.381835938 91.98828125 111.114257812 92.560546875 c 0
 111.129882812 92.572265625 111.161132812 93.6298828125 114.208984375 93.6298828125 c 0
 117.010742188 93.6298828125 119.2109375 90.53125 119.2109375 88.626953125 c 0
 119.2109375 85.4345703125 118.565429688 86.076171875 118.100585938 85.4697265625 c 0
 116.819335938 83.7958984375 116.051757812 83.0234375 113.911132812 80.56640625 c 0
 110.32421875 76.451171875 104.184570312 69.47265625 94.64453125 58.689453125 c 0
 94.419921875 58.435546875 94.169921875 58.205078125 93.8984375 58 c 0
 93.8984375 25.7177734375 143.555664062 -11 174.8984375 -11 c 0
 196.680664062 -11 212.049804688 0.220703125 223.530273438 19.16015625 c 0
 246.665039062 57.3251953125 251.498046875 125.77734375 251.498046875 181.41796875 c 0
 251.498046875 210.604492188 249.8984375 233.270507812 249.8984375 258 c 0
 249.8984375 388.595703125 211.888671875 517.233398438 193.952148438 639.267578125 c 0
 193.916992188 639.506835938 193.8984375 639.750976562 193.8984375 640 c 0
 193.8984375 640.2421875 193.916015625 640.479492188 193.94921875 640.711914062 c 2
 195.94921875 654.711914062 l 2
 196.295898438 657.134765625 198.380859375 659 200.8984375 659 c 0
 203.658203125 659 205.8984375 656.759765625 205.8984375 654 c 0
 205.8984375 653.7578125 205.881835938 653.520507812 205.848632812 653.288085938 c 2
 203.952148438 640.010742188 l 1
 222.012695312 517.594726562 259.8984375 389.940429688 259.8984375 258 c 0
EndSplineSet
EndChar
StartChar: R
Encoding: 82 82 44
Width: 633
Flags: HW
LayerCount: 2
Fore
SplineSet
329.693359375 498.96875 m 0
 329.693359375 510.975585938 331.76171875 522.959960938 342.586914062 522.959960938 c 0
 347.9140625 522.959960938 352.715820312 519.98046875 357.458984375 516.189453125 c 0
 375.442382812 501.81640625 400.939453125 463.861328125 405.658203125 445.580078125 c 0
 413.455078125 426.810546875 418.9765625 407.620117188 422.999023438 388.177734375 c 1
 496.770507812 404.126953125 579.8984375 477.490234375 579.8984375 548 c 0
 579.8984375 678.696289062 511.266601562 779 342.8984375 779 c 0
 342.654296875 779 342.413085938 779.017578125 342.177734375 779.051757812 c 0
 332.828125 780.405273438 324.043945312 781.047851562 315.794921875 781.047851562 c 0
 195.366210938 781.047851562 180.549804688 642.056640625 173.888671875 537.677734375 c 0
 173.721679688 535.068359375 171.549804688 533 168.8984375 533 c 0
 166.139648438 533 163.8984375 535.240234375 163.8984375 538 c 0
 163.8984375 538.108398438 163.90234375 538.215820312 163.909179688 538.322265625 c 0
 170.3984375 640.010742188 184.45703125 791.047851562 315.794921875 791.047851562 c 0
 324.466796875 791.047851562 333.611328125 790.380859375 343.26171875 789 c 0
 516.892578125 788.852539062 589.8984375 682.883789062 589.8984375 548 c 0
 589.8984375 470.865234375 502.809570312 394.930664062 424.907226562 378.3359375 c 1
 437.521484375 308.759765625 432.791015625 235.858398438 445.811523438 166.932617188 c 0
 456.305664062 111.383789062 490.426757812 7 554.8984375 7 c 0
 590.615234375 7 617.4296875 56.384765625 642.791992188 77.1123046875 c 1
 654.30078125 103.965820312 l 2
 655.065429688 105.749023438 656.836914062 107 658.8984375 107 c 0
 661.658203125 107 663.8984375 104.759765625 663.8984375 102 c 0
 663.8984375 101.301757812 663.755859375 100.637695312 663.497070312 100.034179688 c 2
 651.497070312 72.0341796875 l 2
 651.166015625 71.2626953125 650.647460938 70.5908203125 649.998046875 70.0771484375 c 0
 622.563476562 48.369140625 598.384765625 -3 554.8984375 -3 c 0
 479.748046875 -3 446.15625 111.227539062 435.986328125 165.067382812 c 0
 422.889648438 234.392578125 427.581054688 307.28515625 415.041015625 376.547851562 c 1
 408.19921875 375.529296875 401.462890625 375 394.8984375 375 c 0
 393.846679688 375 392.870117188 375.325195312 392.064453125 375.881835938 c 0
 354.990234375 401.458007812 329.693359375 452.284179688 329.693359375 498.96875 c 0
339.693359375 498.96875 m 0
 339.693359375 456.151367188 363.224609375 408.715820312 396.4609375 385.010742188 c 0
 401.908203125 385.0859375 407.48046875 385.552734375 413.133789062 386.3828125 c 1
 409.203125 405.358398438 403.83203125 423.97265625 396.282226562 442.079101562 c 0
 396.184570312 442.3125 396.104492188 442.5546875 396.04296875 442.803710938 c 0
 393.745117188 452.1484375 381.338867188 473.827148438 368.16796875 490.462890625 c 0
 362.315429688 497.856445312 356.299804688 504.31640625 351.22265625 508.374023438 c 0
 347.067382812 511.6953125 343.760742188 512.959960938 342.586914062 512.959960938 c 0
 342.544921875 512.959960938 342.360351562 513.119140625 342.1015625 513.119140625 c 0
 340.40625 513.119140625 339.693359375 503.955078125 339.693359375 498.96875 c 0
319.8984375 258 m 0
 319.8984375 233.513671875 321.498046875 210.595703125 321.498046875 181.41796875 c 0
 321.498046875 125.40625 317.30859375 55.5927734375 292.087890625 13.9873046875 c 0
 279.390625 -6.958984375 260.75 -21 234.8984375 -21 c 0
 202.4296875 -21 153.885742188 10.826171875 145.240234375 46.9365234375 c 1
 142.505859375 44.109375 140.818359375 41.9267578125 138.11328125 39.9775390625 c 0
 137.948242188 39.8583984375 137.731445312 38.9453125 135.0234375 38.9453125 c 0
 132.276367188 38.9453125 130 41.98046875 130 43.9697265625 c 0
 130 46.5556640625 130.534179688 46.3994140625 131.1796875 47.314453125 c 0
 132.952148438 49.8271484375 134.44921875 51.4091796875 137.15234375 54.5537109375 c 0
 146.01171875 64.8583984375 160.379882812 81.1787109375 169.625976562 91.091796875 c 0
 170.302734375 91.8173828125 170.381835938 91.98828125 171.114257812 92.560546875 c 0
 171.129882812 92.572265625 171.161132812 93.6298828125 174.208984375 93.6298828125 c 0
 177.010742188 93.6298828125 179.2109375 90.53125 179.2109375 88.626953125 c 0
 179.2109375 85.4345703125 178.565429688 86.076171875 178.100585938 85.4697265625 c 0
 176.819335938 83.7958984375 176.051757812 83.0234375 173.911132812 80.56640625 c 0
 170.32421875 76.451171875 164.184570312 69.47265625 154.64453125 58.689453125 c 0
 154.419921875 58.435546875 154.169921875 58.205078125 153.8984375 58 c 0
 153.8984375 25.7177734375 203.555664062 -11 234.8984375 -11 c 0
 256.680664062 -11 272.049804688 0.220703125 283.530273438 19.16015625 c 0
 306.665039062 57.3251953125 311.498046875 125.77734375 311.498046875 181.41796875 c 0
 311.498046875 210.604492188 309.8984375 233.270507812 309.8984375 258 c 0
 309.8984375 388.595703125 271.888671875 517.233398438 253.952148438 639.267578125 c 0
 253.916992188 639.506835938 253.8984375 639.750976562 253.8984375 640 c 0
 253.8984375 640.2421875 253.916015625 640.479492188 253.94921875 640.711914062 c 2
 255.94921875 654.711914062 l 2
 256.295898438 657.134765625 258.380859375 659 260.8984375 659 c 0
 263.658203125 659 265.8984375 656.759765625 265.8984375 654 c 0
 265.8984375 653.7578125 265.881835938 653.520507812 265.848632812 653.288085938 c 2
 263.952148438 640.010742188 l 1
 282.012695312 517.594726562 319.8984375 389.940429688 319.8984375 258 c 0
EndSplineSet
EndChar
StartChar: S
Encoding: 83 83 45
Width: 542
Flags: HW
LayerCount: 2
Fore
SplineSet
287 779 m 0
 240.416992188 779 209.76953125 777.799804688 191.040039062 768.67578125 c 0
 168.477539062 757.684570312 160 734.318359375 160 678 c 0
 160 567.661132812 217.916015625 504.306640625 287.446289062 449.469726562 c 1
 329.16015625 530.65234375 370 607.008789062 370 716 c 0
 370 766.857421875 334.614257812 779 287 779 c 0
295.474609375 443.211914062 m 1
 390.700195312 369.791992188 512 306.08203125 512 154 c 0
 512 68.376953125 441.22265625 -29 347 -29 c 0
 322.086914062 -29 302.0078125 -11.984375 286.518554688 10.8369140625 c 0
 255.432617188 56.638671875 240 129.06640625 240 162 c 0
 240 210.975585938 264.336914062 231.599609375 293.88671875 231.599609375 c 0
 334.869140625 231.599609375 385.340820312 193.12109375 385.340820312 152.451171875 c 0
 385.340820312 134.411132812 374.95703125 116.942382812 351.45703125 103.645507812 c 0
 350.731445312 103.234375 349.892578125 103 349 103 c 0
 320.108398438 103 299.891601562 122.064453125 299.59375 122.340820312 c 0
 298.61328125 123.25390625 298 124.555664062 298 126 c 0
 298 128.759765625 300.240234375 131 303 131 c 0
 304.315429688 131 305.513671875 130.491210938 306.40625 129.659179688 c 0
 306.40625 129.659179688 323.685546875 113.5859375 347.693359375 113.015625 c 1
 368.153320312 124.946289062 375.340820312 138.885742188 375.340820312 152.451171875 c 0
 375.340820312 185.439453125 330.428710938 221.599609375 293.88671875 221.599609375 c 0
 270.364257812 221.599609375 250 207.244140625 250 162 c 0
 250 136.633789062 260.633789062 82.4072265625 281.279296875 40.0732421875 c 0
 297.9921875 5.802734375 320.421875 -19 347 -19 c 0
 434.05078125 -19 502 72.681640625 502 154 c 0
 502 279.088867188 418.682617188 340.19140625 331.690429688 403.793945312 c 0
 318.044921875 413.771484375 304.3125 423.80859375 290.840820312 434.163085938 c 1
 265.096679688 383.740234375 239.78515625 331.005859375 223.853515625 266.793945312 c 0
 221.724609375 258.213867188 219.629882812 249.505859375 217.517578125 240.721679688 c 0
 195.256835938 148.174804688 171.029296875 45.7734375 80 -3.0185546875 c 1
 80 -6 l 2
 80 -8.759765625 77.759765625 -11 75 -11 c 0
 72.240234375 -11 70 -8.759765625 70 -6 c 2
 70 0 l 2
 70 1.9345703125 71.1005859375 3.61328125 72.708984375 4.4453125 c 0
 169.151367188 54.2890625 188.262695312 164.881835938 214.146484375 269.206054688 c 0
 230.549804688 335.317382812 256.685546875 389.338867188 282.80078125 440.409179688 c 1
 211.72265625 496.252929688 150 562.53515625 150 678 c 0
 150 734.327148438 158.354492188 763.876953125 186.669921875 777.670898438 c 0
 208.642578125 788.375 240.487304688 789 287 789 c 0
 335.727539062 789 380 774.82421875 380 716 c 0
 380 603.569335938 337.403320312 524.872070312 295.474609375 443.211914062 c 1
EndSplineSet
EndChar
StartChar: S
Encoding: 83 83 45
Width: 542
Flags: HW
LayerCount: 2
Fore
SplineSet
347 779 m 0
 300.416992188 779 269.76953125 777.799804688 251.040039062 768.67578125 c 0
 228.477539062 757.684570312 220 734.318359375 220 678 c 0
 220 567.661132812 277.916015625 504.306640625 347.446289062 449.469726562 c 1
 389.16015625 530.65234375 430 607.008789062 430 716 c 0
 430 766.857421875 394.614257812 779 347 779 c 0
355.474609375 443.211914062 m 1
 450.700195312 369.791992188 572 306.08203125 572 154 c 0
 572 68.376953125 501.22265625 -29 407 -29 c 0
 382.086914062 -29 362.0078125 -11.984375 346.518554688 10.8369140625 c 0
 315.432617188 56.638671875 300 129.06640625 300 162 c 0
 300 210.975585938 324.336914062 231.599609375 353.88671875 231.599609375 c 0
 394.869140625 231.599609375 445.340820312 193.12109375 445.340820312 152.451171875 c 0
 445.340820312 134.411132812 434.95703125 116.942382812 411.45703125 103.645507812 c 0
 410.731445312 103.234375 409.892578125 103 409 103 c 0
 380.108398438 103 359.891601562 122.064453125 359.59375 122.340820312 c 0
 358.61328125 123.25390625 358 124.555664062 358 126 c 0
 358 128.759765625 360.240234375 131 363 131 c 0
 364.315429688 131 365.513671875 130.491210938 366.40625 129.659179688 c 0
 366.40625 129.659179688 383.685546875 113.5859375 407.693359375 113.015625 c 1
 428.153320312 124.946289062 435.340820312 138.885742188 435.340820312 152.451171875 c 0
 435.340820312 185.439453125 390.428710938 221.599609375 353.88671875 221.599609375 c 0
 330.364257812 221.599609375 310 207.244140625 310 162 c 0
 310 136.633789062 320.633789062 82.4072265625 341.279296875 40.0732421875 c 0
 357.9921875 5.802734375 380.421875 -19 407 -19 c 0
 494.05078125 -19 562 72.681640625 562 154 c 0
 562 279.088867188 478.682617188 340.19140625 391.690429688 403.793945312 c 0
 378.044921875 413.771484375 364.3125 423.80859375 350.840820312 434.163085938 c 1
 325.096679688 383.740234375 299.78515625 331.005859375 283.853515625 266.793945312 c 0
 281.724609375 258.213867188 279.629882812 249.505859375 277.517578125 240.721679688 c 0
 255.256835938 148.174804688 231.029296875 45.7734375 140 -3.0185546875 c 1
 140 -6 l 2
 140 -8.759765625 137.759765625 -11 135 -11 c 0
 132.240234375 -11 130 -8.759765625 130 -6 c 2
 130 0 l 2
 130 1.9345703125 131.100585938 3.61328125 132.708984375 4.4453125 c 0
 229.151367188 54.2890625 248.262695312 164.881835938 274.146484375 269.206054688 c 0
 290.549804688 335.317382812 316.685546875 389.338867188 342.80078125 440.409179688 c 1
 271.72265625 496.252929688 210 562.53515625 210 678 c 0
 210 734.327148438 218.354492188 763.876953125 246.669921875 777.670898438 c 0
 268.642578125 788.375 300.487304688 789 347 789 c 0
 395.727539062 789 440 774.82421875 440 716 c 0
 440 603.569335938 397.403320312 524.872070312 355.474609375 443.211914062 c 1
EndSplineSet
EndChar
StartChar: T
Encoding: 84 84 46
Width: 481
Flags: HW
LayerCount: 2
Fore
SplineSet
367.841796875 3.423828125 m 0
 378.4921875 3.423828125 386.94921875 17.53125 395.12109375 31.37109375 c 1
 395.12109375 686 l 2
 395.12109375 688.764648438 395.973632812 691.536132812 396.4140625 694.176757812 c 1
 387.219726562 690.7109375 377.419921875 689.12890625 367.171875 689.12890625 c 0
 325.833007812 689.12890625 278.654296875 713.678710938 233.532226562 736.823242188 c 0
 191.137695312 758.569335938 150.536132812 779 120.12109375 779 c 0
 90.9716796875 779 80 774.736328125 80 757.193359375 c 0
 80 754.24609375 80.3310546875 750.81640625 81.041015625 746.89453125 c 0
 87.8515625 709.248046875 99.8134765625 672.75 123.250976562 653.897460938 c 0
 124.390625 652.981445312 125.12109375 651.575195312 125.12109375 650 c 0
 125.12109375 647.240234375 122.880859375 645 120.12109375 645 c 0
 118.936523438 645 117.84765625 645.413085938 116.990234375 646.102539062 c 0
 90.060546875 667.763671875 78.1005859375 706.966796875 71.201171875 745.10546875 c 0
 70.408203125 749.48828125 70 753.4921875 70 757.193359375 c 0
 70 783.694335938 91.46875 789 120.12109375 789 c 0
 154.495117188 789 195.842773438 767.395507812 238.086914062 745.727539062 c 0
 283.346679688 722.51171875 329.6171875 699.12890625 367.171875 699.12890625 c 0
 378.254882812 699.12890625 388.701171875 701.0546875 398.333007812 705.688476562 c 1
 407.188476562 758.827148438 l 2
 409.682617188 773.7890625 417.391601562 784.068359375 428.227539062 784.068359375 c 0
 438.428710938 784.068359375 446.732421875 774.918945312 450.897460938 761.48046875 c 0
 451.04296875 761.012695312 451.12109375 760.515625 451.12109375 760 c 0
 451.12109375 759.405273438 451.016601562 758.833984375 450.825195312 758.303710938 c 0
 440.0859375 728.551757812 425.1640625 709.78515625 407.427734375 699.422851562 c 1
 405.12109375 685.58203125 l 1
 405.12109375 30 l 2
 405.12109375 27.515625 403.330078125 25.6064453125 402.305664062 23.8603515625 c 0
 394.922851562 11.26953125 385.407226562 -6.576171875 367.841796875 -6.576171875 c 0
 361.989257812 -6.576171875 355.85546875 -4.46875 349.366210938 -0.171875 c 0
 330.021484375 12.634765625 314.998046875 22.3427734375 295.294921875 35.8759765625 c 0
 293.982421875 36.77734375 293.12109375 38.2890625 293.12109375 40 c 2
 293.12109375 74 l 2
 293.12109375 76.759765625 295.361328125 79 298.12109375 79 c 0
 300.880859375 79 303.12109375 76.759765625 303.12109375 74 c 2
 303.12109375 42.6337890625 l 1
 321.557617188 30.009765625 336.462890625 20.3623046875 354.875976562 8.171875 c 0
 360.231445312 4.6259765625 364.47265625 3.423828125 367.841796875 3.423828125 c 0
428.227539062 774.068359375 m 0
 424.955078125 774.068359375 419.280273438 770.536132812 417.052734375 757.172851562 c 2
 409.643554688 712.719726562 l 1
 421.844726562 722.216796875 432.390625 737.344726562 440.828125 760.087890625 c 1
 437.1484375 770.630859375 431.515625 774.068359375 428.227539062 774.068359375 c 0
EndSplineSet
EndChar
